<?xml version="1.0" encoding="UTF-8" standalone="no"?>
<!DOCTYPE svg PUBLIC "-//W3C//DTD SVG 1.1//EN"
"http://www.w3.org/Graphics/SVG/1.1/DTD/svg11.dtd">
<svg viewBox="0 0 909 1286" version="1.1" xmlns="http://www.w3.org/2000/svg" xmlns:xlink="http://www.w3.org/1999/xlink">
<defs>
<clipPath id="c0_24"><path d="M194.3,217.8V200.6H338.2v17.2Z" /></clipPath>
<clipPath id="c1_24"><path d="M191.4,285.1V267.7H371.6v17.4Z" /></clipPath>
<clipPath id="c2_24"><path d="M118.6,566.5V549.3h26.1v17.2Z" /></clipPath>
<clipPath id="c3_24"><path d="M180.4,649.4V632.3h7.5v17.1Z" /></clipPath>
<style type="text/css"><![CDATA[
.g0_24{
fill: none;
stroke: #000000;
stroke-width: 0.73333335;
stroke-linecap: round;
stroke-linejoin: round;
}
.g1_24{
fill: none;
stroke: #000000;
stroke-width: 0.36666667;
stroke-linecap: round;
stroke-linejoin: round;
}
.g2_24{
fill: #FFFFFF;
}
.g3_24{
}
.g4_24{
fill: #009900;
fill-opacity: 0.4;
}
]]></style>
</defs>
<g fill="#000000" >
<use xlink:href="#f0_l" transform="matrix(10,0,0,10,55,123.4)" />
<use xlink:href="#f0_o" transform="matrix(10,0,0,10,62.7,123.4)" />
<use xlink:href="#f0_i" transform="matrix(10,0,0,10,70.4,123.4)" />
<use xlink:href="#f0_1f" transform="matrix(10,0,0,10,89.3,123.4)" />
<use xlink:href="#f0_2f" transform="matrix(10,0,0,10,101.4,123.4)" />
<use xlink:href="#f0_29" transform="matrix(10,0,0,10,107.4,123.4)" />
<use xlink:href="#f0_2b" transform="matrix(10,0,0,10,119.5,123.4)" />
<use xlink:href="#f0_2g" transform="matrix(10,0,0,10,127.4,123.4)" />
<use xlink:href="#f0_25" transform="matrix(10,0,0,10,132.7,123.4)" />
<use xlink:href="#f0_1z" transform="matrix(10,0,0,10,137,123.4)" />
<use xlink:href="#f0_2c" transform="matrix(10,0,0,10,147.6,123.4)" />
<use xlink:href="#f0_2e" transform="matrix(10,0,0,10,155.8,123.4)" />
<use xlink:href="#f0_21" transform="matrix(10,0,0,10,162.8,123.4)" />
<use xlink:href="#f0_2f" transform="matrix(10,0,0,10,169.6,123.4)" />
<use xlink:href="#f0_2f" transform="matrix(10,0,0,10,175.6,123.4)" />
<use xlink:href="#f0_2h" transform="matrix(10,0,0,10,181.3,123.4)" />
<use xlink:href="#f0_2e" transform="matrix(10,0,0,10,189.9,123.4)" />
<use xlink:href="#f0_21" transform="matrix(10,0,0,10,196.7,123.4)" />
<use xlink:href="#f0_c" transform="matrix(10,0,0,10,207.4,123.4)" />
<use xlink:href="#f1_2c" transform="matrix(10,0,0,10,213,123.4)" />
<use xlink:href="#f1_2c" transform="matrix(10,0,0,10,212.7,123.7)" />
<use xlink:href="#f1_2c" transform="matrix(10,0,0,10,213,123.7)" />
<use xlink:href="#f1_2c" transform="matrix(10,0,0,10,212.7,123.4)" />
<use xlink:href="#f0_d" transform="matrix(10,0,0,10,220.9,123.4)" />
<use xlink:href="#f0_i" transform="matrix(10,0,0,10,226.1,123.4)" />
<use xlink:href="#f1_2c" transform="matrix(10,0,0,10,165,150.7)" />
<use xlink:href="#f2_x" transform="matrix(10,0,0,10,176.9,150.7)" />
<use xlink:href="#f2_1z" transform="matrix(10,0,0,10,189.6,150.7)" />
<use xlink:href="#f2_1i" transform="matrix(10,0,0,10,196.4,150.7)" />
<use xlink:href="#f2_1k" transform="matrix(10,0,0,10,205.7,150.7)" />
<use xlink:href="#f2_2j" transform="matrix(10,0,0,10,218.9,150.7)" />
<use xlink:href="#f2_24" transform="matrix(10,0,0,10,229.7,150.7)" />
<use xlink:href="#f2_21" transform="matrix(10,0,0,10,237.1,150.7)" />
<use xlink:href="#f2_2e" transform="matrix(10,0,0,10,244.2,150.7)" />
<use xlink:href="#f2_21" transform="matrix(10,0,0,10,249.3,150.7)" />
<use xlink:href="#f2_52" transform="matrix(10,0,0,10,259.8,150.7)" />
<use xlink:href="#f2_1z" transform="matrix(10,0,0,10,264.9,150.7)" />
<use xlink:href="#f2_53" transform="matrix(10,0,0,10,271.7,150.7)" />
<use xlink:href="#f2_25" transform="matrix(10,0,0,10,279.8,150.7)" />
<use xlink:href="#f2_2f" transform="matrix(10,0,0,10,284,150.7)" />
<use xlink:href="#f2_29" transform="matrix(10,0,0,10,293.7,150.7)" />
<use xlink:href="#f2_2b" transform="matrix(10,0,0,10,305.3,150.7)" />
<use xlink:href="#f2_28" transform="matrix(10,0,0,10,313,150.7)" />
<use xlink:href="#f2_1x" transform="matrix(10,0,0,10,317.2,150.7)" />
<use xlink:href="#f2_2e" transform="matrix(10,0,0,10,324.2,150.7)" />
<use xlink:href="#f2_25" transform="matrix(10,0,0,10,329.5,150.7)" />
<use xlink:href="#f2_2g" transform="matrix(10,0,0,10,333.7,150.7)" />
<use xlink:href="#f2_2l" transform="matrix(10,0,0,10,338.1,150.7)" />
<use xlink:href="#f2_i" transform="matrix(10,0,0,10,344.5,150.7)" />
<use xlink:href="#f0_l" transform="matrix(10,0,0,10,55,178)" />
<use xlink:href="#f0_p" transform="matrix(10,0,0,10,62.7,178)" />
<use xlink:href="#f0_i" transform="matrix(10,0,0,10,70.4,178)" />
<use xlink:href="#f0_1m" transform="matrix(10,0,0,10,89.3,178)" />
<use xlink:href="#f0_1x" transform="matrix(10,0,0,10,98.8,178)" />
<use xlink:href="#f0_2a" transform="matrix(10,0,0,10,106.9,178)" />
<use xlink:href="#f0_53" transform="matrix(10,0,0,10,115.1,178)" />
<use xlink:href="#f0_2g" transform="matrix(10,0,0,10,120.4,178)" />
<use xlink:href="#f0_18" transform="matrix(10,0,0,10,129.4,178)" />
<use xlink:href="#f0_2b" transform="matrix(10,0,0,10,141.7,178)" />
<use xlink:href="#f0_22" transform="matrix(10,0,0,10,149.2,178)" />
<use xlink:href="#f0_22" transform="matrix(10,0,0,10,154.5,178)" />
<use xlink:href="#f0_22" transform="matrix(10,0,0,10,163.9,178)" />
<use xlink:href="#f0_1x" transform="matrix(10,0,0,10,168.8,178)" />
<use xlink:href="#f0_1z" transform="matrix(10,0,0,10,176.7,178)" />
<use xlink:href="#f0_2g" transform="matrix(10,0,0,10,183.5,178)" />
<use xlink:href="#f0_2b" transform="matrix(10,0,0,10,188.6,178)" />
<use xlink:href="#f0_2e" transform="matrix(10,0,0,10,196.7,178)" />
<use xlink:href="#f0_i" transform="matrix(10,0,0,10,202,178)" />
</g>
<path d="M187.4,220H345" class="g0_24" />
<g clip-path="url(#c0_24)">
<g fill="#000000" >
<use xlink:href="#f2_1e" transform="matrix(10.1,0,0,10.1,194.3,214.1)" />
<use xlink:href="#f2_2b" transform="matrix(10.1,0,0,10.1,205.3,214.1)" />
<use xlink:href="#f2_2e" transform="matrix(10.1,0,0,10.1,213,214.1)" />
<use xlink:href="#f2_29" transform="matrix(10.1,0,0,10.1,218,214.1)" />
<use xlink:href="#f2_1x" transform="matrix(10.1,0,0,10.1,229.7,214.1)" />
<use xlink:href="#f2_28" transform="matrix(10.1,0,0,10.1,236.3,214.1)" />
<use xlink:href="#f2_29" transform="matrix(10.1,0,0,10.1,244,214.1)" />
<use xlink:href="#f2_2b" transform="matrix(10.1,0,0,10.1,255.8,214.1)" />
<use xlink:href="#f2_28" transform="matrix(10.1,0,0,10.1,263.5,214.1)" />
<use xlink:href="#f2_21" transform="matrix(10.1,0,0,10.1,267.5,214.1)" />
<use xlink:href="#f2_1z" transform="matrix(10.1,0,0,10.1,274.3,214.1)" />
<use xlink:href="#f2_2h" transform="matrix(10.1,0,0,10.1,281.1,214.1)" />
<use xlink:href="#f2_28" transform="matrix(10.1,0,0,10.1,288.4,214.1)" />
<use xlink:href="#f2_1x" transform="matrix(10.1,0,0,10.1,292.4,214.1)" />
<use xlink:href="#f2_2e" transform="matrix(10.1,0,0,10.1,299.2,214.1)" />
<use xlink:href="#f2_29" transform="matrix(10.1,0,0,10.1,308.2,214.1)" />
<use xlink:href="#f2_1x" transform="matrix(10.1,0,0,10.1,319.9,214.1)" />
<use xlink:href="#f2_2f" transform="matrix(10.1,0,0,10.1,326.9,214.1)" />
<use xlink:href="#f2_2f" transform="matrix(10.1,0,0,10.1,332.8,214.1)" />
</g>
</g>
<g fill="#000000" >
<use xlink:href="#f2_25" transform="matrix(10.1,0,0,10.1,167.4,224)" />
<use xlink:href="#f2_1f" transform="matrix(10.1,0,0,10.1,188.1,235.8)" />
<use xlink:href="#f2_1y" transform="matrix(10.1,0,0,10.1,198.9,235.8)" />
<use xlink:href="#f2_2f" transform="matrix(10.1,0,0,10.1,206.6,235.8)" />
<use xlink:href="#f2_21" transform="matrix(10.1,0,0,10.1,212.5,235.8)" />
<use xlink:href="#f2_2e" transform="matrix(10.1,0,0,10.1,219.5,235.8)" />
<use xlink:href="#f2_2i" transform="matrix(10.1,0,0,10.1,224.4,235.8)" />
<use xlink:href="#f2_21" transform="matrix(10.1,0,0,10.1,231.6,235.8)" />
<use xlink:href="#f2_20" transform="matrix(10.1,0,0,10.1,238.3,235.8)" />
<use xlink:href="#f2_29" transform="matrix(10.1,0,0,10.1,249.9,235.8)" />
<use xlink:href="#f2_2b" transform="matrix(10.1,0,0,10.1,261.6,235.8)" />
<use xlink:href="#f2_28" transform="matrix(10.1,0,0,10.1,269.3,235.8)" />
<use xlink:href="#f2_21" transform="matrix(10.1,0,0,10.1,273.4,235.8)" />
<use xlink:href="#f2_1z" transform="matrix(10.1,0,0,10.1,280,235.8)" />
<use xlink:href="#f2_2h" transform="matrix(10.1,0,0,10.1,286.8,235.8)" />
<use xlink:href="#f2_28" transform="matrix(10.1,0,0,10.1,294.3,235.8)" />
<use xlink:href="#f2_1x" transform="matrix(10.1,0,0,10.1,298.3,235.8)" />
<use xlink:href="#f2_2e" transform="matrix(10.1,0,0,10.1,304.9,235.8)" />
<use xlink:href="#f2_29" transform="matrix(10.1,0,0,10.1,314.3,235.8)" />
<use xlink:href="#f2_1x" transform="matrix(10.1,0,0,10.1,325.6,235.8)" />
<use xlink:href="#f2_2f" transform="matrix(10.1,0,0,10.1,332.6,235.8)" />
<use xlink:href="#f2_2f" transform="matrix(10.1,0,0,10.1,338.3,235.8)" />
<use xlink:href="#f1_x" transform="matrix(10.1,0,0,10.1,175.3,224)" />
<use xlink:href="#f2_2b" transform="matrix(10,0,0,10,89.5,296.1)" />
<use xlink:href="#f2_2e" transform="matrix(10,0,0,10,97.2,296.1)" />
</g>
<path d="M187.4,287.3H375.8" class="g0_24" />
<g clip-path="url(#c1_24)">
<g fill="#000000" >
<use xlink:href="#f2_1f" transform="matrix(10.1,0,0,10.1,191.2,281.4)" />
<use xlink:href="#f2_1y" transform="matrix(10.1,0,0,10.1,202.4,281.4)" />
<use xlink:href="#f2_2f" transform="matrix(10.1,0,0,10.1,210.1,281.4)" />
<use xlink:href="#f2_21" transform="matrix(10.1,0,0,10.1,216,281.4)" />
<use xlink:href="#f2_2e" transform="matrix(10.1,0,0,10.1,222.8,281.4)" />
<use xlink:href="#f2_2i" transform="matrix(10.1,0,0,10.1,227.7,281.4)" />
<use xlink:href="#f2_21" transform="matrix(10.1,0,0,10.1,235.2,281.4)" />
<use xlink:href="#f2_20" transform="matrix(10.1,0,0,10.1,241.8,281.4)" />
<use xlink:href="#f2_1z" transform="matrix(10.1,0,0,10.1,252.8,281.4)" />
<use xlink:href="#f2_2b" transform="matrix(10.1,0,0,10.1,259.8,281.4)" />
<use xlink:href="#f2_28" transform="matrix(10.1,0,0,10.1,267.1,281.4)" />
<use xlink:href="#f2_28" transform="matrix(10.1,0,0,10.1,271.3,281.4)" />
<use xlink:href="#f2_25" transform="matrix(10.1,0,0,10.1,275.4,281.4)" />
<use xlink:href="#f2_23" transform="matrix(10.1,0,0,10.1,279.8,281.4)" />
<use xlink:href="#f2_1x" transform="matrix(10.1,0,0,10.1,287.5,281.4)" />
<use xlink:href="#f2_2g" transform="matrix(10.1,0,0,10.1,294.1,281.4)" />
<use xlink:href="#f2_25" transform="matrix(10.1,0,0,10.1,298.5,281.4)" />
<use xlink:href="#f2_2i" transform="matrix(10.1,0,0,10.1,302.7,281.4)" />
<use xlink:href="#f2_21" transform="matrix(10.1,0,0,10.1,310,281.4)" />
<use xlink:href="#f2_2c" transform="matrix(10.1,0,0,10.1,320.3,281.4)" />
<use xlink:href="#f2_2e" transform="matrix(10.1,0,0,10.1,328,281.4)" />
<use xlink:href="#f2_2b" transform="matrix(10.1,0,0,10.1,333,281.4)" />
<use xlink:href="#f2_2c" transform="matrix(10.1,0,0,10.1,340.5,281.4)" />
<use xlink:href="#f2_21" transform="matrix(10.1,0,0,10.1,348.2,281.4)" />
<use xlink:href="#f2_2e" transform="matrix(10.1,0,0,10.1,354.8,281.4)" />
<use xlink:href="#f2_2g" transform="matrix(10.1,0,0,10.1,360.1,281.4)" />
<use xlink:href="#f2_2l" transform="matrix(10.1,0,0,10.1,364.3,281.4)" />
</g>
</g>
<g fill="#000000" >
<use xlink:href="#f2_25" transform="matrix(10.1,0,0,10.1,167.4,291.1)" />
<use xlink:href="#f2_13" transform="matrix(10.1,0,0,10.1,188.1,303)" />
<use xlink:href="#f2_1x" transform="matrix(10.1,0,0,10.1,198.2,303)" />
<use xlink:href="#f2_28" transform="matrix(10.1,0,0,10.1,205.2,303)" />
<use xlink:href="#f2_1z" transform="matrix(10.1,0,0,10.1,209,303)" />
<use xlink:href="#f2_2h" transform="matrix(10.1,0,0,10.1,215.6,303)" />
<use xlink:href="#f2_28" transform="matrix(10.1,0,0,10.1,223.3,303)" />
<use xlink:href="#f2_1x" transform="matrix(10.1,0,0,10.1,227.3,303)" />
<use xlink:href="#f2_2g" transform="matrix(10.1,0,0,10.1,233.9,303)" />
<use xlink:href="#f2_21" transform="matrix(10.1,0,0,10.1,238.3,303)" />
<use xlink:href="#f2_20" transform="matrix(10.1,0,0,10.1,245,303)" />
<use xlink:href="#f2_1z" transform="matrix(10.1,0,0,10.1,256.3,303)" />
<use xlink:href="#f2_2b" transform="matrix(10.1,0,0,10.1,263.1,303)" />
<use xlink:href="#f2_28" transform="matrix(10.1,0,0,10.1,270.8,303)" />
<use xlink:href="#f2_28" transform="matrix(10.1,0,0,10.1,274.8,303)" />
<use xlink:href="#f2_25" transform="matrix(10.1,0,0,10.1,278.7,303)" />
<use xlink:href="#f2_23" transform="matrix(10.1,0,0,10.1,283.1,303)" />
<use xlink:href="#f2_1x" transform="matrix(10.1,0,0,10.1,290.6,303)" />
<use xlink:href="#f2_2g" transform="matrix(10.1,0,0,10.1,297.4,303)" />
<use xlink:href="#f2_25" transform="matrix(10.1,0,0,10.1,301.8,303)" />
<use xlink:href="#f2_2i" transform="matrix(10.1,0,0,10.1,305.8,303)" />
<use xlink:href="#f2_21" transform="matrix(10.1,0,0,10.1,313.4,303)" />
<use xlink:href="#f2_2c" transform="matrix(10.1,0,0,10.1,323.8,303)" />
<use xlink:href="#f2_2e" transform="matrix(10.1,0,0,10.1,331.3,303)" />
<use xlink:href="#f2_2b" transform="matrix(10.1,0,0,10.1,336.4,303)" />
<use xlink:href="#f2_2c" transform="matrix(10.1,0,0,10.1,344,303)" />
<use xlink:href="#f2_21" transform="matrix(10.1,0,0,10.1,351.7,303)" />
<use xlink:href="#f2_2e" transform="matrix(10.1,0,0,10.1,358.3,303)" />
<use xlink:href="#f2_2g" transform="matrix(10.1,0,0,10.1,363.2,303)" />
<use xlink:href="#f2_2l" transform="matrix(10.1,0,0,10.1,367.4,303)" />
<use xlink:href="#f1_x" transform="matrix(10.1,0,0,10.1,175.3,291.1)" />
<use xlink:href="#f2_2b" transform="matrix(10,0,0,10,89.5,363.2)" />
<use xlink:href="#f2_2e" transform="matrix(10,0,0,10,97.2,363.2)" />
<use xlink:href="#f2_g" transform="matrix(10,0,0,10,101.7,363.2)" />
</g>
<path d="M187.4,354.2H587.2" class="g0_24" />
<g fill="#000000" >
<use xlink:href="#f2_1k" transform="matrix(10.1,0,0,10.1,188.1,348.5)" />
<use xlink:href="#f2_2b" transform="matrix(10.1,0,0,10.1,197.6,348.5)" />
<use xlink:href="#f2_2g" transform="matrix(10.1,0,0,10.1,205.3,348.5)" />
<use xlink:href="#f2_1x" transform="matrix(10.1,0,0,10.1,209.4,348.5)" />
<use xlink:href="#f2_28" transform="matrix(10.1,0,0,10.1,216.3,348.5)" />
<use xlink:href="#f2_2a" transform="matrix(10.1,0,0,10.1,223.7,348.5)" />
<use xlink:href="#f2_2h" transform="matrix(10.1,0,0,10.1,231.4,348.5)" />
<use xlink:href="#f2_29" transform="matrix(10.1,0,0,10.1,239.1,348.5)" />
<use xlink:href="#f2_1y" transform="matrix(10.1,0,0,10.1,250.8,348.5)" />
<use xlink:href="#f2_21" transform="matrix(10.1,0,0,10.1,258.5,348.5)" />
<use xlink:href="#f2_2e" transform="matrix(10.1,0,0,10.1,265.3,348.5)" />
<use xlink:href="#f2_2b" transform="matrix(10.1,0,0,10.1,274.1,348.5)" />
<use xlink:href="#f2_22" transform="matrix(10.1,0,0,10.1,281.8,348.5)" />
<use xlink:href="#f2_29" transform="matrix(10.1,0,0,10.1,292.3,348.5)" />
<use xlink:href="#f2_2b" transform="matrix(10.1,0,0,10.1,304.2,348.5)" />
<use xlink:href="#f2_28" transform="matrix(10.1,0,0,10.1,311.7,348.5)" />
<use xlink:href="#f2_21" transform="matrix(10.1,0,0,10.1,315.9,348.5)" />
<use xlink:href="#f2_2f" transform="matrix(10.1,0,0,10.1,322.3,348.5)" />
<use xlink:href="#f2_2b" transform="matrix(10.1,0,0,10.1,331.9,348.5)" />
<use xlink:href="#f2_22" transform="matrix(10.1,0,0,10.1,339.6,348.5)" />
<use xlink:href="#f2_2c" transform="matrix(10.1,0,0,10.1,350.2,348.5)" />
<use xlink:href="#f2_1x" transform="matrix(10.1,0,0,10.1,357.9,348.5)" />
<use xlink:href="#f2_2e" transform="matrix(10.1,0,0,10.1,364.5,348.5)" />
<use xlink:href="#f2_2g" transform="matrix(10.1,0,0,10.1,369.6,348.5)" />
<use xlink:href="#f2_25" transform="matrix(10.1,0,0,10.1,373.9,348.5)" />
<use xlink:href="#f2_1z" transform="matrix(10.1,0,0,10.1,378.1,348.5)" />
<use xlink:href="#f2_28" transform="matrix(10.1,0,0,10.1,384.7,348.5)" />
<use xlink:href="#f2_21" transform="matrix(10.1,0,0,10.1,388.9,348.5)" />
<use xlink:href="#f2_2f" transform="matrix(10.1,0,0,10.1,395.7,348.5)" />
<use xlink:href="#f2_1x" transform="matrix(10.1,0,0,10.1,404.8,348.5)" />
<use xlink:href="#f2_22" transform="matrix(10.1,0,0,10.1,411.6,348.5)" />
<use xlink:href="#f2_2g" transform="matrix(10.1,0,0,10.1,416.4,348.5)" />
<use xlink:href="#f2_21" transform="matrix(10.1,0,0,10.1,421,348.5)" />
<use xlink:href="#f2_2e" transform="matrix(10.1,0,0,10.1,427.6,348.5)" />
<use xlink:href="#f2_1x" transform="matrix(10.1,0,0,10.1,436.4,348.5)" />
<use xlink:href="#f2_2f" transform="matrix(10.1,0,0,10.1,443.2,348.5)" />
<use xlink:href="#f2_2f" transform="matrix(10.1,0,0,10.1,448.8,348.5)" />
<use xlink:href="#f2_2b" transform="matrix(10.1,0,0,10.1,454.9,348.5)" />
<use xlink:href="#f2_1z" transform="matrix(10.1,0,0,10.1,462.4,348.5)" />
<use xlink:href="#f2_25" transform="matrix(10.1,0,0,10.1,469.4,348.5)" />
<use xlink:href="#f2_1x" transform="matrix(10.1,0,0,10.1,473.4,348.5)" />
<use xlink:href="#f2_2g" transform="matrix(10.1,0,0,10.1,480.3,348.5)" />
<use xlink:href="#f2_25" transform="matrix(10.1,0,0,10.1,484.6,348.5)" />
<use xlink:href="#f2_2b" transform="matrix(10.1,0,0,10.1,488.8,348.5)" />
<use xlink:href="#f2_2a" transform="matrix(10.1,0,0,10.1,496.3,348.5)" />
<use xlink:href="#f2_j" transform="matrix(10.1,0,0,10.1,506.7,348.5)" />
<use xlink:href="#f2_20" transform="matrix(10.1,0,0,10.1,513.2,348.5)" />
<use xlink:href="#f2_25" transform="matrix(10.1,0,0,10.1,520.7,348.5)" />
<use xlink:href="#f2_2f" transform="matrix(10.1,0,0,10.1,524.9,348.5)" />
<use xlink:href="#f2_2f" transform="matrix(10.1,0,0,10.1,530.9,348.5)" />
<use xlink:href="#f2_2b" transform="matrix(10.1,0,0,10.1,536.8,348.5)" />
<use xlink:href="#f2_1z" transform="matrix(10.1,0,0,10.1,544.5,348.5)" />
<use xlink:href="#f2_25" transform="matrix(10.1,0,0,10.1,551.1,348.5)" />
<use xlink:href="#f2_1x" transform="matrix(10.1,0,0,10.1,555.7,348.5)" />
<use xlink:href="#f2_2g" transform="matrix(10.1,0,0,10.1,562.1,348.5)" />
<use xlink:href="#f2_25" transform="matrix(10.1,0,0,10.1,566.7,348.5)" />
<use xlink:href="#f2_2b" transform="matrix(10.1,0,0,10.1,570.7,348.5)" />
<use xlink:href="#f2_2a" transform="matrix(10.1,0,0,10.1,578.4,348.5)" />
<use xlink:href="#f2_25" transform="matrix(10.1,0,0,10.1,167.4,358.2)" />
<use xlink:href="#f2_1e" transform="matrix(10.1,0,0,10.1,199.1,370.1)" />
<use xlink:href="#f2_2h" transform="matrix(10.1,0,0,10.1,210.1,370.1)" />
<use xlink:href="#f2_29" transform="matrix(10.1,0,0,10.1,217.8,370.1)" />
<use xlink:href="#f2_1y" transform="matrix(10.1,0,0,10.1,229.5,370.1)" />
<use xlink:href="#f2_21" transform="matrix(10.1,0,0,10.1,237.1,370.1)" />
<use xlink:href="#f2_2e" transform="matrix(10.1,0,0,10.1,244,370.1)" />
<use xlink:href="#f2_2b" transform="matrix(10.1,0,0,10.1,252.8,370.1)" />
<use xlink:href="#f2_22" transform="matrix(10.1,0,0,10.1,260.5,370.1)" />
<use xlink:href="#f2_29" transform="matrix(10.1,0,0,10.1,271.2,370.1)" />
<use xlink:href="#f2_2b" transform="matrix(10.1,0,0,10.1,282.9,370.1)" />
<use xlink:href="#f2_28" transform="matrix(10.1,0,0,10.1,290.4,370.1)" />
<use xlink:href="#f2_21" transform="matrix(10.1,0,0,10.1,294.6,370.1)" />
<use xlink:href="#f2_2f" transform="matrix(10.1,0,0,10.1,301,370.1)" />
<use xlink:href="#f2_2b" transform="matrix(10.1,0,0,10.1,310.4,370.1)" />
<use xlink:href="#f2_22" transform="matrix(10.1,0,0,10.1,318.3,370.1)" />
<use xlink:href="#f2_2c" transform="matrix(10.1,0,0,10.1,328.9,370.1)" />
<use xlink:href="#f2_1x" transform="matrix(10.1,0,0,10.1,336.6,370.1)" />
<use xlink:href="#f2_2e" transform="matrix(10.1,0,0,10.1,343.2,370.1)" />
<use xlink:href="#f2_2g" transform="matrix(10.1,0,0,10.1,348.3,370.1)" />
<use xlink:href="#f2_25" transform="matrix(10.1,0,0,10.1,352.6,370.1)" />
<use xlink:href="#f2_1z" transform="matrix(10.1,0,0,10.1,356.8,370.1)" />
<use xlink:href="#f2_28" transform="matrix(10.1,0,0,10.1,363.4,370.1)" />
<use xlink:href="#f2_21" transform="matrix(10.1,0,0,10.1,367.6,370.1)" />
<use xlink:href="#f2_2f" transform="matrix(10.1,0,0,10.1,374.4,370.1)" />
<use xlink:href="#f2_1y" transform="matrix(10.1,0,0,10.1,383.9,370.1)" />
<use xlink:href="#f2_21" transform="matrix(10.1,0,0,10.1,391.4,370.1)" />
<use xlink:href="#f2_22" transform="matrix(10.1,0,0,10.1,398.2,370.1)" />
<use xlink:href="#f2_2b" transform="matrix(10.1,0,0,10.1,403,370.1)" />
<use xlink:href="#f2_2e" transform="matrix(10.1,0,0,10.1,410.7,370.1)" />
<use xlink:href="#f2_21" transform="matrix(10.1,0,0,10.1,415.6,370.1)" />
<use xlink:href="#f2_1x" transform="matrix(10.1,0,0,10.1,425.9,370.1)" />
<use xlink:href="#f2_2f" transform="matrix(10.1,0,0,10.1,432.5,370.1)" />
<use xlink:href="#f2_2f" transform="matrix(10.1,0,0,10.1,438.6,370.1)" />
<use xlink:href="#f2_2b" transform="matrix(10.1,0,0,10.1,444.4,370.1)" />
<use xlink:href="#f2_1z" transform="matrix(10.1,0,0,10.1,452.1,370.1)" />
<use xlink:href="#f2_25" transform="matrix(10.1,0,0,10.1,458.9,370.1)" />
<use xlink:href="#f2_1x" transform="matrix(10.1,0,0,10.1,463.1,370.1)" />
<use xlink:href="#f2_2g" transform="matrix(10.1,0,0,10.1,469.9,370.1)" />
<use xlink:href="#f2_25" transform="matrix(10.1,0,0,10.1,474.1,370.1)" />
<use xlink:href="#f2_2b" transform="matrix(10.1,0,0,10.1,478.2,370.1)" />
<use xlink:href="#f2_2a" transform="matrix(10.1,0,0,10.1,486.1,370.1)" />
<use xlink:href="#f2_j" transform="matrix(10.1,0,0,10.1,496.3,370.1)" />
<use xlink:href="#f2_20" transform="matrix(10.1,0,0,10.1,502.6,370.1)" />
<use xlink:href="#f2_25" transform="matrix(10.1,0,0,10.1,510.3,370.1)" />
<use xlink:href="#f2_2f" transform="matrix(10.1,0,0,10.1,514.5,370.1)" />
<use xlink:href="#f2_2f" transform="matrix(10.1,0,0,10.1,520.5,370.1)" />
<use xlink:href="#f2_2b" transform="matrix(10.1,0,0,10.1,526.4,370.1)" />
<use xlink:href="#f2_1z" transform="matrix(10.1,0,0,10.1,534.3,370.1)" />
<use xlink:href="#f2_25" transform="matrix(10.1,0,0,10.1,540.9,370.1)" />
<use xlink:href="#f2_1x" transform="matrix(10.1,0,0,10.1,544.9,370.1)" />
<use xlink:href="#f2_2g" transform="matrix(10.1,0,0,10.1,551.9,370.1)" />
<use xlink:href="#f2_25" transform="matrix(10.1,0,0,10.1,556.1,370.1)" />
<use xlink:href="#f2_2b" transform="matrix(10.1,0,0,10.1,560.5,370.1)" />
<use xlink:href="#f2_2a" transform="matrix(10.1,0,0,10.1,567.8,370.1)" />
<use xlink:href="#f1_x" transform="matrix(10.1,0,0,10.1,175.3,358.2)" />
<use xlink:href="#f0_1d" transform="matrix(10,0,0,10,89.5,406.4)" />
<use xlink:href="#f0_2b" transform="matrix(10,0,0,10,104,406.4)" />
<use xlink:href="#f0_20" transform="matrix(10,0,0,10,111.8,406.4)" />
<use xlink:href="#f0_25" transform="matrix(10,0,0,10,120.4,406.4)" />
<use xlink:href="#f0_22" transform="matrix(10,0,0,10,124.9,406.4)" />
<use xlink:href="#f0_25" transform="matrix(10,0,0,10,130,406.4)" />
<use xlink:href="#f0_21" transform="matrix(10,0,0,10,134,406.4)" />
<use xlink:href="#f0_20" transform="matrix(10,0,0,10,141,406.4)" />
<use xlink:href="#f0_22" transform="matrix(10,0,0,10,153.5,406.4)" />
<use xlink:href="#f0_2b" transform="matrix(10,0,0,10,158.6,406.4)" />
<use xlink:href="#f0_2e" transform="matrix(10,0,0,10,166.7,406.4)" />
<use xlink:href="#f0_29" transform="matrix(10,0,0,10,173.4,406.4)" />
<use xlink:href="#f0_2f" transform="matrix(10,0,0,10,185.5,406.4)" />
<use xlink:href="#f0_2b" transform="matrix(10,0,0,10,195.3,406.4)" />
<use xlink:href="#f0_22" transform="matrix(10,0,0,10,203.3,406.4)" />
<use xlink:href="#f0_1z" transform="matrix(10,0,0,10,212.3,406.4)" />
<use xlink:href="#f0_2b" transform="matrix(10,0,0,10,219.3,406.4)" />
<use xlink:href="#f0_28" transform="matrix(10,0,0,10,226.8,406.4)" />
<use xlink:href="#f0_28" transform="matrix(10,0,0,10,231.2,406.4)" />
<use xlink:href="#f0_25" transform="matrix(10,0,0,10,235.4,406.4)" />
<use xlink:href="#f0_23" transform="matrix(10,0,0,10,239.8,406.4)" />
<use xlink:href="#f0_1x" transform="matrix(10,0,0,10,247.7,406.4)" />
<use xlink:href="#f0_2g" transform="matrix(10,0,0,10,255.2,406.4)" />
<use xlink:href="#f0_25" transform="matrix(10,0,0,10,260.5,406.4)" />
<use xlink:href="#f0_2i" transform="matrix(10,0,0,10,264.8,406.4)" />
<use xlink:href="#f0_21" transform="matrix(10,0,0,10,272.8,406.4)" />
<use xlink:href="#f0_2c" transform="matrix(10,0,0,10,283.3,406.4)" />
<use xlink:href="#f0_2e" transform="matrix(10,0,0,10,291.7,406.4)" />
<use xlink:href="#f0_2b" transform="matrix(10,0,0,10,298.5,406.4)" />
<use xlink:href="#f0_2c" transform="matrix(10,0,0,10,306.2,406.4)" />
<use xlink:href="#f0_21" transform="matrix(10,0,0,10,314.6,406.4)" />
<use xlink:href="#f0_2e" transform="matrix(10,0,0,10,321.6,406.4)" />
<use xlink:href="#f0_2g" transform="matrix(10,0,0,10,328.6,406.4)" />
<use xlink:href="#f0_25" transform="matrix(10,0,0,10,333.5,406.4)" />
<use xlink:href="#f0_21" transform="matrix(10,0,0,10,338.1,406.4)" />
<use xlink:href="#f0_2f" transform="matrix(10,0,0,10,344.9,406.4)" />
<use xlink:href="#f0_u" transform="matrix(10,0,0,10,354.8,406.4)" />
<use xlink:href="#f2_c" transform="matrix(10,0,0,10,89.5,459.2)" />
<use xlink:href="#f2_1x" transform="matrix(10,0,0,10,94.6,459.2)" />
<use xlink:href="#f2_d" transform="matrix(10,0,0,10,101.6,459.2)" />
</g>
<path d="M134.4,451.6h48" class="g0_24" />
<g fill="#000000" >
<use xlink:href="#f2_k" transform="matrix(5.8,0,0,5.8,143.4,439.1)" />
<use xlink:href="#f2_11" transform="matrix(5.8,0,0,5.8,143.7,449.7)" />
<use xlink:href="#f2_11" transform="matrix(5.8,0,0,5.8,173.4,449.7)" />
<use xlink:href="#f2_12" transform="matrix(5.8,0,0,5.8,210.8,459.2)" />
<use xlink:href="#f2_k" transform="matrix(5.8,0,0,5.8,158.4,460.3)" />
<use xlink:href="#f2_11" transform="matrix(5.8,0,0,5.8,158.6,471.2)" />
<use xlink:href="#f2_2c" transform="matrix(10,0,0,10,135.3,445.7)" />
<use xlink:href="#f2_2c" transform="matrix(10,0,0,10,165.6,445.7)" />
<use xlink:href="#f2_25" transform="matrix(10,0,0,10,198,455.4)" />
<use xlink:href="#f2_2k" transform="matrix(10,0,0,10,202.2,455.4)" />
<use xlink:href="#f2_2c" transform="matrix(10,0,0,10,150.5,467.1)" />
<use xlink:href="#f1_h" transform="matrix(10,0,0,10,154.4,445.7)" />
<use xlink:href="#f1_x" transform="matrix(10,0,0,10,186.5,455.4)" />
<use xlink:href="#f2_c" transform="matrix(10,0,0,10,275,459.2)" />
<use xlink:href="#f2_1y" transform="matrix(10,0,0,10,280.1,459.2)" />
<use xlink:href="#f2_d" transform="matrix(10,0,0,10,288,459.2)" />
<use xlink:href="#f1_14" transform="matrix(10,0,0,10,330,459.2)" />
<use xlink:href="#f2_1k" transform="matrix(10,0,0,10,339.4,459.2)" />
<use xlink:href="#f2_1y" transform="matrix(6.4,0,0,6.4,348.9,464.9)" />
<use xlink:href="#f2_x" transform="matrix(10,0,0,10,357.5,459.2)" />
<use xlink:href="#f2_25" transform="matrix(10,0,0,10,370.5,459.2)" />
<use xlink:href="#f2_1b" transform="matrix(10,0,0,10,378.8,459.2)" />
<use xlink:href="#f2_1y" transform="matrix(6.4,0,0,6.4,389.8,464.9)" />
<use xlink:href="#f2_29" transform="matrix(10,0,0,10,394.7,459.2)" />
<use xlink:href="#f2_c" transform="matrix(10,0,0,10,89.5,504.9)" />
<use xlink:href="#f2_1z" transform="matrix(10,0,0,10,94.6,504.9)" />
<use xlink:href="#f2_d" transform="matrix(10,0,0,10,101.6,504.9)" />
<use xlink:href="#f1_14" transform="matrix(10,0,0,10,131.4,504.9)" />
<use xlink:href="#f2_1k" transform="matrix(10,0,0,10,140.6,504.9)" />
<use xlink:href="#f2_22" transform="matrix(6.4,0,0,6.4,150.1,510.6)" />
<use xlink:href="#f2_x" transform="matrix(10,0,0,10,157.1,504.9)" />
<use xlink:href="#f2_25" transform="matrix(10,0,0,10,170.1,504.9)" />
<use xlink:href="#f2_1b" transform="matrix(10,0,0,10,174.5,504.9)" />
<use xlink:href="#f2_22" transform="matrix(6.4,0,0,6.4,185.3,510.6)" />
<use xlink:href="#f2_29" transform="matrix(10,0,0,10,188.5,504.9)" />
<use xlink:href="#f2_c" transform="matrix(10,0,0,10,274.8,504.9)" />
<use xlink:href="#f2_20" transform="matrix(10,0,0,10,280,504.9)" />
<use xlink:href="#f2_d" transform="matrix(10,0,0,10,288,504.9)" />
<use xlink:href="#f1_2c" transform="matrix(10,0,0,10,330,504.9)" />
<use xlink:href="#f2_1m" transform="matrix(10,0,0,10,338.1,504.9)" />
<use xlink:href="#f2_x" transform="matrix(10,0,0,10,352.9,504.9)" />
<use xlink:href="#f2_25" transform="matrix(10,0,0,10,365.2,504.9)" />
<use xlink:href="#f2_2a" transform="matrix(10,0,0,10,369.6,504.9)" />
<use xlink:href="#f2_12" transform="matrix(6.4,0,0,6.4,377.1,510.6)" />
<use xlink:href="#f2_1i" transform="matrix(10,0,0,10,383.9,504.9)" />
<use xlink:href="#f2_1k" transform="matrix(10,0,0,10,392.9,504.9)" />
<use xlink:href="#f0_l" transform="matrix(10,0,0,10,55,553.1)" />
<use xlink:href="#f0_q" transform="matrix(10,0,0,10,62.7,553.1)" />
<use xlink:href="#f0_i" transform="matrix(10,0,0,10,70.4,553.1)" />
</g>
<path d="M117.5,547.1h28.1" class="g0_24" />
<g fill="#000000" >
<use xlink:href="#f2_25" transform="matrix(10.1,0,0,10.1,120.1,541.4)" />
<use xlink:href="#f2_l" transform="matrix(10.1,0,0,10.1,136.6,541.4)" />
</g>
<g clip-path="url(#c2_24)">
<g fill="#000000" >
<use xlink:href="#f2_2a" transform="matrix(10.1,0,0,10.1,118.4,562.8)" />
<use xlink:href="#f2_l" transform="matrix(10.1,0,0,10.1,138.8,562.8)" />
</g>
</g>
<g fill="#000000" >
<use xlink:href="#f1_h" transform="matrix(10.1,0,0,10.1,127.2,541.4)" />
<use xlink:href="#f1_1x" transform="matrix(10.1,0,0,10.1,91.9,550.9)" />
<use xlink:href="#f1_x" transform="matrix(10.1,0,0,10.1,105.4,550.9)" />
<use xlink:href="#f1_h" transform="matrix(10.1,0,0,10.1,129.3,562.8)" />
<use xlink:href="#f2_2j" transform="matrix(10,0,0,10,151.8,553.1)" />
<use xlink:href="#f2_24" transform="matrix(10,0,0,10,162.6,553.1)" />
<use xlink:href="#f2_21" transform="matrix(10,0,0,10,170.3,553.1)" />
<use xlink:href="#f2_2e" transform="matrix(10,0,0,10,177.1,553.1)" />
<use xlink:href="#f1_1x" transform="matrix(10,0,0,10,185.2,553.1)" />
<use xlink:href="#f2_25" transform="matrix(10,0,0,10,197.5,553.1)" />
<use xlink:href="#f2_2f" transform="matrix(10,0,0,10,201.9,553.1)" />
<use xlink:href="#f2_20" transform="matrix(10,0,0,10,210.7,553.1)" />
<use xlink:href="#f2_21" transform="matrix(10,0,0,10,218.5,553.1)" />
<use xlink:href="#f2_23" transform="matrix(10,0,0,10,225.3,553.1)" />
<use xlink:href="#f2_2e" transform="matrix(10,0,0,10,232.7,553.1)" />
<use xlink:href="#f2_21" transform="matrix(10,0,0,10,238,553.1)" />
<use xlink:href="#f2_21" transform="matrix(10,0,0,10,244.9,553.1)" />
<use xlink:href="#f2_2b" transform="matrix(10,0,0,10,254.7,553.1)" />
<use xlink:href="#f2_22" transform="matrix(10,0,0,10,262.4,553.1)" />
<use xlink:href="#f2_20" transform="matrix(10,0,0,10,270.4,553.1)" />
<use xlink:href="#f2_25" transform="matrix(10,0,0,10,278.1,553.1)" />
<use xlink:href="#f2_2f" transform="matrix(10,0,0,10,282.3,553.1)" />
<use xlink:href="#f2_2f" transform="matrix(10,0,0,10,288.4,553.1)" />
<use xlink:href="#f2_2b" transform="matrix(10,0,0,10,294.4,553.1)" />
<use xlink:href="#f2_1z" transform="matrix(10,0,0,10,302,553.1)" />
<use xlink:href="#f2_25" transform="matrix(10,0,0,10,308.9,553.1)" />
<use xlink:href="#f2_1x" transform="matrix(10,0,0,10,313.3,553.1)" />
<use xlink:href="#f2_2g" transform="matrix(10,0,0,10,320.1,553.1)" />
<use xlink:href="#f2_25" transform="matrix(10,0,0,10,324.3,553.1)" />
<use xlink:href="#f2_2b" transform="matrix(10,0,0,10,328.7,553.1)" />
<use xlink:href="#f2_2a" transform="matrix(10,0,0,10,336.3,553.1)" />
<use xlink:href="#f2_g" transform="matrix(10,0,0,10,344,553.1)" />
<use xlink:href="#f2_52" transform="matrix(10,0,0,10,350.9,553.1)" />
<use xlink:href="#f2_25" transform="matrix(10,0,0,10,355.7,553.1)" />
<use xlink:href="#f2_53" transform="matrix(10,0,0,10,360.1,553.1)" />
<use xlink:href="#f2_25" transform="matrix(10,0,0,10,366.7,553.1)" />
<use xlink:href="#f2_2f" transform="matrix(10,0,0,10,371.1,553.1)" />
<use xlink:href="#f2_2i" transform="matrix(10,0,0,10,379.9,553.1)" />
<use xlink:href="#f2_1x" transform="matrix(10,0,0,10,387.8,553.1)" />
<use xlink:href="#f2_2a" transform="matrix(10,0,0,10,394.4,553.1)" />
<use xlink:href="#f2_53" transform="matrix(10,0,0,10,401.9,553.1)" />
<use xlink:href="#f2_2g" transform="matrix(10,0,0,10,407,553.1)" />
<use xlink:href="#f2_18" transform="matrix(10,0,0,10,414.2,553.1)" />
<use xlink:href="#f2_2b" transform="matrix(10,0,0,10,425.2,553.1)" />
<use xlink:href="#f2_22" transform="matrix(10,0,0,10,433.1,553.1)" />
<use xlink:href="#f2_22" transform="matrix(10,0,0,10,437.8,553.1)" />
<use xlink:href="#f2_22" transform="matrix(10,0,0,10,445.9,553.1)" />
<use xlink:href="#f2_1x" transform="matrix(10,0,0,10,450.7,553.1)" />
<use xlink:href="#f2_1z" transform="matrix(10,0,0,10,457.6,553.1)" />
<use xlink:href="#f2_2g" transform="matrix(10,0,0,10,464.6,553.1)" />
<use xlink:href="#f2_2b" transform="matrix(10,0,0,10,468.6,553.1)" />
<use xlink:href="#f2_2e" transform="matrix(10,0,0,10,476.3,553.1)" />
<use xlink:href="#f2_g" transform="matrix(10,0,0,10,481.1,553.1)" />
<use xlink:href="#f2_52" transform="matrix(10,0,0,10,487.8,553.1)" />
<use xlink:href="#f2_2a" transform="matrix(10,0,0,10,493,553.1)" />
<use xlink:href="#f2_53" transform="matrix(10,0,0,10,500.5,553.1)" />
<use xlink:href="#f2_25" transform="matrix(10,0,0,10,507.5,553.1)" />
<use xlink:href="#f2_2f" transform="matrix(10,0,0,10,511.5,553.1)" />
<use xlink:href="#f2_2a" transform="matrix(10,0,0,10,520.7,553.1)" />
<use xlink:href="#f2_2h" transform="matrix(10,0,0,10,528.2,553.1)" />
<use xlink:href="#f2_29" transform="matrix(10,0,0,10,535.5,553.1)" />
<use xlink:href="#f2_1y" transform="matrix(10,0,0,10,547.3,553.1)" />
<use xlink:href="#f2_21" transform="matrix(10,0,0,10,555.1,553.1)" />
<use xlink:href="#f2_2e" transform="matrix(10,0,0,10,561.9,553.1)" />
<use xlink:href="#f2_2b" transform="matrix(10,0,0,10,570.2,553.1)" />
<use xlink:href="#f2_22" transform="matrix(10,0,0,10,577.7,553.1)" />
<use xlink:href="#f2_25" transform="matrix(10,0,0,10,585.8,553.1)" />
<use xlink:href="#f2_2b" transform="matrix(10,0,0,10,590,553.1)" />
<use xlink:href="#f2_2a" transform="matrix(10,0,0,10,597.5,553.1)" />
<use xlink:href="#f2_2f" transform="matrix(10,0,0,10,605.2,553.1)" />
<use xlink:href="#f2_2c" transform="matrix(10,0,0,10,614.2,553.1)" />
<use xlink:href="#f2_2e" transform="matrix(10,0,0,10,622.1,553.1)" />
<use xlink:href="#f2_2b" transform="matrix(10,0,0,10,627.2,553.1)" />
<use xlink:href="#f2_20" transform="matrix(10,0,0,10,634.7,553.1)" />
<use xlink:href="#f2_2h" transform="matrix(10,0,0,10,642.8,553.1)" />
<use xlink:href="#f2_1z" transform="matrix(10,0,0,10,650.1,553.1)" />
<use xlink:href="#f2_21" transform="matrix(10,0,0,10,657.1,553.1)" />
<use xlink:href="#f2_20" transform="matrix(10,0,0,10,664,553.1)" />
<use xlink:href="#f2_2c" transform="matrix(10,0,0,10,674.7,553.1)" />
<use xlink:href="#f2_21" transform="matrix(10,0,0,10,682.4,553.1)" />
<use xlink:href="#f2_2e" transform="matrix(10,0,0,10,689.3,553.1)" />
<use xlink:href="#f2_22" transform="matrix(10,0,0,10,697.4,553.1)" />
<use xlink:href="#f2_2b" transform="matrix(10,0,0,10,702.5,553.1)" />
<use xlink:href="#f2_2e" transform="matrix(10,0,0,10,710.2,553.1)" />
<use xlink:href="#f2_29" transform="matrix(10,0,0,10,715.6,553.1)" />
<use xlink:href="#f2_2h" transform="matrix(10,0,0,10,727.1,553.1)" />
<use xlink:href="#f2_28" transform="matrix(10,0,0,10,734.4,553.1)" />
<use xlink:href="#f2_1x" transform="matrix(10,0,0,10,738.8,553.1)" />
<use xlink:href="#f2_2b" transform="matrix(10,0,0,10,748.6,553.1)" />
<use xlink:href="#f2_22" transform="matrix(10,0,0,10,756.1,553.1)" />
<use xlink:href="#f2_2g" transform="matrix(10,0,0,10,764.2,553.1)" />
<use xlink:href="#f2_24" transform="matrix(10,0,0,10,768.4,553.1)" />
<use xlink:href="#f2_21" transform="matrix(10,0,0,10,776.2,553.1)" />
<use xlink:href="#f2_1z" transform="matrix(10,0,0,10,785.8,553.1)" />
<use xlink:href="#f2_2b" transform="matrix(10,0,0,10,792.7,553.1)" />
<use xlink:href="#f2_29" transform="matrix(10,0,0,10,800.6,553.1)" />
<use xlink:href="#f2_2c" transform="matrix(10,0,0,10,812.2,553.1)" />
<use xlink:href="#f2_2b" transform="matrix(10,0,0,10,819.9,553.1)" />
<use xlink:href="#f2_2h" transform="matrix(10,0,0,10,827.6,553.1)" />
<use xlink:href="#f2_2a" transform="matrix(10,0,0,10,835.1,553.1)" />
<use xlink:href="#f2_20" transform="matrix(10,0,0,10,842.8,553.1)" />
<use xlink:href="#f2_i" transform="matrix(10,0,0,10,850.7,553.1)" />
<use xlink:href="#f0_l" transform="matrix(10,0,0,10,55,616.5)" />
<use xlink:href="#f0_r" transform="matrix(10,0,0,10,62.7,616.5)" />
<use xlink:href="#f0_i" transform="matrix(10,0,0,10,70.4,616.5)" />
</g>
<path d="M179.3,630.3h9.9" class="g1_24" />
<path d="M159.7,611h30.8" class="g0_24" />
<g fill="#000000" >
<use xlink:href="#f2_l" transform="matrix(10,0,0,10,162.3,605.4)" />
<use xlink:href="#f2_25" transform="matrix(10,0,0,10,181.9,605.4)" />
<use xlink:href="#f2_l" transform="matrix(10,0,0,10,180.4,624.4)" />
<use xlink:href="#f2_l" transform="matrix(10,0,0,10,159.1,634.1)" />
</g>
<g clip-path="url(#c3_24)">
<g fill="#000000" >
<use xlink:href="#f2_2a" transform="matrix(10,0,0,10,180.4,645.7)" />
</g>
</g>
<g fill="#000000" >
<use xlink:href="#f1_h" transform="matrix(10,0,0,10,171.4,605.4)" />
<use xlink:href="#f1_1x" transform="matrix(10,0,0,10,133.8,614.9)" />
<use xlink:href="#f1_x" transform="matrix(10,0,0,10,147.6,614.9)" />
<use xlink:href="#f1_h" transform="matrix(10,0,0,10,168.1,634.1)" />
<use xlink:href="#f2_2j" transform="matrix(10,0,0,10,89.5,701.1)" />
<use xlink:href="#f2_24" transform="matrix(10,0,0,10,100.1,701.1)" />
<use xlink:href="#f2_21" transform="matrix(10,0,0,10,107.6,701.1)" />
<use xlink:href="#f2_2e" transform="matrix(10,0,0,10,114.4,701.1)" />
<use xlink:href="#f2_21" transform="matrix(10,0,0,10,119.7,701.1)" />
<use xlink:href="#f1_1x" transform="matrix(10,0,0,10,130.3,701.1)" />
<use xlink:href="#f2_25" transform="matrix(10,0,0,10,143.2,701.1)" />
<use xlink:href="#f2_2f" transform="matrix(10,0,0,10,147.6,701.1)" />
<use xlink:href="#f2_20" transform="matrix(10,0,0,10,157.3,701.1)" />
<use xlink:href="#f2_21" transform="matrix(10,0,0,10,164.8,701.1)" />
<use xlink:href="#f2_23" transform="matrix(10,0,0,10,171.8,701.1)" />
<use xlink:href="#f2_2e" transform="matrix(10,0,0,10,179.5,701.1)" />
<use xlink:href="#f2_21" transform="matrix(10,0,0,10,184.6,701.1)" />
<use xlink:href="#f2_21" transform="matrix(10,0,0,10,191.6,701.1)" />
<use xlink:href="#f2_2b" transform="matrix(10,0,0,10,201.9,701.1)" />
<use xlink:href="#f2_22" transform="matrix(10,0,0,10,209.9,701.1)" />
<use xlink:href="#f2_1x" transform="matrix(10,0,0,10,218.4,701.1)" />
<use xlink:href="#f2_2f" transform="matrix(10,0,0,10,225.1,701.1)" />
<use xlink:href="#f2_2f" transform="matrix(10,0,0,10,231.4,701.1)" />
<use xlink:href="#f2_2b" transform="matrix(10,0,0,10,237.1,701.1)" />
<use xlink:href="#f2_1z" transform="matrix(10,0,0,10,244.9,701.1)" />
<use xlink:href="#f2_25" transform="matrix(10,0,0,10,251.9,701.1)" />
<use xlink:href="#f2_1x" transform="matrix(10,0,0,10,255.9,701.1)" />
<use xlink:href="#f2_2g" transform="matrix(10,0,0,10,262.9,701.1)" />
<use xlink:href="#f2_25" transform="matrix(10,0,0,10,267.1,701.1)" />
<use xlink:href="#f2_2b" transform="matrix(10,0,0,10,271.3,701.1)" />
<use xlink:href="#f2_2a" transform="matrix(10,0,0,10,279.4,701.1)" />
<use xlink:href="#f2_g" transform="matrix(10,0,0,10,286.7,701.1)" />
</g>
<path d="M297.5,695h9.9" class="g0_24" />
<g fill="#000000" >
<use xlink:href="#f2_l" transform="matrix(10.1,0,0,10.1,298.7,689.1)" />
<use xlink:href="#f2_g" transform="matrix(10.1,0,0,10.1,309.3,699)" />
<use xlink:href="#f2_2a" transform="matrix(10.1,0,0,10.1,314.8,699)" />
<use xlink:href="#f2_2a" transform="matrix(10.1,0,0,10.1,298.7,710.8)" />
<use xlink:href="#f2_25" transform="matrix(10,0,0,10,330.2,701.1)" />
<use xlink:href="#f2_2f" transform="matrix(10,0,0,10,334.6,701.1)" />
<use xlink:href="#f2_2g" transform="matrix(10,0,0,10,344.3,701.1)" />
<use xlink:href="#f2_24" transform="matrix(10,0,0,10,348.3,701.1)" />
<use xlink:href="#f2_21" transform="matrix(10,0,0,10,356,701.1)" />
<use xlink:href="#f2_2a" transform="matrix(10,0,0,10,366.3,701.1)" />
<use xlink:href="#f2_2h" transform="matrix(10,0,0,10,374,701.1)" />
<use xlink:href="#f2_29" transform="matrix(10,0,0,10,381.5,701.1)" />
<use xlink:href="#f2_1y" transform="matrix(10,0,0,10,393.4,701.1)" />
<use xlink:href="#f2_21" transform="matrix(10,0,0,10,401,701.1)" />
<use xlink:href="#f2_2e" transform="matrix(10,0,0,10,407.9,701.1)" />
<use xlink:href="#f2_2b" transform="matrix(10,0,0,10,416.9,701.1)" />
<use xlink:href="#f2_22" transform="matrix(10,0,0,10,424.8,701.1)" />
<use xlink:href="#f2_29" transform="matrix(10,0,0,10,433,701.1)" />
<use xlink:href="#f2_2b" transform="matrix(10,0,0,10,444.8,701.1)" />
<use xlink:href="#f2_28" transform="matrix(10,0,0,10,452.7,701.1)" />
<use xlink:href="#f2_21" transform="matrix(10,0,0,10,457.1,701.1)" />
<use xlink:href="#f2_1z" transform="matrix(10,0,0,10,463.7,701.1)" />
<use xlink:href="#f2_2h" transform="matrix(10,0,0,10,470.6,701.1)" />
<use xlink:href="#f2_28" transform="matrix(10,0,0,10,478.2,701.1)" />
<use xlink:href="#f2_21" transform="matrix(10,0,0,10,482.4,701.1)" />
<use xlink:href="#f2_2f" transform="matrix(10,0,0,10,489.5,701.1)" />
<use xlink:href="#f2_2b" transform="matrix(10,0,0,10,499.2,701.1)" />
<use xlink:href="#f2_22" transform="matrix(10,0,0,10,506.8,701.1)" />
<use xlink:href="#f2_2f" transform="matrix(10,0,0,10,515.6,701.1)" />
<use xlink:href="#f2_2b" transform="matrix(10,0,0,10,521.2,701.1)" />
<use xlink:href="#f2_28" transform="matrix(10,0,0,10,529.1,701.1)" />
<use xlink:href="#f2_2h" transform="matrix(10,0,0,10,533.5,701.1)" />
<use xlink:href="#f2_2g" transform="matrix(10,0,0,10,540.9,701.1)" />
<use xlink:href="#f2_21" transform="matrix(10,0,0,10,545.3,701.1)" />
<use xlink:href="#f2_1x" transform="matrix(10,0,0,10,555.9,701.1)" />
<use xlink:href="#f2_2f" transform="matrix(10,0,0,10,562.9,701.1)" />
<use xlink:href="#f2_2f" transform="matrix(10,0,0,10,568.5,701.1)" />
<use xlink:href="#f2_2b" transform="matrix(10,0,0,10,574.6,701.1)" />
<use xlink:href="#f2_1z" transform="matrix(10,0,0,10,582.5,701.1)" />
<use xlink:href="#f2_25" transform="matrix(10,0,0,10,589.3,701.1)" />
<use xlink:href="#f2_1x" transform="matrix(10,0,0,10,593.5,701.1)" />
<use xlink:href="#f2_2g" transform="matrix(10,0,0,10,600.4,701.1)" />
<use xlink:href="#f2_21" transform="matrix(10,0,0,10,604.7,701.1)" />
<use xlink:href="#f2_2g" transform="matrix(10,0,0,10,615.3,701.1)" />
<use xlink:href="#f2_2b" transform="matrix(10,0,0,10,619.3,701.1)" />
<use xlink:href="#f2_22" transform="matrix(10,0,0,10,630.8,701.1)" />
<use xlink:href="#f2_2b" transform="matrix(10,0,0,10,636,701.1)" />
<use xlink:href="#f2_2e" transform="matrix(10,0,0,10,643.7,701.1)" />
<use xlink:href="#f2_29" transform="matrix(10,0,0,10,648.8,701.1)" />
<use xlink:href="#f2_1x" transform="matrix(10,0,0,10,664,701.1)" />
<use xlink:href="#f2_2a" transform="matrix(10,0,0,10,671.2,701.1)" />
<use xlink:href="#f2_1x" transform="matrix(10,0,0,10,682.2,701.1)" />
<use xlink:href="#f2_2f" transform="matrix(10,0,0,10,689.2,701.1)" />
<use xlink:href="#f2_2f" transform="matrix(10,0,0,10,695.2,701.1)" />
<use xlink:href="#f2_2b" transform="matrix(10,0,0,10,701.3,701.1)" />
<use xlink:href="#f2_1z" transform="matrix(10,0,0,10,708.8,701.1)" />
<use xlink:href="#f2_25" transform="matrix(10,0,0,10,715.7,701.1)" />
<use xlink:href="#f2_1x" transform="matrix(10,0,0,10,720.1,701.1)" />
<use xlink:href="#f2_2g" transform="matrix(10,0,0,10,726.9,701.1)" />
<use xlink:href="#f2_21" transform="matrix(10,0,0,10,731.3,701.1)" />
<use xlink:href="#f2_20" transform="matrix(10,0,0,10,738.1,701.1)" />
<use xlink:href="#f2_29" transform="matrix(10,0,0,10,749.5,701.1)" />
<use xlink:href="#f2_2b" transform="matrix(10,0,0,10,761,701.1)" />
<use xlink:href="#f2_28" transform="matrix(10,0,0,10,768.7,701.1)" />
<use xlink:href="#f2_21" transform="matrix(10,0,0,10,773,701.1)" />
<use xlink:href="#f2_1z" transform="matrix(10,0,0,10,779.9,701.1)" />
<use xlink:href="#f2_2h" transform="matrix(10,0,0,10,786.9,701.1)" />
<use xlink:href="#f2_28" transform="matrix(10,0,0,10,794.2,701.1)" />
<use xlink:href="#f2_21" transform="matrix(10,0,0,10,798.8,701.1)" />
<use xlink:href="#f2_g" transform="matrix(10,0,0,10,805.6,701.1)" />
</g>
<path d="M816.2,695h9.9" class="g0_24" />
<g fill="#000000" >
<use xlink:href="#f2_l" transform="matrix(10.1,0,0,10.1,817.3,689.1)" />
<use xlink:href="#f2_l" transform="matrix(10.1,0,0,10.1,840.2,699)" />
<use xlink:href="#f2_i" transform="matrix(10.1,0,0,10.1,847.9,699)" />
<use xlink:href="#f2_2a" transform="matrix(10.1,0,0,10.1,817.3,710.8)" />
<use xlink:href="#f1_w" transform="matrix(10.1,0,0,10.1,830,699)" />
<use xlink:href="#f0_l" transform="matrix(10,0,0,10,55,741.6)" />
<use xlink:href="#f0_s" transform="matrix(10,0,0,10,62.7,741.6)" />
<use xlink:href="#f0_i" transform="matrix(10,0,0,10,70.4,741.6)" />
<use xlink:href="#f2_19" transform="matrix(10,0,0,10,89.5,741.6)" />
<use xlink:href="#f2_22" transform="matrix(10,0,0,10,94.6,741.6)" />
<use xlink:href="#f2_25" transform="matrix(10,0,0,10,103.4,741.6)" />
<use xlink:href="#f2_y" transform="matrix(10,0,0,10,111.5,741.6)" />
<use xlink:href="#f2_l" transform="matrix(10,0,0,10,124.3,741.6)" />
<use xlink:href="#f2_g" transform="matrix(10,0,0,10,131.8,741.6)" />
<use xlink:href="#f2_2f" transform="matrix(10,0,0,10,139.7,741.6)" />
<use xlink:href="#f2_2b" transform="matrix(10,0,0,10,145.9,741.6)" />
<use xlink:href="#f2_28" transform="matrix(10,0,0,10,153.5,741.6)" />
<use xlink:href="#f2_2h" transform="matrix(10,0,0,10,157.7,741.6)" />
<use xlink:href="#f2_2g" transform="matrix(10,0,0,10,165.6,741.6)" />
<use xlink:href="#f2_21" transform="matrix(10,0,0,10,169.8,741.6)" />
<use xlink:href="#f2_2h" transform="matrix(10,0,0,10,180.4,741.6)" />
<use xlink:href="#f2_2a" transform="matrix(10,0,0,10,187.7,741.6)" />
<use xlink:href="#f2_20" transform="matrix(10,0,0,10,195.6,741.6)" />
<use xlink:href="#f2_21" transform="matrix(10,0,0,10,203.1,741.6)" />
<use xlink:href="#f2_2e" transform="matrix(10,0,0,10,210.1,741.6)" />
<use xlink:href="#f2_23" transform="matrix(10,0,0,10,215.2,741.6)" />
<use xlink:href="#f2_2b" transform="matrix(10,0,0,10,222.8,741.6)" />
<use xlink:href="#f2_21" transform="matrix(10,0,0,10,230.6,741.6)" />
<use xlink:href="#f2_2f" transform="matrix(10,0,0,10,237.4,741.6)" />
<use xlink:href="#f2_20" transform="matrix(10,0,0,10,247.3,741.6)" />
<use xlink:href="#f2_25" transform="matrix(10,0,0,10,254.8,741.6)" />
<use xlink:href="#f2_2f" transform="matrix(10,0,0,10,259.2,741.6)" />
<use xlink:href="#f2_2f" transform="matrix(10,0,0,10,265.3,741.6)" />
<use xlink:href="#f2_2b" transform="matrix(10,0,0,10,271.3,741.6)" />
<use xlink:href="#f2_1z" transform="matrix(10,0,0,10,278.9,741.6)" />
<use xlink:href="#f2_25" transform="matrix(10,0,0,10,285.8,741.6)" />
<use xlink:href="#f2_1x" transform="matrix(10,0,0,10,290,741.6)" />
<use xlink:href="#f2_2g" transform="matrix(10,0,0,10,297,741.6)" />
<use xlink:href="#f2_25" transform="matrix(10,0,0,10,301.4,741.6)" />
<use xlink:href="#f2_2b" transform="matrix(10,0,0,10,305.5,741.6)" />
<use xlink:href="#f2_2a" transform="matrix(10,0,0,10,313.3,741.6)" />
<use xlink:href="#f2_i" transform="matrix(10,0,0,10,320.9,741.6)" />
<use xlink:href="#f2_25" transform="matrix(10,0,0,10,89.5,768.7)" />
<use xlink:href="#f2_w" transform="matrix(10,0,0,10,97.5,768.7)" />
<use xlink:href="#f2_l" transform="matrix(10,0,0,10,110,768.7)" />
<use xlink:href="#f2_g" transform="matrix(10,0,0,10,117.9,768.7)" />
<use xlink:href="#f2_2f" transform="matrix(10,0,0,10,125.8,768.7)" />
<use xlink:href="#f2_2b" transform="matrix(10,0,0,10,131.5,768.7)" />
<use xlink:href="#f2_28" transform="matrix(10,0,0,10,139.3,768.7)" />
<use xlink:href="#f2_2h" transform="matrix(10,0,0,10,143.6,768.7)" />
<use xlink:href="#f2_2g" transform="matrix(10,0,0,10,151.4,768.7)" />
<use xlink:href="#f2_21" transform="matrix(10,0,0,10,155.5,768.7)" />
<use xlink:href="#f2_2h" transform="matrix(10,0,0,10,166.1,768.7)" />
<use xlink:href="#f2_2a" transform="matrix(10,0,0,10,173.8,768.7)" />
<use xlink:href="#f2_20" transform="matrix(10,0,0,10,181.3,768.7)" />
<use xlink:href="#f2_21" transform="matrix(10,0,0,10,189.2,768.7)" />
<use xlink:href="#f2_2e" transform="matrix(10,0,0,10,196.2,768.7)" />
<use xlink:href="#f2_23" transform="matrix(10,0,0,10,200.9,768.7)" />
<use xlink:href="#f2_2b" transform="matrix(10,0,0,10,208.8,768.7)" />
<use xlink:href="#f2_21" transform="matrix(10,0,0,10,216.3,768.7)" />
<use xlink:href="#f2_2f" transform="matrix(10,0,0,10,223.3,768.7)" />
<use xlink:href="#f2_1x" transform="matrix(10,0,0,10,233.2,768.7)" />
<use xlink:href="#f2_2f" transform="matrix(10,0,0,10,240.2,768.7)" />
<use xlink:href="#f2_2f" transform="matrix(10,0,0,10,245.9,768.7)" />
<use xlink:href="#f2_2b" transform="matrix(10,0,0,10,251.9,768.7)" />
<use xlink:href="#f2_1z" transform="matrix(10,0,0,10,259.8,768.7)" />
<use xlink:href="#f2_25" transform="matrix(10,0,0,10,266.6,768.7)" />
<use xlink:href="#f2_1x" transform="matrix(10,0,0,10,271,768.7)" />
<use xlink:href="#f2_2g" transform="matrix(10,0,0,10,277.8,768.7)" />
<use xlink:href="#f2_25" transform="matrix(10,0,0,10,282.2,768.7)" />
<use xlink:href="#f2_2b" transform="matrix(10,0,0,10,286.4,768.7)" />
<use xlink:href="#f2_2a" transform="matrix(10,0,0,10,294.3,768.7)" />
<use xlink:href="#f2_i" transform="matrix(10,0,0,10,301.6,768.7)" />
<use xlink:href="#f2_25" transform="matrix(10,0,0,10,89.5,795.8)" />
<use xlink:href="#f2_x" transform="matrix(10,0,0,10,97.5,795.8)" />
<use xlink:href="#f2_l" transform="matrix(10,0,0,10,110,795.8)" />
<use xlink:href="#f2_g" transform="matrix(10,0,0,10,117.9,795.8)" />
<use xlink:href="#f2_2a" transform="matrix(10,0,0,10,125.8,795.8)" />
<use xlink:href="#f2_21" transform="matrix(10,0,0,10,133.1,795.8)" />
<use xlink:href="#f2_25" transform="matrix(10,0,0,10,140.3,795.8)" />
<use xlink:href="#f2_2g" transform="matrix(10,0,0,10,144.5,795.8)" />
<use xlink:href="#f2_24" transform="matrix(10,0,0,10,148.9,795.8)" />
<use xlink:href="#f2_21" transform="matrix(10,0,0,10,156.2,795.8)" />
<use xlink:href="#f2_2e" transform="matrix(10,0,0,10,163.2,795.8)" />
<use xlink:href="#f2_1x" transform="matrix(10,0,0,10,172.3,795.8)" />
<use xlink:href="#f2_2f" transform="matrix(10,0,0,10,179.3,795.8)" />
<use xlink:href="#f2_2f" transform="matrix(10,0,0,10,185,795.8)" />
<use xlink:href="#f2_2b" transform="matrix(10,0,0,10,191,795.8)" />
<use xlink:href="#f2_1z" transform="matrix(10,0,0,10,198.9,795.8)" />
<use xlink:href="#f2_25" transform="matrix(10,0,0,10,205.7,795.8)" />
<use xlink:href="#f2_1x" transform="matrix(10,0,0,10,210.1,795.8)" />
<use xlink:href="#f2_2g" transform="matrix(10,0,0,10,216.9,795.8)" />
<use xlink:href="#f2_25" transform="matrix(10,0,0,10,221.3,795.8)" />
<use xlink:href="#f2_2b" transform="matrix(10,0,0,10,225.5,795.8)" />
<use xlink:href="#f2_2a" transform="matrix(10,0,0,10,233,795.8)" />
<use xlink:href="#f2_2a" transform="matrix(10,0,0,10,244.4,795.8)" />
<use xlink:href="#f2_2b" transform="matrix(10,0,0,10,252.3,795.8)" />
<use xlink:href="#f2_2e" transform="matrix(10,0,0,10,259.8,795.8)" />
<use xlink:href="#f2_20" transform="matrix(10,0,0,10,269.2,795.8)" />
<use xlink:href="#f2_25" transform="matrix(10,0,0,10,276.7,795.8)" />
<use xlink:href="#f2_2f" transform="matrix(10,0,0,10,281.1,795.8)" />
<use xlink:href="#f2_2f" transform="matrix(10,0,0,10,287.1,795.8)" />
<use xlink:href="#f2_2b" transform="matrix(10,0,0,10,293,795.8)" />
<use xlink:href="#f2_1z" transform="matrix(10,0,0,10,300.7,795.8)" />
<use xlink:href="#f2_25" transform="matrix(10,0,0,10,307.7,795.8)" />
<use xlink:href="#f2_1x" transform="matrix(10,0,0,10,312.1,795.8)" />
<use xlink:href="#f2_2g" transform="matrix(10,0,0,10,318.8,795.8)" />
<use xlink:href="#f2_25" transform="matrix(10,0,0,10,323.2,795.8)" />
<use xlink:href="#f2_2b" transform="matrix(10,0,0,10,327.3,795.8)" />
<use xlink:href="#f2_2a" transform="matrix(10,0,0,10,335.2,795.8)" />
<use xlink:href="#f2_i" transform="matrix(10,0,0,10,342.9,795.8)" />
</g>
<path d="M112,837.5h9.2" class="g0_24" />
<g fill="#000000" >
<use xlink:href="#f2_l" transform="matrix(10.1,0,0,10.1,112.8,831.6)" />
<use xlink:href="#f2_25" transform="matrix(10.1,0,0,10.1,91.9,841.5)" />
<use xlink:href="#f2_g" transform="matrix(10.1,0,0,10.1,123,841.5)" />
<use xlink:href="#f2_m" transform="matrix(10.1,0,0,10.1,113.1,853.2)" />
<use xlink:href="#f1_x" transform="matrix(10.1,0,0,10.1,99.7,841.5)" />
<use xlink:href="#f2_2f" transform="matrix(10,0,0,10,133.3,843.3)" />
<use xlink:href="#f2_2b" transform="matrix(10,0,0,10,139.3,843.3)" />
<use xlink:href="#f2_28" transform="matrix(10,0,0,10,147.2,843.3)" />
<use xlink:href="#f2_2h" transform="matrix(10,0,0,10,151.6,843.3)" />
<use xlink:href="#f2_2g" transform="matrix(10,0,0,10,159.1,843.3)" />
<use xlink:href="#f2_21" transform="matrix(10,0,0,10,163.5,843.3)" />
<use xlink:href="#f2_25" transform="matrix(10,0,0,10,173.8,843.3)" />
<use xlink:href="#f2_2f" transform="matrix(10,0,0,10,178.2,843.3)" />
<use xlink:href="#f2_20" transform="matrix(10,0,0,10,188.1,843.3)" />
<use xlink:href="#f2_25" transform="matrix(10,0,0,10,196,843.3)" />
<use xlink:href="#f2_29" transform="matrix(10,0,0,10,200.4,843.3)" />
<use xlink:href="#f2_21" transform="matrix(10,0,0,10,211.9,843.3)" />
<use xlink:href="#f2_2e" transform="matrix(10,0,0,10,218.7,843.3)" />
<use xlink:href="#f2_i" transform="matrix(10,0,0,10,222.9,843.3)" />
<use xlink:href="#f2_i" transform="matrix(10,0,0,10,223.1,843.3)" />
</g>
<path fill-rule="evenodd" d="M54.1,68H856.2V96.4H54.1V68l1.5,27H854.7V69.7H55.6V95L54.1,68Z" class="g2_24" />
<path fill-rule="evenodd" d="M55.6,93.3H855.1v3H55.6v-3Z" class="g3_24" />
<path fill-rule="evenodd" d="M55.6,68.2H855.1v3.1H55.6V68.2Z" class="g3_24" />
<g fill="#000000" >
<use xlink:href="#f3_1j" transform="matrix(10,0,0,10,61.2,86.7)" />
<use xlink:href="#f3_1f" transform="matrix(10,0,0,10,71.3,86.7)" />
<use xlink:href="#f3_1c" transform="matrix(10,0,0,10,83.6,86.7)" />
<use xlink:href="#f3_1l" transform="matrix(10,0,0,10,93.3,86.7)" />
<use xlink:href="#f3_1k" transform="matrix(10,0,0,10,104.3,86.7)" />
<use xlink:href="#f3_19" transform="matrix(10,0,0,10,114.9,86.7)" />
<use xlink:href="#f3_1f" transform="matrix(10,0,0,10,121,86.7)" />
<use xlink:href="#f3_1e" transform="matrix(10,0,0,10,132.9,86.7)" />
<use xlink:href="#f3_1j" transform="matrix(10,0,0,10,144.3,86.7)" />
<use xlink:href="#f3_a" transform="matrix(10,0,0,10,158,86.7)" />
<use xlink:href="#f3_13" transform="matrix(10,0,0,10,174,86.7)" />
<use xlink:href="#f3_1f" transform="matrix(10,0,0,10,185,86.7)" />
<use xlink:href="#f3_1c" transform="matrix(10,0,0,10,197.3,86.7)" />
<use xlink:href="#f3_1c" transform="matrix(10,0,0,10,207,86.7)" />
<use xlink:href="#f3_19" transform="matrix(10,0,0,10,216.5,86.7)" />
<use xlink:href="#f3_17" transform="matrix(10,0,0,10,222.6,86.7)" />
<use xlink:href="#f3_11" transform="matrix(10,0,0,10,234.3,86.7)" />
<use xlink:href="#f3_1k" transform="matrix(10,0,0,10,245.5,86.7)" />
<use xlink:href="#f3_19" transform="matrix(10,0,0,10,256.1,86.7)" />
<use xlink:href="#f3_1m" transform="matrix(10,0,0,10,262,86.7)" />
<use xlink:href="#f3_15" transform="matrix(10,0,0,10,273.2,86.7)" />
<use xlink:href="#f3_1g" transform="matrix(10,0,0,10,287.8,86.7)" />
<use xlink:href="#f3_1i" transform="matrix(10,0,0,10,297.7,86.7)" />
<use xlink:href="#f3_1f" transform="matrix(10,0,0,10,309.7,86.7)" />
<use xlink:href="#f3_1g" transform="matrix(10,0,0,10,321.9,86.7)" />
<use xlink:href="#f3_15" transform="matrix(10,0,0,10,331.8,86.7)" />
<use xlink:href="#f3_1i" transform="matrix(10,0,0,10,343,86.7)" />
<use xlink:href="#f3_1k" transform="matrix(10,0,0,10,354.8,86.7)" />
<use xlink:href="#f3_19" transform="matrix(10,0,0,10,365.4,86.7)" />
<use xlink:href="#f3_15" transform="matrix(10,0,0,10,371.3,86.7)" />
<use xlink:href="#f3_1j" transform="matrix(10,0,0,10,382.4,86.7)" />
</g>
<path fill-rule="evenodd" d="M55,1176.4H853.4v2.4H55v-2.4Z" class="g3_24" />
<path d="M55.8,94H854.7V71.7H55.8V94Z" class="g4_24" />
<defs>
<path d="M114,0V27h27c0,0,65,0,93,15c0,0,27,15,37,41c0,0,10,27,10,122V729c0,0,0,71,-7,89c0,0,-7,17,-25,30c0,0,-18,12,-42,12c0,0,-38,0,-93,-24l-13,26l372,171h25V205c0,0,0,-93,8,-119c0,0,8,-26,34,-42c0,0,27,-17,84,-17h23V0Z" 
id="f0_l"
transform="scale(0.001,-0.001)" />

<path d="M404,381V781L110,381ZM404,0V227H38V381l480,652h91V381h93V227H609V0Z" 
id="f0_o"
transform="scale(0.001,-0.001)" />

<path d="M191,-18c0,0,-51,0,-87,36c0,0,-37,36,-37,87c0,0,0,52,37,88c0,0,36,37,87,37c0,0,52,0,89,-37c0,0,36,-36,36,-88c0,0,0,-51,-37,-87c0,0,-36,-36,-88,-36Z" 
id="f0_i"
transform="scale(0.001,-0.001)" />

<path d="M597,33c0,0,77,0,129,38c0,0,65,47,102,152c0,0,36,105,36,273c0,0,0,201,-37,300c0,0,-37,100,-95,141c0,0,-58,41,-133,41c0,0,-139,0,-211,-142c0,0,-59,-116,-59,-334c0,0,0,-259,91,-382c0,0,63,-87,177,-87Zm3,-54c0,0,-273,0,-423,183C177,162,60,309,60,509c0,0,0,225,153,375c0,0,144,142,358,142c6,0,12,0,19,0c0,0,3,0,8,0c42,0,250,-7,385,-141c0,0,151,-150,151,-375c0,0,0,-193,-113,-339c0,0,-149,-192,-421,-192Z" 
id="f0_1f"
transform="scale(0.001,-0.001)" />

<path d="M312,-20c0,0,-50,0,-134,30c0,0,-22,9,-30,9c0,0,-25,0,-41,-37H82L70,232H97c0,0,33,-99,91,-148c0,0,59,-49,111,-49c0,0,35,0,58,22c0,0,22,22,22,54c0,0,0,35,-22,61c0,0,-22,27,-100,80c0,0,-114,79,-147,120c0,0,-49,62,-49,136c0,0,0,80,55,145c0,0,56,66,161,66c0,0,56,0,109,-28c0,0,20,-11,33,-11c0,0,13,0,21,5c0,0,9,6,27,32h26L504,479H477c0,0,-45,106,-94,145c0,0,-48,39,-96,39c0,0,-31,0,-52,-21c0,0,-22,-20,-22,-47c0,0,0,-20,15,-39c0,0,24,-30,133,-105c0,0,110,-74,144,-126c0,0,35,-52,35,-116c0,0,0,-58,-29,-114C511,95,482,39,429,9c0,0,-53,-29,-117,-29Z" 
id="f0_2f"
transform="scale(0.001,-0.001)" />

<path d="M56,0V26c0,0,44,5,63,29c0,0,13,16,13,97V546c0,0,0,79,-15,98c0,0,-14,20,-61,26v27H341V606c0,0,57,63,106,88c0,0,49,25,108,25c0,0,67,0,112,-32c0,0,46,-31,71,-95c0,0,59,67,114,97c0,0,55,30,115,30c0,0,72,0,115,-34c0,0,43,-33,60,-84c0,0,16,-51,16,-163V152c0,0,0,-81,15,-100c0,0,14,-20,61,-26V0H873V26c0,0,42,4,63,33c0,0,13,20,13,93V452c0,0,0,93,-7,119c0,0,-8,25,-24,38c0,0,-16,12,-37,12c0,0,-32,0,-65,-24c0,0,-33,-23,-66,-70V152c0,0,0,-76,12,-95c0,0,17,-28,66,-31V0H466V26c0,0,29,2,46,15c0,0,17,13,23,31c0,0,5,18,5,80V452c0,0,0,95,-7,119c0,0,-8,24,-25,37c0,0,-18,14,-38,14c0,0,-30,0,-54,-16c0,0,-35,-23,-75,-79V152c0,0,0,-74,14,-98c0,0,15,-23,61,-28V0Z" 
id="f0_29"
transform="scale(0.001,-0.001)" />

<path d="M381,31c0,0,33,0,56,19c0,0,29,25,38,71c0,0,15,71,15,286c0,0,0,127,-14,174c0,0,-14,48,-42,69c0,0,-19,16,-50,16c0,0,-38,0,-65,-29c0,0,-27,-29,-36,-113c0,0,-8,-85,-8,-235c0,0,0,-80,10,-150c0,0,8,-53,35,-80c0,0,27,-28,61,-28Zm2,-51c0,0,-157,0,-242,110c0,0,-85,110,-85,256c0,0,0,150,87,261c0,0,86,112,238,112c0,0,90,0,169,-47c0,0,78,-47,119,-134c0,0,40,-86,40,-189c0,0,0,-149,-75,-249c0,0,-91,-120,-251,-120Z" 
id="f0_2b"
transform="scale(0.001,-0.001)" />

<path d="M298,-9c0,0,-67,0,-113,36c0,0,-46,37,-58,83c0,0,-8,25,-8,137V624H28v26c0,0,94,66,161,139c0,0,66,73,115,163h25V697H494V624H329V193c0,0,0,-60,5,-78c0,0,6,-17,20,-28c0,0,14,-11,26,-11c0,0,48,0,92,75l22,-17C494,134,434,-9,298,-9Z" 
id="f0_2g"
transform="scale(0.001,-0.001)" />

<path d="M32,0V26c0,0,46,2,69,27c0,0,14,18,14,92V551c0,0,0,75,-17,95c0,0,-17,21,-66,24v27H325V145c0,0,0,-74,17,-95c0,0,17,-21,68,-24V0ZM220,804c0,0,-48,0,-82,33c0,0,-33,34,-33,82c0,0,0,48,33,82c0,0,34,33,82,33c0,0,48,0,82,-33c0,0,33,-34,33,-82c0,0,0,-48,-34,-82c0,0,-34,-33,-81,-33Z" 
id="f0_25"
transform="scale(0.001,-0.001)" />

<path d="M365,-20c0,0,-139,0,-223,105c0,0,-83,105,-83,253c0,0,0,142,76,250c0,0,92,131,253,131c0,0,108,0,172,-55c0,0,63,-54,63,-121c0,0,0,-43,-25,-68c0,0,-26,-25,-68,-25c0,0,-44,0,-73,29c0,0,-28,29,-35,104c0,0,-5,47,-22,65c0,0,-17,19,-40,19c0,0,-36,0,-61,-38c0,0,-39,-58,-39,-176c0,0,0,-99,31,-188c0,0,32,-90,86,-134c0,0,41,-32,97,-32c0,0,36,0,69,17c0,0,33,17,78,65l23,-18C644,163,595,70,521,25c0,0,-73,-45,-156,-45Z" 
id="f0_1z"
transform="scale(0.001,-0.001)" />

<path d="M459,56c0,0,40,0,66,42c0,0,39,63,39,239c0,0,0,180,-42,247c0,0,-29,44,-76,44c0,0,-76,0,-124,-109V147c0,0,64,-91,137,-91ZM29,-326v28c0,0,46,1,69,26c0,0,14,17,14,89V551c0,0,0,75,-17,95c0,0,-17,21,-66,24v27H322V605c0,0,36,54,74,78c0,0,55,36,119,36c0,0,77,0,140,-49c0,0,63,-48,95,-134c0,0,33,-85,33,-184c0,0,0,-106,-34,-193c0,0,-34,-88,-98,-134c0,0,-65,-45,-144,-45c0,0,-57,0,-107,25c0,0,-37,19,-78,66V-188c0,0,0,-53,8,-73c0,0,9,-19,27,-28c0,0,18,-9,70,-9v-28Z" 
id="f0_2c"
transform="scale(0.001,-0.001)" />

<path d="M57,0V26c0,0,45,4,61,25c0,0,16,22,16,113V550c0,0,0,59,-6,76c0,0,-7,21,-22,30c0,0,-14,10,-49,14v27H342l1,-158c0,0,69,109,121,144c0,0,52,36,100,36c0,0,42,0,66,-26c0,0,25,-26,25,-73c0,0,0,-50,-24,-77c0,0,-25,-28,-59,-28c0,0,-39,0,-68,25c0,0,-28,26,-33,29c0,0,-8,4,-17,4c0,0,-22,0,-41,-16c0,0,-31,-26,-46,-73c0,0,-24,-72,-24,-159V122c0,0,0,-42,5,-54c0,0,9,-21,27,-30c0,0,17,-9,59,-12V0Z" 
id="f0_2e"
transform="scale(0.001,-0.001)" />

<path d="M458,424c0,0,0,120,-13,165c0,0,-13,44,-40,67c0,0,-16,14,-42,14c0,0,-39,0,-63,-38c0,0,-44,-66,-44,-182V424ZM358,-20c0,0,-155,0,-235,119c0,0,-64,96,-64,239c0,0,0,174,94,277c0,0,94,104,221,104c0,0,106,0,184,-87c0,0,78,-87,84,-257H259c0,0,7,-139,74,-220c0,0,51,-62,124,-62c0,0,45,0,81,25c0,0,37,25,79,90l25,-16C642,192,585,76,517,28c0,0,-69,-48,-159,-48Z" 
id="f0_21"
transform="scale(0.001,-0.001)" />

<path d="M304,-20c0,0,-59,0,-105,36c0,0,-45,36,-61,84c0,0,-16,49,-16,169V546c0,0,0,79,-14,98c0,0,-15,20,-61,26v27H331V221c0,0,0,-74,8,-96c0,0,7,-21,22,-33c0,0,15,-11,35,-11c0,0,27,0,49,14c0,0,30,20,71,78V546c0,0,0,79,-14,98c0,0,-15,20,-61,26v27H726V152c0,0,0,-81,14,-100c0,0,15,-20,61,-26V0H516V93C516,93,466,34,416,7c0,0,-50,-27,-112,-27Z" 
id="f0_2h"
transform="scale(0.001,-0.001)" />

<path d="M491,-305c0,0,-180,60,-305,247C186,-58,61,127,61,368c0,0,0,239,124,423c0,0,125,184,306,243v-34c0,0,-78,-50,-115,-99c0,0,-50,-67,-79,-172c0,0,-36,-131,-36,-365c0,0,0,-221,33,-343c0,0,32,-122,88,-197c0,0,39,-52,109,-92v-37Z" 
id="f0_c"
transform="scale(0.001,-0.001)" />

<path d="M140,-21c0,0,-26,0,-44,17C96,-4,79,13,79,40c0,0,0,19,6,33c0,0,8,20,34,55c0,0,46,60,64,126c0,0,32,114,41,321H190c0,0,-55,0,-81,-18c0,0,-44,-26,-80,-89H0c0,0,42,129,98,178c0,0,43,37,120,37H743V575H562c0,0,-27,-171,-27,-327c0,0,0,-77,27,-110c0,0,27,-33,67,-33c0,0,33,0,56,22c0,0,24,22,31,65h27C743,192,730,74,686,26c0,0,-44,-47,-98,-47c0,0,-58,0,-97,51c0,0,-39,53,-39,198c0,0,0,91,28,347H286c0,0,-23,-390,-56,-494c0,0,-33,-102,-90,-102Z" 
id="f1_2c"
transform="scale(0.001,-0.001)" />

<path d="M19,-305v34c0,0,77,52,114,100c0,0,50,67,79,171c0,0,36,131,36,365c0,0,0,221,-33,343c0,0,-32,122,-88,198c0,0,-39,52,-108,91v37c0,0,179,-60,304,-246c0,0,125,-186,125,-428c0,0,0,-238,-125,-421c0,0,-125,-184,-304,-244Z" 
id="f0_d"
transform="scale(0.001,-0.001)" />

<path d="M27,354v62H831V354Zm0,243v62H831V597Z" 
id="f2_x"
transform="scale(0.001,-0.001)" />

<path d="M342,-20c0,0,-116,0,-203,97c0,0,-86,98,-86,264c0,0,0,161,96,261c0,0,95,101,230,101c0,0,100,0,165,-53c0,0,65,-54,65,-111c0,0,0,-29,-18,-46c0,0,-18,-18,-51,-18c0,0,-44,0,-66,29c0,0,-13,15,-17,59c0,0,-4,45,-30,68c0,0,-26,22,-73,22c0,0,-74,0,-120,-55c0,0,-60,-73,-60,-193c0,0,0,-122,60,-216c0,0,60,-93,162,-93c0,0,73,0,131,49c0,0,41,35,80,126l22,-10C629,261,601,125,521,52c0,0,-81,-72,-179,-72Z" 
id="f2_1z"
transform="scale(0.001,-0.001)" />

<path d="M356,519c0,0,145,0,218,63c0,0,74,63,74,160c0,0,0,95,-60,154c0,0,-59,59,-157,59c0,0,-43,0,-117,-13V520c0,0,14,0,25,0c0,0,10,-1,17,-1ZM26,0V27H64c0,0,64,0,92,42c0,0,15,23,15,110V833c0,0,0,96,-21,119c0,0,-29,33,-86,33H26v27H395c0,0,161,0,238,-24c0,0,76,-23,129,-86c0,0,54,-63,54,-151c0,0,0,-93,-61,-162c0,0,-61,-68,-189,-97L775,202c0,0,72,-100,123,-133c0,0,52,-33,134,-42V0H762L419,473c0,0,-38,-1,-61,-1c0,0,-10,0,-21,0c0,0,-11,0,-23,1V179c0,0,0,-96,21,-119c0,0,28,-33,84,-33h40V0Z" 
id="f2_1i"
transform="scale(0.001,-0.001)" />

<path d="M253,0V27h36c0,0,64,0,91,39c0,0,16,24,16,109V948H274c0,0,-71,0,-100,-10c0,0,-39,-14,-67,-54c0,0,-27,-41,-33,-109H46l12,237H883L894,775H865c0,0,-8,62,-22,89c0,0,-23,43,-61,64c0,0,-39,20,-101,20H539V175c0,0,0,-93,20,-116c0,0,28,-32,87,-32h36V0Z" 
id="f2_1k"
transform="scale(0.001,-0.001)" />

<path d="M336,-20L117,554c0,0,-21,55,-42,74c0,0,-21,19,-66,29v26H296V657c0,0,-40,-3,-52,-14c0,0,-13,-12,-13,-33c0,0,0,-23,13,-56L390,162L537,481L498,581c0,0,-18,46,-47,63c0,0,-17,11,-61,13v26H716V657c0,0,-54,-2,-77,-20c0,0,-15,-12,-15,-39c0,0,0,-15,6,-30L785,177L929,554c0,0,15,40,15,65c0,0,0,14,-15,25c0,0,-14,12,-57,13v26h216V657c0,0,-65,-10,-95,-89L764,-20H733L563,415L363,-20Z" 
id="f2_2j"
transform="scale(0.001,-0.001)" />

<path d="M20,0V26c0,0,45,0,71,15c0,0,15,7,24,28c0,0,9,21,9,85V773c0,0,0,117,-5,144c0,0,-6,27,-17,37c0,0,-12,9,-31,9c0,0,-16,0,-51,-12L10,978l204,83h34V561c0,0,83,91,131,116c0,0,49,26,97,26c0,0,58,0,100,-32c0,0,42,-32,62,-101c0,0,14,-47,14,-174V154c0,0,0,-65,11,-89c0,0,7,-18,25,-28c0,0,18,-11,66,-11V0H418V26h15c0,0,48,0,67,15c0,0,18,15,26,43c0,0,2,12,2,70V396c0,0,0,112,-12,147c0,0,-11,35,-36,53c0,0,-26,17,-61,17c0,0,-37,0,-76,-19c0,0,-40,-20,-95,-79V154c0,0,0,-70,8,-87c0,0,8,-17,29,-29c0,0,22,-12,74,-12V0Z" 
id="f2_24"
transform="scale(0.001,-0.001)" />

<path d="M479,469c0,0,-4,66,-16,93c0,0,-18,42,-55,65c0,0,-37,24,-78,24c0,0,-62,0,-111,-48c0,0,-48,-48,-57,-134ZM355,-20c0,0,-123,0,-211,95c0,0,-87,96,-87,258c0,0,0,175,90,273c0,0,89,98,225,98c0,0,115,0,189,-76c0,0,74,-75,74,-202H162c0,0,0,-152,74,-239c0,0,75,-86,175,-86c0,0,67,0,117,36c0,0,50,37,83,127l24,-15c0,0,-16,-102,-91,-186c0,0,-76,-83,-189,-83Z" 
id="f2_21"
transform="scale(0.001,-0.001)" />

<path d="M17,0V26c0,0,52,0,77,17c0,0,19,12,26,38c0,0,4,13,4,73V419c0,0,0,119,-5,142c0,0,-4,23,-17,33c0,0,-13,11,-33,11c0,0,-23,0,-52,-11l-7,26l207,83h31V549c0,0,86,154,176,154c0,0,41,0,68,-25c0,0,27,-25,27,-58c0,0,0,-29,-20,-49c0,0,-19,-20,-46,-20c0,0,-26,0,-58,25c0,0,-33,26,-48,26c0,0,-14,0,-29,-15c0,0,-34,-30,-70,-101V159c0,0,0,-56,15,-85c0,0,9,-20,34,-34c0,0,24,-14,71,-14V0Z" 
id="f2_2e"
transform="scale(0.001,-0.001)" />

<path d="M268,648c0,0,-51,0,-91,43c0,0,-39,42,-39,105c0,0,0,88,66,160c0,0,44,48,127,78v-32c0,0,-77,-46,-104,-85c0,0,-21,-30,-21,-69c0,0,0,-24,9,-35c0,0,9,-11,20,-11c0,0,7,0,21,5c0,0,20,7,33,7c0,0,30,0,53,-23c0,0,24,-22,24,-56c0,0,0,-38,-23,-58c0,0,-33,-29,-75,-29Z" 
id="f2_52"
transform="scale(0.001,-0.001)" />

<path d="M177,647v35c0,0,77,46,105,86c0,0,19,28,19,68c0,0,0,23,-8,34c0,0,-9,11,-19,11c0,0,-9,0,-22,-5c0,0,-19,-7,-32,-7c0,0,-30,0,-53,23c0,0,-23,22,-23,56c0,0,0,37,23,58c0,0,31,28,75,28c0,0,50,0,90,-42c0,0,40,-42,40,-105c0,0,0,-88,-67,-160c0,0,-44,-48,-128,-80Z" 
id="f2_53"
transform="scale(0.001,-0.001)" />

<path d="M55,0V26c0,0,50,0,67,10c0,0,17,10,27,32c0,0,10,23,10,86V418c0,0,0,111,-6,144c0,0,-6,24,-17,33c0,0,-11,10,-30,10c0,0,-21,0,-51,-11L45,620l206,83h33V154c0,0,0,-64,9,-85c0,0,9,-22,27,-32c0,0,19,-11,67,-11V0ZM222,909c0,0,-32,0,-54,23c0,0,-22,22,-22,53c0,0,0,32,22,54c0,0,22,22,54,22c0,0,31,0,53,-22c0,0,22,-22,22,-54c0,0,0,-31,-22,-53c0,0,-22,-23,-53,-23Z" 
id="f2_25"
transform="scale(0.001,-0.001)" />

<path d="M312,-20c0,0,-62,0,-143,22c0,0,-25,8,-40,8c0,0,-18,0,-27,-19H77V234h25c0,0,21,-105,80,-158c0,0,59,-53,132,-53c0,0,51,0,84,31c0,0,32,30,32,72c0,0,0,52,-36,87c0,0,-36,35,-144,88c0,0,-109,54,-142,97c0,0,-34,43,-34,107c0,0,0,85,58,141c0,0,58,57,150,57c0,0,40,0,97,-17c0,0,38,-11,51,-11c0,0,12,0,19,5c0,0,7,5,15,23h25V470H464c0,0,-28,110,-72,149c0,0,-45,40,-113,40c0,0,-53,0,-85,-28c0,0,-32,-27,-32,-61c0,0,0,-41,24,-71c0,0,23,-31,94,-65L389,381c0,0,152,-74,152,-194c0,0,0,-94,-71,-151c0,0,-70,-56,-158,-56Z" 
id="f2_2f"
transform="scale(0.001,-0.001)" />

<path d="M23,0V26c0,0,47,0,66,10c0,0,19,11,28,33c0,0,10,22,10,85V416c0,0,0,112,-7,145c0,0,-5,25,-16,34c0,0,-11,10,-31,10c0,0,-21,0,-50,-11L12,620l207,83h32V557c0,0,75,75,88,86c0,0,34,29,72,44c0,0,39,16,77,16c0,0,64,0,110,-37c0,0,47,-38,62,-109c0,0,77,90,130,118c0,0,53,28,109,28c0,0,54,0,96,-28c0,0,42,-28,67,-91c0,0,16,-43,16,-136V154c0,0,0,-64,10,-88c0,0,8,-16,28,-28c0,0,20,-12,65,-12V0H844V26h14c0,0,44,0,69,18c0,0,17,12,24,38c0,0,3,13,3,72V448c0,0,0,83,-20,117c0,0,-29,48,-93,48c0,0,-39,0,-79,-20c0,0,-40,-19,-97,-73l-1,-8l2,-32V154c0,0,0,-70,8,-87c0,0,7,-17,29,-29c0,0,21,-12,73,-12V0H431V26c0,0,57,0,78,14c0,0,21,13,29,40c0,0,4,13,4,74V448c0,0,0,83,-25,120c0,0,-33,48,-91,48c0,0,-40,0,-80,-22c0,0,-61,-33,-95,-74V154c0,0,0,-67,10,-87c0,0,9,-20,27,-30c0,0,18,-11,74,-11V0Z" 
id="f2_29"
transform="scale(0.001,-0.001)" />

<path d="M406,32c0,0,72,0,119,60c0,0,47,59,47,205c0,0,0,181,-78,286c0,0,-53,71,-135,71c0,0,-40,0,-79,-23c0,0,-40,-24,-65,-83c0,0,-24,-58,-24,-151c0,0,0,-149,59,-257c0,0,59,-108,156,-108ZM374,-20c0,0,-154,0,-245,122c0,0,-77,104,-77,233c0,0,0,94,46,187c0,0,47,92,123,137c0,0,76,44,161,44c0,0,155,0,249,-118c0,0,80,-100,80,-231c0,0,0,-91,-44,-185C667,169,623,75,546,27c0,0,-77,-47,-172,-47Z" 
id="f2_2b"
transform="scale(0.001,-0.001)" />

<path d="M58,0V26c0,0,47,0,64,10c0,0,18,10,28,32c0,0,9,23,9,86V775c0,0,0,116,-5,142c0,0,-5,27,-17,37c0,0,-11,9,-29,9c0,0,-20,0,-49,-12L46,978l204,83h34V154c0,0,0,-64,9,-85c0,0,9,-21,29,-32c0,0,19,-11,72,-11V0Z" 
id="f2_28"
transform="scale(0.001,-0.001)" />

<path d="M286,72c0,0,57,0,149,75V407c0,0,-113,-45,-145,-64c0,0,-59,-32,-85,-68c0,0,-25,-36,-25,-78c0,0,0,-54,32,-89c0,0,32,-36,74,-36ZM217,-13c0,0,-71,0,-116,48c0,0,-46,48,-46,127c0,0,0,50,22,87c0,0,31,50,106,95c0,0,76,45,252,109v26c0,0,0,102,-32,140c0,0,-32,38,-94,38c0,0,-47,0,-74,-25c0,0,-28,-25,-28,-58l1,-43c0,0,0,-34,-17,-53c0,0,-18,-18,-47,-18c0,0,-28,0,-45,19c0,0,-18,19,-18,53c0,0,0,64,66,117c0,0,65,54,184,54c0,0,91,0,149,-31c0,0,44,-23,65,-72c0,0,13,-32,13,-131V238c0,0,0,-98,4,-120c0,0,4,-22,12,-29c0,0,9,-8,20,-8c0,0,12,0,21,5c0,0,16,10,61,55V99C676,99,592,-12,516,-12c0,0,-37,0,-58,24c0,0,-22,26,-23,86C435,98,330,17,303,5c0,0,-40,-18,-86,-18Z" 
id="f2_1x"
transform="scale(0.001,-0.001)" />

<path d="M255,-10c0,0,-35,0,-68,18c0,0,-32,19,-48,55c0,0,-16,35,-16,109V632H15v24c0,0,41,16,84,56c0,0,43,39,77,92c0,0,17,29,48,104h23V683H407V632H247V188c0,0,0,-66,19,-90c0,0,19,-23,49,-23c0,0,24,0,47,16c0,0,23,15,36,45h29c0,0,-26,-73,-74,-110c0,0,-47,-36,-98,-36Z" 
id="f2_2g"
transform="scale(0.001,-0.001)" />

<path d="M145,-328c0,0,-44,0,-73,25c0,0,-28,25,-28,58c0,0,0,31,21,50c0,0,20,19,56,19c0,0,25,0,67,-16c0,0,30,-11,38,-11c0,0,22,0,49,23c0,0,26,23,53,89L376,28L131,542c0,0,-11,24,-36,58c0,0,-19,27,-30,36c0,0,-18,12,-56,21v26H328V657H312c0,0,-33,0,-50,-15c0,0,-17,-14,-17,-36c0,0,0,-30,25,-81L437,179L589,557c0,0,12,31,12,62c0,0,0,13,-5,20c0,0,-6,8,-19,13c0,0,-12,5,-44,5v26H754V657c0,0,-27,-3,-42,-12c0,0,-15,-9,-33,-34c0,0,-7,-10,-25,-58L376,-128c0,0,-40,-99,-105,-150c0,0,-66,-50,-126,-50Z" 
id="f2_2l"
transform="scale(0.001,-0.001)" />

<path d="M191,-20c0,0,-34,0,-58,24c0,0,-24,24,-24,58c0,0,0,35,24,59c0,0,24,24,58,24c0,0,35,0,59,-24c0,0,24,-25,24,-59c0,0,0,-34,-24,-58c0,0,-25,-24,-59,-24Z" 
id="f2_i"
transform="scale(0.001,-0.001)" />

<path d="M292,-20c0,0,-124,0,-190,46c0,0,-46,33,-46,74c0,0,0,33,24,57c0,0,24,25,56,25c0,0,29,0,59,-12c0,0,30,-12,102,-63c0,0,46,-31,78,-43c0,0,23,-9,52,-9c0,0,62,0,104,45c0,0,43,44,43,107c0,0,0,131,-131,213c0,0,-131,82,-331,82c0,0,-20,0,-60,0l181,510H707L632,819H233L195,719c0,0,257,-10,396,-129c0,0,114,-97,114,-243c0,0,0,-93,-53,-182C652,165,599,76,503,28c0,0,-96,-48,-211,-48Z" 
id="f0_p"
transform="scale(0.001,-0.001)" />

<path d="M523,-21L176,782c0,0,-62,145,-84,171c0,0,-21,25,-80,32v27H497V985H480c0,0,-65,0,-89,-17c0,0,-17,-11,-17,-33c0,0,0,-13,6,-31c0,0,6,-19,40,-99L635,302L835,750c0,0,36,82,44,109c0,0,9,28,9,47c0,0,0,23,-12,40c0,0,-12,17,-35,26c0,0,-32,13,-85,13v27h331V985c0,0,-55,-9,-98,-59c0,0,-31,-38,-93,-176L547,-21Z" 
id="f0_1m"
transform="scale(0.001,-0.001)" />

<path d="M350,115c0,0,37,0,86,42V391c0,0,-90,-53,-134,-113c0,0,-29,-41,-29,-82c0,0,0,-34,24,-60c0,0,19,-21,53,-21ZM207,-9c0,0,-59,0,-99,38c0,0,-40,40,-40,99c0,0,0,80,69,143c0,0,69,64,299,170v70c0,0,0,79,-8,100c0,0,-9,20,-33,36c0,0,-23,15,-53,15c0,0,-49,0,-80,-22c0,0,-19,-13,-19,-31c0,0,0,-16,21,-39c0,0,28,-32,28,-62c0,0,0,-36,-27,-62c0,0,-27,-26,-71,-26c0,0,-47,0,-79,29c0,0,-32,28,-32,66c0,0,0,54,43,103c0,0,42,48,118,75c0,0,76,26,158,26c0,0,99,0,157,-42c0,0,58,-43,75,-92c0,0,11,-31,11,-144V170c0,0,0,-47,3,-60c0,0,4,-12,11,-18c0,0,8,-6,18,-6c0,0,19,0,39,28L738,96c0,0,-37,-56,-77,-81c0,0,-40,-24,-90,-24c0,0,-60,0,-94,27c0,0,-33,28,-41,85C436,103,309,-9,207,-9Z" 
id="f0_1x"
transform="scale(0.001,-0.001)" />

<path d="M52,0V26c0,0,44,5,62,29c0,0,13,16,13,97V546c0,0,0,79,-14,98c0,0,-15,20,-61,26v27H336V607c0,0,54,59,104,85c0,0,49,27,106,27c0,0,68,0,113,-38c0,0,44,-38,59,-94c0,0,12,-42,12,-163V152c0,0,0,-81,15,-101c0,0,14,-19,61,-25V0H452V26c0,0,40,6,57,33c0,0,12,19,12,93V462c0,0,0,86,-7,109c0,0,-6,22,-22,35c0,0,-16,12,-36,12c0,0,-64,0,-120,-92V152c0,0,0,-79,15,-100c0,0,15,-20,55,-26V0Z" 
id="f0_2a"
transform="scale(0.001,-0.001)" />

<path d="M140,538v33c0,0,87,37,126,96c0,0,39,60,39,122c0,0,0,12,-5,19c0,0,-5,6,-11,6c0,0,-4,0,-13,-5c0,0,-22,-13,-54,-13c0,0,-44,0,-76,34c0,0,-33,35,-33,81c0,0,0,49,38,86c0,0,37,37,90,37c0,0,64,0,110,-49c0,0,45,-50,45,-136c0,0,0,-107,-65,-190c0,0,-64,-82,-191,-121Z" 
id="f0_53"
transform="scale(0.001,-0.001)" />

<path d="M32,0V27H66c0,0,44,0,71,16c0,0,19,11,30,36c0,0,8,18,8,94V839c0,0,0,78,-8,97c0,0,-8,20,-33,34c0,0,-25,15,-68,15H32v27H561V985H528c0,0,-44,0,-71,-16c0,0,-19,-11,-30,-36c0,0,-9,-18,-9,-94V552H775V839c0,0,0,78,-8,97c0,0,-9,20,-34,34c0,0,-25,15,-68,15H632v27h529V985h-33c0,0,-45,0,-71,-16c0,0,-19,-11,-31,-36c0,0,-8,-18,-8,-94V173c0,0,0,-78,8,-97c0,0,9,-20,34,-34c0,0,26,-15,68,-15h33V0H632V27h33c0,0,45,0,71,16c0,0,19,11,31,36c0,0,8,18,8,94V487H418V173c0,0,0,-78,9,-97c0,0,9,-20,33,-34c0,0,25,-15,68,-15h33V0Z" 
id="f0_18"
transform="scale(0.001,-0.001)" />

<path d="M49,0V26c0,0,47,1,67,11c0,0,20,10,28,28c0,0,7,18,7,75l-1,484H49v73H150v87c0,0,0,107,79,179c0,0,78,71,212,71c0,0,92,0,136,-34c0,0,45,-34,45,-76c0,0,0,-34,-28,-58c0,0,-28,-25,-73,-25c0,0,-39,0,-62,20c0,0,-22,20,-22,45c0,0,0,6,4,27c0,0,3,13,3,24c0,0,0,16,-9,23c0,0,-12,11,-29,11c0,0,-21,0,-36,-17c0,0,-15,-18,-15,-58l1,-130V697H460V624H356l1,-484c0,0,0,-70,15,-88c0,0,22,-26,81,-26c2,0,5,0,7,0V0Z" 
id="f0_22"
transform="scale(0.001,-0.001)" />

<path d="M911,-16L244,799V175c0,0,0,-93,21,-116c0,0,28,-32,86,-32h36V0H36V27H71c0,0,65,0,92,39c0,0,16,24,16,109V879c0,0,-44,52,-67,68c0,0,-23,17,-67,31c0,0,-21,7,-64,7v27H253L873,253V837c0,0,0,93,-21,116c0,0,-28,32,-87,32H730v27h351V985h-36c0,0,-64,0,-91,-39c0,0,-16,-24,-16,-109V-16Z" 
id="f2_1e"
transform="scale(0.001,-0.001)" />

<path d="M292,-20c0,0,-57,0,-100,33c0,0,-42,33,-58,85c0,0,-17,52,-17,148V551c0,0,0,49,-10,68c0,0,-11,18,-31,29c0,0,-19,9,-68,9c-2,0,-4,0,-6,0v26H242V226c0,0,0,-95,33,-125c0,0,33,-30,80,-30c0,0,32,0,73,21c0,0,40,20,96,76V555c0,0,0,59,-21,80c0,0,-22,21,-89,22v26H647V269c0,0,0,-119,6,-145c0,0,6,-27,18,-37c0,0,12,-11,29,-11c0,0,23,0,52,13L763,63L558,-20H524V124C524,124,436,29,390,4c0,0,-47,-24,-98,-24Z" 
id="f2_2h"
transform="scale(0.001,-0.001)" />

<path d="M545,30c0,0,143,0,236,111c0,0,93,111,93,351c0,0,0,259,-103,386c0,0,-82,102,-226,102c0,0,-136,0,-218,-101C327,879,225,754,225,512c0,0,0,-247,106,-380c0,0,81,-102,214,-102Zm2,-51c0,0,-209,0,-351,147C196,126,54,274,54,510c0,0,0,240,164,393c0,0,142,131,341,131c0,0,197,0,341,-149c0,0,145,-149,145,-373c0,0,0,-230,-146,-382C899,130,754,-21,547,-21Z" 
id="f2_1f"
transform="scale(0.001,-0.001)" />

<path d="M397,34c0,0,67,0,126,75c0,0,58,74,58,216c0,0,0,131,-58,201c0,0,-59,70,-133,70c0,0,-39,0,-79,-20c0,0,-29,-14,-75,-59V109c0,0,37,-37,78,-56c0,0,40,-19,83,-19ZM358,-20c0,0,-59,0,-121,21c0,0,-61,22,-126,65V773c0,0,0,117,-5,144c0,0,-6,27,-18,37c0,0,-12,9,-29,9c0,0,-21,0,-53,-12l-9,27l205,83h34V564c0,0,98,139,213,139c0,0,105,0,183,-90c0,0,78,-90,78,-245c0,0,0,-182,-121,-293c0,0,-103,-95,-231,-95Z" 
id="f2_1y"
transform="scale(0.001,-0.001)" />

<path d="M376,-20L133,556c0,0,-17,41,-31,58c0,0,-15,18,-39,30c0,0,-12,7,-50,13v26H335V657H314c0,0,-29,0,-44,-14c0,0,-16,-14,-15,-38c0,0,-1,-26,15,-62L429,165L588,557c0,0,17,42,17,64c0,0,0,10,-6,17c0,0,-8,11,-21,15c0,0,-13,4,-52,4v26H750V657c0,0,-39,-3,-54,-16c0,0,-26,-23,-47,-76L409,-20Z" 
id="f2_2i"
transform="scale(0.001,-0.001)" />

<path d="M399,62c0,0,68,0,131,68V481c0,0,-5,51,-27,93c0,0,-22,42,-59,63c0,0,-37,21,-72,21c0,0,-65,0,-117,-59c0,0,-67,-77,-67,-226c0,0,0,-151,65,-231c0,0,66,-80,146,-80ZM330,-20c0,0,-112,0,-196,93c0,0,-83,94,-83,240c0,0,0,147,92,269c0,0,93,122,238,122c0,0,90,0,149,-58V773c0,0,0,117,-6,144c0,0,-5,27,-17,37c0,0,-12,9,-30,9c0,0,-20,0,-52,-12l-9,27l204,83h33V270c0,0,0,-120,6,-146c0,0,5,-27,18,-37c0,0,12,-11,28,-11c0,0,21,0,54,13l9,-26L564,-20H530V78C530,78,480,25,432,2c0,0,-47,-22,-102,-22Z" 
id="f2_20"
transform="scale(0.001,-0.001)" />

<path d="M0,214v74H784V214ZM0,494v72H784V494Z" 
id="f1_x"
transform="scale(0.001,-0.001)" />

<path d="M411,-239c0,0,134,0,198,48c0,0,64,47,64,100c0,0,0,39,-38,55c0,0,-39,16,-154,19c0,0,-167,5,-258,17c0,0,-35,-37,-53,-70c0,0,-17,-32,-17,-60c0,0,0,-36,43,-62c0,0,74,-47,215,-47ZM380,257c0,0,56,0,93,43c0,0,36,42,36,133c0,0,0,118,-51,185c0,0,-38,49,-98,49c0,0,-55,0,-92,-44c0,0,-37,-44,-37,-135c0,0,0,-117,50,-182c0,0,39,-49,99,-49ZM345,-328c0,0,-144,0,-243,64c0,0,-56,38,-56,78c0,0,0,18,8,36c0,0,13,27,52,76c0,0,5,7,76,80c0,0,-39,23,-55,41c0,0,-16,19,-16,42c0,0,0,26,22,61c0,0,21,35,98,100c0,0,-63,30,-97,85c0,0,-33,55,-33,121c0,0,0,101,76,174c0,0,77,73,196,73c0,0,98,0,170,-48H688c0,0,32,0,37,-2c0,0,6,-2,8,-6c0,0,4,-7,4,-24c0,0,0,-20,-4,-27c0,0,-2,-4,-7,-6c0,0,-6,-2,-38,-2H599c0,0,41,-54,41,-137c0,0,0,-96,-73,-163c0,0,-73,-68,-196,-68c0,0,-51,0,-104,15c0,0,-33,-28,-44,-49c0,0,-12,-22,-12,-37c0,0,0,-12,13,-24c0,0,12,-12,48,-17c0,0,21,-4,104,-6c0,0,154,-4,199,-11c0,0,70,-10,111,-51c0,0,42,-41,42,-102c0,0,0,-84,-79,-158c0,0,-117,-108,-304,-108Z" 
id="f2_23"
transform="scale(0.001,-0.001)" />

<path d="M398,24c0,0,74,0,120,58c0,0,61,76,61,214c0,0,0,156,-69,240c0,0,-47,59,-113,59c0,0,-36,0,-71,-18c0,0,-27,-14,-88,-81V242c0,0,0,-83,6,-109c0,0,11,-43,51,-76c0,0,41,-33,103,-33ZM-4,-326v27H15c5,0,42,0,69,16c0,0,14,8,22,26c0,0,7,19,7,94V481c0,0,0,67,-6,85c0,0,-5,18,-18,27c0,0,-13,9,-36,9c0,0,-18,0,-45,-10L0,615l209,85h29V540c0,0,53,91,106,127c0,0,53,36,112,36c0,0,103,0,172,-80c0,0,84,-99,84,-257c0,0,0,-176,-102,-292c0,0,-83,-94,-210,-94c0,0,-55,0,-95,16c0,0,-30,10,-67,44V-167c0,0,0,-71,8,-90c0,0,9,-20,30,-31c0,0,21,-11,77,-11v-27Z" 
id="f2_2c"
transform="scale(0.001,-0.001)" />

<path d="M548,-21c0,0,-251,0,-389,185C159,164,56,303,56,490c0,0,0,152,68,278c0,0,67,127,186,197c0,0,119,69,260,69c0,0,109,0,216,-53c0,0,31,-17,44,-17c0,0,20,0,35,14c0,0,20,21,28,56h26L943,690H919c0,0,-46,155,-131,224c0,0,-86,68,-206,68c0,0,-100,0,-181,-51c0,0,-81,-52,-128,-163c0,0,-46,-112,-46,-279c0,0,0,-137,44,-238c0,0,44,-101,132,-154c0,0,88,-54,201,-54c0,0,99,0,174,42c0,0,75,42,165,167l23,-14C966,238,890,103,789,40c0,0,-102,-61,-241,-61Z" 
id="f2_13"
transform="scale(0.001,-0.001)" />

<path d="M82,-253v33c0,0,77,25,119,78c0,0,42,54,42,114c0,0,0,14,-7,23c0,0,-5,6,-11,6c0,0,-8,0,-35,-14c0,0,-14,-7,-28,-7c0,0,-37,0,-58,21C104,1,82,23,82,61c0,0,0,36,28,62c0,0,28,27,68,27c0,0,49,0,88,-43c0,0,38,-43,38,-113c0,0,0,-77,-53,-143c0,0,-53,-66,-169,-104Z" 
id="f2_g"
transform="scale(0.001,-0.001)" />

<path d="M21,0V26H35c0,0,53,0,71,27c0,0,18,27,18,101V408c0,0,0,123,-5,150c0,0,-6,27,-17,37c0,0,-12,10,-31,10c0,0,-21,0,-50,-11L10,620l206,83h32V558c0,0,120,145,229,145c0,0,56,0,96,-28c0,0,40,-28,64,-92c0,0,16,-45,16,-137V154c0,0,0,-65,11,-88c0,0,8,-19,26,-29c0,0,18,-11,68,-11V0H419V26h14c0,0,47,0,66,15c0,0,20,15,27,43c0,0,3,11,3,70V434c0,0,0,93,-24,135c0,0,-24,42,-81,42c0,0,-88,0,-176,-97V154c0,0,0,-69,9,-86c0,0,10,-21,28,-31c0,0,19,-11,75,-11V0Z" 
id="f2_2a"
transform="scale(0.001,-0.001)" />

<path d="M63,0V26H93c0,0,30,0,54,15c0,0,25,15,34,41c0,0,10,25,10,99V630H58v53H191v45c0,0,0,102,33,173c0,0,32,71,100,114c0,0,68,44,152,44c0,0,79,0,145,-51c0,0,43,-33,43,-75c0,0,0,-22,-19,-42c0,0,-20,-20,-42,-20c0,0,-17,0,-36,12c0,0,-19,13,-47,53c0,0,-28,41,-51,55c0,0,-23,14,-51,14c0,0,-35,0,-58,-18c0,0,-24,-18,-35,-57c0,0,-10,-38,-10,-197V683H491V630H315V181c0,0,0,-96,21,-122c0,0,27,-33,73,-33h62V0Z" 
id="f2_22"
transform="scale(0.001,-0.001)" />

<path d="M2,-20L369,1061h59L62,-20Z" 
id="f2_j"
transform="scale(0.001,-0.001)" />

<path d="M30,0V27H40c0,0,1,0,2,0c6,0,36,1,62,11c0,0,29,12,44,31c0,0,15,20,23,55c0,0,2,8,2,76V841c0,0,0,77,-9,96c0,0,-8,19,-33,33c0,0,-26,15,-69,15H30v27H445L729,346l274,666h412V985h-33c0,0,-45,0,-72,-16c0,0,-19,-10,-30,-35c0,0,-8,-18,-8,-93V173c0,0,0,-78,8,-97c0,0,8,-20,34,-34c0,0,25,-15,68,-15h33V0H886V27h33c0,0,44,0,71,16c0,0,19,11,30,36c0,0,8,18,8,94V923L641,0H623L229,916V203c0,0,0,-74,4,-91c0,0,10,-38,42,-61c0,0,33,-24,102,-24V0Z" 
id="f0_1d"
transform="scale(0.001,-0.001)" />

<path d="M397,69c0,0,65,0,123,103V539c0,0,-55,105,-134,105c0,0,-28,0,-46,-15c0,0,-27,-23,-45,-81c0,0,-17,-58,-17,-178c0,0,0,-132,19,-195c0,0,19,-63,53,-91c0,0,17,-15,47,-15ZM332,-20c0,0,-133,0,-211,119c0,0,-62,97,-62,238c0,0,0,112,38,202c0,0,39,89,107,134c0,0,67,46,145,46c0,0,50,0,88,-20c0,0,39,-19,83,-67V842c0,0,0,80,-7,96c0,0,-8,22,-26,32c0,0,-18,11,-68,11v31H729V209c0,0,0,-81,5,-96c0,0,6,-25,22,-36c0,0,17,-12,58,-15V37L520,-20V90C520,90,467,26,426,3c0,0,-42,-23,-94,-23Z" 
id="f0_20"
transform="scale(0.001,-0.001)" />

<path d="M32,0V26c0,0,46,2,69,27c0,0,14,18,14,92V867c0,0,0,74,-17,94c0,0,-17,21,-66,24v27H325V145c0,0,0,-74,17,-95c0,0,17,-21,68,-24V0Z" 
id="f0_28"
transform="scale(0.001,-0.001)" />

<path d="M393,-277c0,0,104,0,164,28c0,0,59,27,59,77c0,0,0,19,-11,32c0,0,-20,22,-61,30c0,0,-41,8,-218,8c0,0,-76,0,-101,-12c0,0,-42,-23,-42,-63c0,0,0,-38,44,-69c0,0,44,-31,166,-31ZM366,253c0,0,45,0,75,41c0,0,30,41,30,160c0,0,0,134,-33,183c0,0,-24,36,-68,36c0,0,-43,0,-73,-44c0,0,-30,-44,-30,-181c0,0,0,-112,29,-153c0,0,30,-42,70,-42Zm8,-581c0,0,-94,0,-171,18c0,0,-78,18,-112,51c0,0,-33,32,-33,68c0,0,0,34,25,61c0,0,26,28,96,46c0,0,-97,48,-97,132c0,0,0,51,40,100c0,0,39,48,125,84c0,0,-100,36,-145,96c0,0,-44,60,-44,138c0,0,0,103,83,178c0,0,84,75,215,75c0,0,70,0,144,-30H734V607H601c0,0,37,-36,51,-66c0,0,18,-40,18,-85c0,0,0,-74,-42,-129c0,0,-41,-55,-112,-86c0,0,-72,-31,-127,-31c0,0,-5,0,-90,4c0,0,-33,0,-56,-22c0,0,-23,-22,-23,-52c0,0,0,-27,21,-44c0,0,20,-17,66,-17l130,1c0,0,157,0,216,-34c0,0,84,-47,84,-146c0,0,0,-64,-39,-115c0,0,-38,-52,-102,-77c0,0,-96,-36,-222,-36Z" 
id="f0_23"
transform="scale(0.001,-0.001)" />

<path d="M367,-20L133,520c0,0,-43,98,-67,124c0,0,-17,19,-50,26v27H386V670c0,0,-35,0,-48,-13c0,0,-18,-16,-18,-39c0,0,0,-27,33,-103L468,253l91,226c0,0,40,97,40,137c0,0,0,23,-17,38c0,0,-17,14,-59,16v27H750V670c0,0,-33,-5,-54,-25c0,0,-20,-20,-62,-118L402,-20Z" 
id="f0_2i"
transform="scale(0.001,-0.001)" />

<path d="M254,-18c0,0,-51,0,-88,36c0,0,-36,36,-36,87c0,0,0,52,36,88c0,0,37,37,88,37c0,0,53,0,89,-37c0,0,36,-36,36,-88c0,0,0,-51,-36,-87c0,0,-37,-36,-89,-36Zm2,488c0,0,-52,0,-88,36c0,0,-36,37,-36,88c0,0,0,51,36,88c0,0,36,36,88,36c0,0,51,0,87,-36c0,0,36,-37,36,-88c0,0,0,-51,-36,-88c0,0,-36,-36,-87,-36Z" 
id="f0_u"
transform="scale(0.001,-0.001)" />

<path d="M474,-326c0,0,-112,57,-188,133c0,0,-107,108,-165,254c0,0,-58,147,-58,305c0,0,0,231,114,421c0,0,114,191,297,273v-31c0,0,-92,-51,-151,-139c0,0,-59,-88,-88,-223c0,0,-30,-135,-30,-281c0,0,0,-160,25,-290c0,0,20,-102,47,-164c0,0,28,-62,75,-120c0,0,47,-57,122,-109v-29Z" 
id="f2_c"
transform="scale(0.001,-0.001)" />

<path d="M35,-326v29c0,0,92,51,151,139c0,0,60,87,89,221c0,0,28,136,28,282c0,0,0,159,-24,290c0,0,-19,103,-47,165c0,0,-28,62,-75,119c0,0,-46,57,-122,110v31c0,0,113,-56,188,-132c0,0,107,-109,165,-255c0,0,58,-147,58,-306c0,0,0,-231,-114,-420c0,0,-113,-191,-297,-273Z" 
id="f2_d"
transform="scale(0.001,-0.001)" />

<path d="M379,29c0,0,41,0,84,37c0,0,43,36,65,121c0,0,34,128,34,362c0,0,0,173,-35,288c0,0,-27,86,-69,122c0,0,-31,25,-74,25c0,0,-51,0,-90,-46c0,0,-54,-62,-73,-195c0,0,-20,-132,-20,-261c0,0,0,-209,52,-341c0,0,42,-112,126,-112Zm-2,-46c0,0,-145,0,-241,170c0,0,-81,144,-81,347c0,0,0,173,52,298c0,0,52,125,139,186c0,0,67,49,139,49c0,0,116,0,208,-119c0,0,116,-147,116,-398c0,0,0,-176,-51,-299C658,217,608,94,529,38c0,0,-79,-55,-152,-55Z" 
id="f2_k"
transform="scale(0.001,-0.001)" />

<path d="M678,393L506,802L330,393ZM11,0V27c0,0,63,12,82,30c0,0,38,35,84,145l356,832h27L912,193c0,0,43,-101,77,-132c0,0,35,-30,97,-34V0H687V27c0,0,60,3,82,21c0,0,21,17,21,41c0,0,0,33,-30,104L700,338H307L239,179c0,0,-26,-59,-26,-88c0,0,0,-23,22,-41c0,0,22,-17,95,-23V0Z" 
id="f2_11"
transform="scale(0.001,-0.001)" />

<path d="M485,53c0,0,135,0,206,61c0,0,71,60,71,150c0,0,0,59,-32,114c0,0,-33,54,-105,85c0,0,-72,32,-179,32c0,0,-46,0,-79,-2c0,0,-33,-1,-53,-5V73c0,0,86,-20,171,-20ZM455,547c0,0,109,0,164,23c0,0,55,24,84,72c0,0,29,49,29,106c0,0,0,89,-72,151c0,0,-73,63,-212,63c0,0,-74,0,-134,-16V557c0,0,27,-5,63,-8c0,0,35,-2,78,-2ZM24,0V27H63c0,0,63,0,91,41c0,0,17,26,17,111V833c0,0,0,94,-22,119c0,0,-29,33,-86,33H24v27H462c0,0,122,0,196,-18c0,0,112,-27,171,-95c0,0,59,-68,59,-157c0,0,0,-76,-46,-136c0,0,-47,-60,-137,-89c0,0,105,-23,157,-72c0,0,73,-69,73,-168c0,0,0,-75,-48,-145C887,132,839,63,756,32C756,32,673,0,502,0Z" 
id="f2_12"
transform="scale(0.001,-0.001)" />

<path d="M25,0V26c0,0,27,4,47,19c0,0,29,22,96,111L311,346L182,535c0,0,-55,81,-86,102c0,0,-30,20,-75,20v26H341V657c0,0,-30,0,-42,-10c0,0,-13,-11,-13,-28c0,0,0,-19,27,-56c0,0,8,-12,25,-37l48,-78l56,77c0,0,55,74,55,94c0,0,0,16,0,27c0,0,0,11,0,11v26H674V657c0,0,-37,-2,-64,-20c0,0,-37,-26,-100,-111L416,402L587,156c0,0,63,-91,89,-109c0,0,27,-18,70,-21V0H423V26c0,0,34,0,53,15c0,0,14,11,14,28c0,0,0,17,-48,87L341,302L232,157c0,0,-50,-69,-50,-82c0,0,0,-18,17,-32c0,0,17,-15,50,-17V0Z" 
id="f2_2k"
transform="scale(0.001,-0.001)" />

<path d="M0,356v74H784V356Z" 
id="f1_h"
transform="scale(0.001,-0.001)" />

<path d="M719,62L422,783L93,62ZM0,0L469,1034L896,0Z" 
id="f1_14"
transform="scale(0.001,-0.001)" />

<path d="M25,0V27H61c0,0,63,0,91,37c0,0,18,24,18,115V833c0,0,0,77,-10,102c0,0,-7,18,-30,32c0,0,-33,18,-69,18H25v27H456V985H421c0,0,-35,0,-67,-18c0,0,-23,-11,-32,-35c0,0,-9,-24,-9,-99V523c0,0,15,15,102,95c0,0,222,203,268,271c0,0,20,30,20,52c0,0,0,18,-15,31c0,0,-16,13,-53,13H611v27H983V985c0,0,-33,-1,-60,-9c0,0,-26,-9,-65,-32c0,0,-39,-24,-96,-76c0,0,-16,-15,-151,-153L456,561L829,190c0,0,92,-92,157,-125c0,0,65,-33,130,-38V0H634V27c0,0,43,0,62,15c0,0,19,15,19,32c0,0,0,18,-7,33c0,0,-7,14,-46,53L313,506V179c0,0,0,-77,10,-102c0,0,7,-18,31,-32c0,0,32,-18,67,-18h35V0Z" 
id="f2_1b"
transform="scale(0.001,-0.001)" />

<path d="M553,-21L174,849c0,0,-29,67,-41,82c0,0,-19,24,-46,37c0,0,-27,13,-73,17v27H427V985c0,0,-70,-7,-91,-24c0,0,-21,-17,-21,-44c0,0,0,-38,34,-117L607,207L846,793c0,0,35,86,35,120c0,0,0,22,-22,41c0,0,-21,20,-73,28c0,0,-4,1,-13,3v27h311V985c0,0,-53,-10,-81,-35c0,0,-39,-37,-70,-112L581,-21Z" 
id="f2_1m"
transform="scale(0.001,-0.001)" />

<path d="M415,27c0,0,35,0,62,40c0,0,27,40,27,163c0,0,0,206,-50,284c0,0,-33,51,-88,51c0,0,-30,0,-78,-24c0,0,-5,-104,-5,-151c0,0,0,-103,19,-200c0,0,20,-96,55,-135c0,0,25,-28,58,-28ZM397,-20c0,0,-93,0,-172,51c0,0,-79,51,-124,149c0,0,-44,99,-44,214c0,0,0,170,81,317c0,0,82,146,233,233c0,0,150,87,347,89v-21c0,0,-135,-34,-217,-88c0,0,-82,-54,-129,-132c0,0,-48,-77,-74,-191c0,0,33,23,55,29c0,0,48,15,98,15c0,0,113,0,189,-82c0,0,76,-83,76,-225c0,0,0,-100,-41,-184C675,154,634,71,558,25c0,0,-75,-45,-161,-45Z" 
id="f0_q"
transform="scale(0.001,-0.001)" />

<path d="M197,0V27c0,0,71,2,92,13c0,0,21,10,29,29c0,0,9,18,9,109V725c0,0,0,110,-8,141c0,0,-5,24,-19,35c0,0,-14,11,-33,11c0,0,-28,0,-77,-23l-11,23l246,121h25V178c0,0,0,-85,7,-106c0,0,7,-21,29,-32c0,0,23,-11,91,-13V0Z" 
id="f2_l"
transform="scale(0.001,-0.001)" />

<path d="M316,27c0,0,57,0,105,53c0,0,65,72,125,295c0,0,-40,153,-104,214c0,0,-63,61,-129,61c0,0,-73,0,-122,-80c0,0,-48,-80,-48,-255c0,0,0,-104,20,-163c0,0,21,-60,64,-92c0,0,42,-33,89,-33Zm4,-49c0,0,-165,0,-243,108C77,86,0,196,0,336c0,0,0,164,91,265c0,0,91,102,213,102c0,0,85,0,150,-52c0,0,65,-51,118,-192l65,224H760L662,344c0,0,-9,-32,-30,-100c0,0,29,-115,43,-137c0,0,27,-41,68,-41c0,0,30,0,55,24c0,0,26,25,34,77h30C862,167,852,60,817,19c0,0,-35,-40,-81,-40c0,0,-42,0,-77,34c0,0,-35,36,-62,154c0,0,-33,-65,-65,-99C532,68,488,22,437,0c0,0,-52,-22,-117,-22Z" 
id="f1_1x"
transform="scale(0.001,-0.001)" />

<path d="M26,0V27H62c0,0,63,0,91,37c0,0,18,24,18,115V833c0,0,0,77,-10,102c0,0,-7,18,-30,32c0,0,-33,18,-69,18H26v27H459V985H422c0,0,-35,0,-67,-17c0,0,-23,-12,-32,-36c0,0,-9,-25,-9,-99V542H784V833c0,0,0,77,-10,102c0,0,-8,18,-31,32c0,0,-33,18,-68,18H639v27h432V985h-36c0,0,-36,0,-68,-17c0,0,-24,-12,-32,-36c0,0,-9,-25,-9,-99V179c0,0,0,-77,10,-102c0,0,7,-18,31,-32c0,0,32,-18,68,-18h36V0H639V27h36c0,0,62,0,90,37c0,0,19,24,19,115V487H314V179c0,0,0,-77,9,-102c0,0,8,-18,32,-32c0,0,32,-18,67,-18h37V0Z" 
id="f2_18"
transform="scale(0.001,-0.001)" />

<path d="M271,-20L546,815H337c0,0,-123,0,-185,-33c0,0,-43,-22,-71,-84H52l73,314H729L388,-20Z" 
id="f0_r"
transform="scale(0.001,-0.001)" />

<path d="M751,0L0,371v39L751,783V702L122,392L751,80V0Z" 
id="f1_w"
transform="scale(0.001,-0.001)" />

<path d="M381,27c0,0,54,0,91,40c0,0,38,40,38,110c0,0,0,144,-194,276c0,0,-23,-21,-33,-38c0,0,-15,-26,-27,-76c0,0,-13,-50,-13,-105c0,0,0,-70,18,-117c0,0,18,-48,51,-69c0,0,34,-21,69,-21Zm83,582c0,0,27,37,40,83c0,0,14,47,14,102c0,0,0,97,-42,149c0,0,-31,40,-86,40c0,0,-50,0,-84,-37c0,0,-35,-36,-35,-90c0,0,0,-54,39,-113c0,0,39,-58,154,-134ZM368,-20c0,0,-150,0,-232,73c0,0,-82,74,-82,181c0,0,0,81,47,142c0,0,48,62,159,112c0,0,-121,92,-155,150c0,0,-34,58,-34,135c0,0,0,101,86,178c0,0,86,78,236,78c0,0,144,0,222,-69c0,0,78,-68,78,-163c0,0,0,-72,-43,-127c0,0,-42,-54,-130,-98c0,0,107,-79,149,-146c0,0,41,-68,41,-155c0,0,0,-122,-92,-207c0,0,-92,-84,-250,-84Z" 
id="f0_s"
transform="scale(0.001,-0.001)" />

<path d="M38,0V27H74c0,0,63,0,91,37c0,0,18,24,18,115V833c0,0,0,77,-10,102c0,0,-7,18,-30,32c0,0,-33,18,-69,18H38v27H470V985H434c0,0,-62,0,-90,-37c0,0,-18,-24,-18,-115V179c0,0,0,-77,9,-102c0,0,8,-18,31,-32c0,0,32,-18,68,-18h36V0Z" 
id="f2_19"
transform="scale(0.001,-0.001)" />

<path d="M28,140v64L719,504L28,806v68L830,524V488L28,140Z" 
id="f2_y"
transform="scale(0.001,-0.001)" />

<path d="M833,140L30,491v36L833,875V810L143,510L833,207V140Z" 
id="f2_w"
transform="scale(0.001,-0.001)" />

<path d="M33,0V27c0,0,264,241,371,393c0,0,108,152,108,278c0,0,0,96,-59,158c0,0,-59,62,-141,62c0,0,-75,0,-134,-43c0,0,-59,-44,-88,-128H63c0,0,18,138,95,212c0,0,77,74,193,74c0,0,123,0,205,-80c0,0,83,-79,83,-186c0,0,0,-77,-36,-154c0,0,-55,-121,-179,-256C424,357,238,154,191,112H455c0,0,81,0,114,6c0,0,32,6,58,25c0,0,27,18,46,52h27L630,0Z" 
id="f2_m"
transform="scale(0.001,-0.001)" />

<path d="M567,-17c0,0,-83,0,-152,21c0,0,-70,21,-145,71L237,0H126L52,404l140,33c0,0,49,-123,153,-205c0,0,104,-82,228,-82c0,0,56,0,93,14c0,0,37,14,56,39c0,0,18,25,18,52c0,0,0,45,-43,77c0,0,-44,32,-154,63L369,446c0,0,-40,11,-107,42c0,0,-68,31,-104,64c0,0,-36,34,-60,86c0,0,-24,53,-24,111c0,0,0,83,46,153c0,0,46,69,138,113c0,0,92,43,204,43c0,0,135,0,244,-70l29,52H842L932,692L792,652c0,0,-69,125,-157,183c0,0,-88,58,-187,58c0,0,-64,0,-101,-26c0,0,-37,-27,-37,-59c0,0,0,-36,34,-67c0,0,32,-32,121,-56L665,626c0,0,166,-47,237,-126c0,0,70,-80,70,-186c0,0,0,-135,-107,-229C865,85,745,-17,567,-17Z" 
id="f3_1j"
transform="scale(0.001,-0.001)" />

<path d="M611,148c0,0,117,0,187,88c0,0,83,105,83,281c0,0,0,124,-35,208c0,0,-36,84,-96,126c0,0,-61,42,-132,42c0,0,-118,0,-189,-89c0,0,-88,-112,-88,-289c0,0,0,-176,82,-279c0,0,71,-88,188,-88ZM608,-17c0,0,-231,0,-378,126C230,109,53,262,53,518c0,0,0,237,155,389c0,0,156,151,407,151c0,0,248,0,401,-151c0,0,153,-150,153,-386c0,0,0,-159,-70,-282c0,0,-70,-123,-193,-190c0,0,-124,-66,-298,-66Z" 
id="f3_1f"
transform="scale(0.001,-0.001)" />

<path d="M63,0V144h49c0,0,31,0,46,8c0,0,16,8,23,22c0,0,7,14,7,48V812c0,0,0,37,-7,53c0,0,-7,17,-20,24c0,0,-13,8,-44,8H63v143H570V897H526c0,0,-37,0,-47,-4c0,0,-18,-8,-26,-23c0,0,-8,-15,-8,-49V226c0,0,0,-36,3,-44c0,0,4,-8,14,-13c0,0,10,-5,40,-5c0,0,100,0,161,26c0,0,61,27,110,84c0,0,49,58,84,158L994,385L857,0Z" 
id="f3_1c"
transform="scale(0.001,-0.001)" />

<path d="M561,-17c0,0,-97,0,-173,29c0,0,-76,29,-133,84c0,0,-57,55,-80,116c0,0,-22,61,-22,181V794c0,0,0,56,-6,72c0,0,-6,16,-20,23c0,0,-13,8,-52,8H27v143H536V897H486c0,0,-35,0,-49,-9c0,0,-15,-8,-22,-23c0,0,-6,-15,-6,-62V424c0,0,0,-106,21,-158c0,0,21,-52,64,-79c0,0,43,-28,105,-28c0,0,61,0,109,30c0,0,48,30,68,76c0,0,21,46,21,152V834c0,0,0,26,-7,37c0,0,-9,15,-24,21c0,0,-10,5,-53,5H673v143h429V897h-34c0,0,-49,0,-61,-6c0,0,-18,-9,-26,-26c0,0,-6,-12,-6,-62V393c0,0,0,-114,-33,-191C942,202,896,98,797,40c0,0,-100,-57,-236,-57Z" 
id="f3_1l"
transform="scale(0.001,-0.001)" />

<path d="M280,0V144h30c0,0,51,0,66,6c0,0,14,6,21,22c0,0,8,17,8,67V851c0,0,0,26,-6,33c0,0,-6,7,-26,7c0,0,-38,0,-86,-29c0,0,-48,-29,-85,-82c0,0,-15,-21,-63,-118L2,711l128,365h99l10,-36H826l13,36h99L1067,711L928,662c0,0,-46,91,-66,119c0,0,-40,55,-92,86c0,0,-38,24,-77,24c0,0,-18,0,-24,-9c0,0,-7,-8,-7,-39V244c0,0,0,-53,4,-66c0,0,3,-13,12,-21c0,0,9,-8,25,-11c0,0,16,-2,84,-2V0Z" 
id="f3_1k"
transform="scale(0.001,-0.001)" />

<path d="M52,0V144H93c0,0,44,0,58,6c0,0,13,6,20,20c0,0,6,14,6,55V803c0,0,0,49,-6,64c0,0,-7,15,-22,24c0,0,-10,6,-51,6H52v143H559V897H513c0,0,-40,0,-53,-7c0,0,-13,-8,-20,-23c0,0,-6,-15,-6,-58V233c0,0,0,-47,5,-61c0,0,6,-13,18,-19c0,0,16,-9,47,-9h55V0Z" 
id="f3_19"
transform="scale(0.001,-0.001)" />

<path d="M59,0V144h44c0,0,37,0,51,6c0,0,14,6,22,22c0,0,8,16,8,47V816c0,0,0,34,-8,50c0,0,-7,16,-20,24c0,0,-12,7,-42,7H59v143H480L786,433V805c0,0,0,48,-5,60c0,0,-8,17,-20,25c0,0,-13,7,-49,7H661v143h428V897h-47c0,0,-36,0,-51,-9c0,0,-15,-8,-21,-22c0,0,-6,-14,-6,-61V0H750L364,767V230c0,0,0,-46,5,-59c0,0,6,-12,20,-20c0,0,15,-7,50,-7h50V0Z" 
id="f3_1e"
transform="scale(0.001,-0.001)" />

<path d="M495,160c0,0,61,0,122,27c0,0,-17,28,-29,62L548,388c0,0,-22,73,-35,102c0,0,-13,29,-26,45c0,0,-13,16,-34,32c0,0,-73,-37,-110,-92c0,0,-37,-56,-37,-119c0,0,0,-82,56,-139c0,0,55,-57,133,-57ZM453,713c0,0,19,0,38,12c0,0,20,12,28,33c0,0,12,26,12,59c0,0,0,52,-22,78c0,0,-23,25,-54,25c0,0,-34,0,-56,-27c0,0,-22,-27,-22,-80c0,0,0,-46,23,-73c0,0,22,-27,53,-27ZM434,-17c0,0,-169,0,-274,96C160,79,55,176,55,316c0,0,0,117,67,204c0,0,52,68,177,138c0,0,-52,33,-79,77c0,0,-26,45,-26,99c0,0,0,93,72,159c0,0,73,65,190,65c0,0,120,0,187,-60c0,0,67,-60,67,-151c0,0,0,-76,-38,-130c0,0,-30,-42,-90,-72c0,0,41,-19,65,-40c0,0,33,-29,67,-79c0,0,21,-33,84,-160c0,0,43,98,43,141c0,0,0,12,-7,21c0,0,-8,9,-20,11c0,0,-9,3,-59,3V684h366V542h-45c0,0,-38,0,-53,-8c0,0,-15,-7,-25,-25c0,0,-6,-10,-24,-83c0,0,-13,-47,-40,-105c0,0,-27,-58,-60,-105c0,0,33,-50,55,-65c0,0,22,-16,45,-16c0,0,26,0,44,17c0,0,17,18,17,46c0,0,0,26,-22,64c0,0,-22,35,-22,60c0,0,0,38,30,67c0,0,30,29,72,29c0,0,54,0,91,-44c0,0,37,-44,37,-123c0,0,0,-117,-82,-193c0,0,-83,-75,-218,-75c0,0,-68,0,-113,17c0,0,-45,17,-97,65c0,0,-119,-82,-277,-82Z" 
id="f3_a"
transform="scale(0.001,-0.001)" />

<path d="M579,-17c0,0,-147,0,-266,70c0,0,-119,70,-189,197c0,0,-71,127,-71,277c0,0,0,149,69,271c0,0,69,123,187,191c0,0,119,69,265,69c0,0,149,0,260,-62l25,44H965L1067,667L928,627c0,0,-69,133,-130,189c0,0,-85,77,-185,77c0,0,-72,0,-135,-41c0,0,-63,-40,-100,-118c0,0,-37,-78,-37,-183c0,0,0,-161,85,-276c0,0,85,-116,222,-116c0,0,87,0,168,50c0,0,100,62,173,167l116,-86C1105,290,992,136,899,76c0,0,-144,-93,-320,-93Z" 
id="f3_13"
transform="scale(0.001,-0.001)" />

<path d="M568,-17c0,0,-143,0,-260,69c0,0,-117,69,-185,193c0,0,-68,125,-68,279c0,0,0,153,67,274c0,0,68,121,189,190c0,0,121,70,263,70c0,0,68,0,136,-17c0,0,69,-18,117,-47l28,46H959l94,-344L916,651c0,0,-71,113,-111,154c0,0,-41,41,-94,65c0,0,-52,23,-102,23c0,0,-71,0,-133,-41c0,0,-61,-41,-97,-120c0,0,-36,-79,-36,-191c0,0,0,-123,39,-213c0,0,40,-90,103,-134c0,0,64,-43,140,-43c0,0,53,0,102,21c0,0,48,22,66,49c0,0,18,26,18,72v38c0,0,0,39,-6,49c0,0,-8,15,-22,22c0,0,-13,7,-53,7H671V554h507V409h-38c0,0,-37,0,-51,-7c0,0,-14,-7,-20,-21c0,0,-7,-15,-7,-56V0H909L870,75C870,75,799,28,724,5c0,0,-75,-22,-156,-22Z" 
id="f3_17"
transform="scale(0.001,-0.001)" />

<path d="M610,480L509,765L404,480ZM2,0V144c0,0,39,0,56,6c0,0,18,7,30,21c0,0,11,13,25,49l322,820H669L981,237c0,0,25,-64,45,-79c0,0,19,-14,68,-14c2,0,3,0,5,0V0H606V144h30c0,0,41,0,58,11c0,0,16,11,16,27c0,0,0,13,-14,55l-32,94H349L310,226c0,0,-12,-33,-12,-44c0,0,0,-11,8,-21c0,0,9,-10,28,-14c0,0,13,-3,71,-3V0Z" 
id="f3_11"
transform="scale(0.001,-0.001)" />

<path d="M433,0L117,807c0,0,-20,49,-30,62c0,0,-11,14,-30,21c0,0,-16,7,-49,7c-2,0,-4,0,-6,0v143H497V897H481c0,0,-47,0,-60,-4c0,0,-13,-4,-22,-16c0,0,-9,-12,-9,-24c0,0,0,-16,17,-65L591,271L787,802c0,0,15,39,15,54c0,0,0,21,-14,31c0,0,-14,10,-60,10H696v143h403V897c0,0,-50,0,-67,-12c0,0,-26,-17,-52,-83L668,0Z" 
id="f3_1m"
transform="scale(0.001,-0.001)" />

<path d="M59,0V144H85c0,0,52,0,70,7c0,0,18,8,25,26c0,0,4,11,4,64V808c0,0,0,46,-7,60c0,0,-6,14,-19,22c0,0,-14,7,-53,7H59v143H928L1046,712L911,663c0,0,-34,81,-80,130c0,0,-46,49,-102,65c0,0,-55,16,-129,16H441V615h52c0,0,59,0,80,9c0,0,20,8,29,26c0,0,9,19,9,73v40H744V322H611v45c0,0,0,45,-11,66c0,0,-11,21,-29,29c0,0,-19,7,-83,7H441V230c0,0,0,-38,4,-47c0,0,3,-8,14,-12c0,0,11,-5,47,-5h87c0,0,98,0,165,28c0,0,67,28,120,91c0,0,53,63,81,149l136,-47L959,0Z" 
id="f3_15"
transform="scale(0.001,-0.001)" />

<path d="M532,575c0,0,81,0,119,17c0,0,38,16,61,51c0,0,23,35,23,83c0,0,0,71,-55,113c0,0,-41,31,-121,31H443V575ZM61,0V144H96c0,0,46,0,61,6c0,0,15,7,22,22c0,0,7,14,7,60V804c0,0,0,48,-6,63c0,0,-6,15,-19,23c0,0,-13,7,-50,7H61v143H611c0,0,104,0,173,-21c0,0,69,-21,119,-64c0,0,49,-44,76,-103c0,0,27,-59,27,-126c0,0,0,-133,-102,-223c0,0,-103,-90,-284,-90H443V218c0,0,0,-37,5,-47c0,0,7,-14,21,-21c0,0,13,-6,46,-6h53V0Z" 
id="f3_1g"
transform="scale(0.001,-0.001)" />

<path d="M593,600c0,0,92,0,137,17c0,0,45,17,68,48c0,0,22,31,22,76c0,0,0,41,-21,71c0,0,-21,29,-60,43c0,0,-40,14,-128,14H439V600ZM55,0V144h46c0,0,37,0,52,8c0,0,16,7,23,23c0,0,4,9,4,56V816c0,0,0,35,-6,49c0,0,-5,15,-18,19c0,0,-18,8,-41,8H55v148H697c0,0,62,0,135,-11c0,0,74,-11,133,-49c0,0,60,-38,92,-96c0,0,33,-59,33,-132c0,0,0,-118,-84,-192c0,0,-85,-73,-201,-96L1019,215l9,-11c0,0,21,-25,38,-38c0,0,17,-12,34,-17c0,0,18,-5,48,-5h45V0H859L526,448H439V241c0,0,0,-54,6,-69c0,0,6,-14,19,-21c0,0,13,-7,52,-7h48V0Z" 
id="f3_1i"
transform="scale(0.001,-0.001)" />


</defs>
</svg>