<?xml version="1.0" encoding="UTF-8" standalone="no"?>
<!DOCTYPE svg PUBLIC "-//W3C//DTD SVG 1.1//EN"
"http://www.w3.org/Graphics/SVG/1.1/DTD/svg11.dtd">
<svg viewBox="0 0 909 1286" version="1.1" xmlns="http://www.w3.org/2000/svg" xmlns:xlink="http://www.w3.org/1999/xlink">
<defs>
<clipPath id="c0_48"><path d="M286.4,657.6V640.7h7.3v16.9Z" /></clipPath>
<clipPath id="c1_48"><path d="M431.8,657.6V640.7h7.3v16.9Z" /></clipPath>
<style type="text/css"><![CDATA[
.g0_48{
fill: none;
stroke: #000000;
stroke-width: 0.73333335;
stroke-linecap: round;
stroke-linejoin: round;
}
.g1_48{
}
.g2_48{
fill: #FFFFFF;
}
.g3_48{
fill: #009900;
fill-opacity: 0.4;
}
]]></style>
</defs>
<g fill="#000000" >
<use xlink:href="#f0_1q" transform="matrix(10,0,0,10,230.1,145.9)" />
<use xlink:href="#f0_21" transform="matrix(10,0,0,10,239.6,145.9)" />
<use xlink:href="#f0_2e" transform="matrix(10,0,0,10,246,145.9)" />
<use xlink:href="#f0_2b" transform="matrix(10,0,0,10,252.5,145.9)" />
<use xlink:href="#f0_h" transform="matrix(10,0,0,10,259.8,145.9)" />
<use xlink:href="#f0_1f" transform="matrix(10,0,0,10,264.9,145.9)" />
<use xlink:href="#f0_2e" transform="matrix(10,0,0,10,276.5,145.9)" />
<use xlink:href="#f0_20" transform="matrix(10,0,0,10,283.1,145.9)" />
<use xlink:href="#f0_21" transform="matrix(10,0,0,10,291.1,145.9)" />
<use xlink:href="#f0_2e" transform="matrix(10,0,0,10,297.6,145.9)" />
<use xlink:href="#f0_16" transform="matrix(10,0,0,10,378,145.9)" />
<use xlink:href="#f0_25" transform="matrix(10,0,0,10,387.2,145.9)" />
<use xlink:href="#f0_2e" transform="matrix(10,0,0,10,391.4,145.9)" />
<use xlink:href="#f0_2f" transform="matrix(10,0,0,10,398,145.9)" />
<use xlink:href="#f0_2g" transform="matrix(10,0,0,10,404.1,145.9)" />
<use xlink:href="#f0_1f" transform="matrix(10,0,0,10,411.8,145.9)" />
<use xlink:href="#f0_2e" transform="matrix(10,0,0,10,423.9,145.9)" />
<use xlink:href="#f0_20" transform="matrix(10,0,0,10,430.7,145.9)" />
<use xlink:href="#f0_21" transform="matrix(10,0,0,10,438.7,145.9)" />
<use xlink:href="#f0_2e" transform="matrix(10,0,0,10,445.7,145.9)" />
<use xlink:href="#f0_1j" transform="matrix(10,0,0,10,525.6,145.9)" />
<use xlink:href="#f0_21" transform="matrix(10,0,0,10,533.9,145.9)" />
<use xlink:href="#f0_1z" transform="matrix(10,0,0,10,540.7,145.9)" />
<use xlink:href="#f0_2b" transform="matrix(10,0,0,10,547.3,145.9)" />
<use xlink:href="#f0_2a" transform="matrix(10,0,0,10,554.6,145.9)" />
<use xlink:href="#f0_20" transform="matrix(10,0,0,10,562.9,145.9)" />
<use xlink:href="#f0_1f" transform="matrix(10,0,0,10,574,145.9)" />
<use xlink:href="#f0_2e" transform="matrix(10,0,0,10,585.8,145.9)" />
<use xlink:href="#f0_20" transform="matrix(10,0,0,10,592.2,145.9)" />
<use xlink:href="#f0_21" transform="matrix(10,0,0,10,600.4,145.9)" />
<use xlink:href="#f0_2e" transform="matrix(10,0,0,10,607.2,145.9)" />
<use xlink:href="#f0_2a" transform="matrix(10,0,0,10,673.6,145.9)" />
<use xlink:href="#f0_2g" transform="matrix(10,0,0,10,681.7,145.9)" />
<use xlink:href="#f0_24" transform="matrix(10,0,0,10,686.4,145.9)" />
<use xlink:href="#f0_h" transform="matrix(10,0,0,10,694.5,145.9)" />
<use xlink:href="#f0_1f" transform="matrix(10,0,0,10,699.3,145.9)" />
<use xlink:href="#f0_2e" transform="matrix(10,0,0,10,710.8,145.9)" />
<use xlink:href="#f0_20" transform="matrix(10,0,0,10,717.2,145.9)" />
<use xlink:href="#f0_21" transform="matrix(10,0,0,10,725.7,145.9)" />
<use xlink:href="#f0_2e" transform="matrix(10,0,0,10,732.1,145.9)" />
<use xlink:href="#f0_1i" transform="matrix(10,0,0,10,59.8,205.5)" />
<use xlink:href="#f0_1x" transform="matrix(10,0,0,10,70.6,205.5)" />
<use xlink:href="#f0_2g" transform="matrix(10,0,0,10,77.9,205.5)" />
<use xlink:href="#f0_21" transform="matrix(10,0,0,10,82.5,205.5)" />
<use xlink:href="#f0_1c" transform="matrix(10,0,0,10,91.7,205.5)" />
<use xlink:href="#f0_1x" transform="matrix(10,0,0,10,101.4,205.5)" />
<use xlink:href="#f0_2j" transform="matrix(10,0,0,10,108.7,205.5)" />
</g>
<path d="M244.2,199.1h30.4" class="g0_48" />
<g fill="#000000" >
<use xlink:href="#f1_27" transform="matrix(10,0,0,10,291.3,202.8)" />
<use xlink:href="#f1_20" transform="matrix(10,0,0,10,253.2,214.9)" />
<use xlink:href="#f1_2g" transform="matrix(10,0,0,10,260.9,214.9)" />
<use xlink:href="#f1_1t" transform="matrix(10,0,0,10,269.1,193.4)" />
<use xlink:href="#f1_11" transform="matrix(10,0,0,10,257.8,193.4)" />
<use xlink:href="#f1_1r" transform="matrix(10,0,0,10,252.4,193.4)" />
<use xlink:href="#f1_20" transform="matrix(10,0,0,10,245.3,193.4)" />
<use xlink:href="#f2_x" transform="matrix(10,0,0,10,279,202.8)" />
<use xlink:href="#f2_h" transform="matrix(10,0,0,10,232.7,202.8)" />
</g>
<path d="M392,199.1h30.4" class="g0_48" />
<g fill="#000000" >
<use xlink:href="#f1_1t" transform="matrix(10,0,0,10,463.3,202.8)" />
<use xlink:href="#f1_11" transform="matrix(10,0,0,10,451.5,202.8)" />
<use xlink:href="#f1_1r" transform="matrix(10,0,0,10,446.4,202.8)" />
<use xlink:href="#f1_27" transform="matrix(10,0,0,10,438.9,202.8)" />
<use xlink:href="#f1_20" transform="matrix(10,0,0,10,401,214.9)" />
<use xlink:href="#f1_2g" transform="matrix(10,0,0,10,408.8,214.9)" />
<use xlink:href="#f1_1t" transform="matrix(10,0,0,10,417.1,193.4)" />
<use xlink:href="#f1_11" transform="matrix(10,0,0,10,405.5,193.4)" />
<use xlink:href="#f1_1r" transform="matrix(10,0,0,10,400,193.4)" />
<use xlink:href="#f1_20" transform="matrix(10,0,0,10,393.1,193.4)" />
<use xlink:href="#f2_x" transform="matrix(10,0,0,10,426.8,202.8)" />
<use xlink:href="#f2_h" transform="matrix(10,0,0,10,380.8,202.8)" />
</g>
<path d="M539.9,199.1h30.6" class="g0_48" />
<g fill="#000000" >
<use xlink:href="#f1_m" transform="matrix(7,0,0,7,616.9,196)" />
<use xlink:href="#f1_1t" transform="matrix(10,0,0,10,611.6,202.8)" />
<use xlink:href="#f1_11" transform="matrix(10,0,0,10,600.2,202.8)" />
<use xlink:href="#f1_1r" transform="matrix(10,0,0,10,594.6,202.8)" />
<use xlink:href="#f1_27" transform="matrix(10,0,0,10,587,202.8)" />
<use xlink:href="#f1_20" transform="matrix(10,0,0,10,549.1,214.9)" />
<use xlink:href="#f1_2g" transform="matrix(10,0,0,10,556.8,214.9)" />
<use xlink:href="#f1_1t" transform="matrix(10,0,0,10,565,193.4)" />
<use xlink:href="#f1_11" transform="matrix(10,0,0,10,553.7,193.4)" />
<use xlink:href="#f1_1r" transform="matrix(10,0,0,10,548,193.4)" />
<use xlink:href="#f1_20" transform="matrix(10,0,0,10,541,193.4)" />
<use xlink:href="#f2_x" transform="matrix(10,0,0,10,574.9,202.8)" />
<use xlink:href="#f2_h" transform="matrix(10,0,0,10,528.4,202.8)" />
</g>
<path d="M687.7,199.1h30.4" class="g0_48" />
<g fill="#000000" >
<use xlink:href="#f1_2a" transform="matrix(7,0,0,7,764.5,196)" />
<use xlink:href="#f1_1t" transform="matrix(10,0,0,10,759,202.8)" />
<use xlink:href="#f1_11" transform="matrix(10,0,0,10,747.5,202.8)" />
<use xlink:href="#f1_1r" transform="matrix(10,0,0,10,742,202.8)" />
<use xlink:href="#f1_27" transform="matrix(10,0,0,10,734.8,202.8)" />
<use xlink:href="#f1_20" transform="matrix(10,0,0,10,696.7,214.9)" />
<use xlink:href="#f1_2g" transform="matrix(10,0,0,10,704.4,214.9)" />
<use xlink:href="#f1_1t" transform="matrix(10,0,0,10,712.8,193.4)" />
<use xlink:href="#f1_11" transform="matrix(10,0,0,10,701.2,193.4)" />
<use xlink:href="#f1_1r" transform="matrix(10,0,0,10,695.8,193.4)" />
<use xlink:href="#f1_20" transform="matrix(10,0,0,10,688.6,193.4)" />
<use xlink:href="#f2_x" transform="matrix(10,0,0,10,722.3,202.8)" />
<use xlink:href="#f2_h" transform="matrix(10,0,0,10,676.1,202.8)" />
<use xlink:href="#f0_19" transform="matrix(10,0,0,10,60.1,273)" />
<use xlink:href="#f0_2a" transform="matrix(10,0,0,10,65.6,273)" />
<use xlink:href="#f0_2g" transform="matrix(10,0,0,10,74.1,273)" />
<use xlink:href="#f0_21" transform="matrix(10,0,0,10,78.8,273)" />
<use xlink:href="#f0_23" transform="matrix(10,0,0,10,85.4,273)" />
<use xlink:href="#f0_2e" transform="matrix(10,0,0,10,93.1,273)" />
<use xlink:href="#f0_1x" transform="matrix(10,0,0,10,99.5,273)" />
<use xlink:href="#f0_2g" transform="matrix(10,0,0,10,106.9,273)" />
<use xlink:href="#f0_21" transform="matrix(10,0,0,10,112,273)" />
<use xlink:href="#f0_20" transform="matrix(10,0,0,10,118.6,273)" />
<use xlink:href="#f1_1r" transform="matrix(10,0,0,10,230.1,273)" />
<use xlink:href="#f1_11" transform="matrix(10,0,0,10,235.2,273)" />
<use xlink:href="#f1_1t" transform="matrix(10,0,0,10,246.2,273)" />
<use xlink:href="#f1_x" transform="matrix(10,0,0,10,254.5,273)" />
<use xlink:href="#f1_1r" transform="matrix(10,0,0,10,266.7,273)" />
<use xlink:href="#f1_11" transform="matrix(10,0,0,10,271.7,273)" />
<use xlink:href="#f1_1t" transform="matrix(10,0,0,10,282.7,273)" />
<use xlink:href="#f1_k" transform="matrix(7,0,0,7,288,279)" />
<use xlink:href="#f1_4y" transform="matrix(10,0,0,10,296.3,273)" />
<use xlink:href="#f1_27" transform="matrix(10,0,0,10,307.6,273)" />
<use xlink:href="#f1_2g" transform="matrix(10,0,0,10,315.3,273)" />
<use xlink:href="#f1_1r" transform="matrix(10,0,0,10,378,273)" />
<use xlink:href="#f1_11" transform="matrix(10,0,0,10,383,273)" />
<use xlink:href="#f1_1t" transform="matrix(10,0,0,10,394,273)" />
<use xlink:href="#f1_x" transform="matrix(10,0,0,10,403.5,273)" />
<use xlink:href="#f1_1r" transform="matrix(10,0,0,10,416.2,273)" />
<use xlink:href="#f1_11" transform="matrix(10,0,0,10,421.3,273)" />
<use xlink:href="#f1_1t" transform="matrix(10,0,0,10,432.5,273)" />
<use xlink:href="#f1_k" transform="matrix(6.4,0,0,6.4,437.6,278.5)" />
<use xlink:href="#f1_21" transform="matrix(10,0,0,10,442.4,273)" />
<use xlink:href="#f1_4y" transform="matrix(7,0,0,7,449.4,266.9)" />
<use xlink:href="#f1_27" transform="matrix(7,0,0,7,454.7,266.9)" />
<use xlink:href="#f1_2g" transform="matrix(7,0,0,7,460,266.9)" />
</g>
<path d="M528.7,264.5h22.4m16.7,0H598" class="g0_48" />
<g fill="#000000" >
<use xlink:href="#f1_27" transform="matrix(10,0,0,10,612.3,268.4)" />
<use xlink:href="#f1_2g" transform="matrix(10,0,0,10,619.9,268.4)" />
<use xlink:href="#f1_1t" transform="matrix(10,0,0,10,584.6,280.5)" />
<use xlink:href="#f1_11" transform="matrix(10,0,0,10,573.5,280.5)" />
<use xlink:href="#f1_1r" transform="matrix(10,0,0,10,567.8,280.5)" />
<use xlink:href="#f1_l" transform="matrix(10,0,0,10,579.1,258.7)" />
<use xlink:href="#f1_1t" transform="matrix(10,0,0,10,545.8,280.5)" />
<use xlink:href="#f1_11" transform="matrix(10,0,0,10,534.2,280.5)" />
<use xlink:href="#f1_1r" transform="matrix(10,0,0,10,528.9,280.5)" />
<use xlink:href="#f1_l" transform="matrix(10,0,0,10,536.3,258.7)" />
<use xlink:href="#f1_k" transform="matrix(7,0,0,7,590,284.3)" />
<use xlink:href="#f2_f" transform="matrix(10,0,0,10,601.2,268.4)" />
<use xlink:href="#f2_x" transform="matrix(10,0,0,10,555.3,268.4)" />
</g>
<path d="M676.5,263.6h41.4m16.7,0H776" class="g0_48" />
<g fill="#000000" >
<use xlink:href="#f1_27" transform="matrix(10,0,0,10,827.9,267.5)" />
<use xlink:href="#f1_2g" transform="matrix(10,0,0,10,835.6,267.5)" />
<use xlink:href="#f1_d" transform="matrix(10,0,0,10,822.4,267.5)" />
<use xlink:href="#f1_l" transform="matrix(10,0,0,10,816.2,267.5)" />
<use xlink:href="#f1_2a" transform="matrix(10,0,0,10,795.7,267.5)" />
<use xlink:href="#f1_c" transform="matrix(10,0,0,10,790.3,267.5)" />
<use xlink:href="#f1_1t" transform="matrix(10,0,0,10,751.7,280.7)" />
<use xlink:href="#f1_11" transform="matrix(10,0,0,10,740.3,280.7)" />
<use xlink:href="#f1_1r" transform="matrix(10,0,0,10,734.8,280.7)" />
<use xlink:href="#f1_l" transform="matrix(10,0,0,10,751.7,257.8)" />
<use xlink:href="#f1_1t" transform="matrix(10,0,0,10,693.7,280.7)" />
<use xlink:href="#f1_11" transform="matrix(10,0,0,10,682,280.7)" />
<use xlink:href="#f1_1r" transform="matrix(10,0,0,10,676.5,280.7)" />
<use xlink:href="#f1_l" transform="matrix(10,0,0,10,693.6,257.8)" />
<use xlink:href="#f1_l" transform="matrix(7,0,0,7,768.7,273.9)" />
<use xlink:href="#f1_2a" transform="matrix(7,0,0,7,757,273.9)" />
<use xlink:href="#f1_k" transform="matrix(7,0,0,7,757,284.5)" />
<use xlink:href="#f1_l" transform="matrix(7,0,0,7,710.8,273.9)" />
<use xlink:href="#f1_2a" transform="matrix(7,0,0,7,699.1,273.9)" />
<use xlink:href="#f2_h" transform="matrix(10,0,0,10,806.7,267.5)" />
<use xlink:href="#f2_f" transform="matrix(10,0,0,10,779.2,267.5)" />
<use xlink:href="#f2_x" transform="matrix(10,0,0,10,722.3,267.5)" />
<use xlink:href="#f2_h" transform="matrix(7,0,0,7,763.6,273.9)" />
<use xlink:href="#f2_h" transform="matrix(7,0,0,7,705.3,273.9)" />
<use xlink:href="#f0_1i" transform="matrix(10,0,0,10,59.8,333.3)" />
<use xlink:href="#f0_1x" transform="matrix(10,0,0,10,70.6,333.3)" />
<use xlink:href="#f0_2g" transform="matrix(10,0,0,10,77.9,333.3)" />
<use xlink:href="#f0_21" transform="matrix(10,0,0,10,82.5,333.3)" />
<use xlink:href="#f0_1c" transform="matrix(10,0,0,10,91.7,333.3)" />
<use xlink:href="#f0_1x" transform="matrix(10,0,0,10,101.4,333.3)" />
<use xlink:href="#f0_2j" transform="matrix(10,0,0,10,108.7,333.3)" />
<use xlink:href="#f1_c" transform="matrix(10,0,0,10,673.6,333.3)" />
<use xlink:href="#f1_15" transform="matrix(10,0,0,10,678.5,333.3)" />
<use xlink:href="#f1_2k" transform="matrix(10,0,0,10,687.5,333.3)" />
<use xlink:href="#f1_1z" transform="matrix(10,0,0,10,695,333.3)" />
<use xlink:href="#f1_21" transform="matrix(10,0,0,10,701.8,333.3)" />
<use xlink:href="#f1_2c" transform="matrix(10,0,0,10,708.2,333.3)" />
<use xlink:href="#f1_2g" transform="matrix(10,0,0,10,715.9,333.3)" />
<use xlink:href="#f1_22" transform="matrix(10,0,0,10,722.5,333.3)" />
<use xlink:href="#f1_25" transform="matrix(10,0,0,10,727.5,333.3)" />
<use xlink:href="#f1_2e" transform="matrix(10,0,0,10,731.5,333.3)" />
<use xlink:href="#f1_2f" transform="matrix(10,0,0,10,736.6,333.3)" />
<use xlink:href="#f1_2g" transform="matrix(10,0,0,10,742.3,333.3)" />
<use xlink:href="#f1_1f" transform="matrix(10,0,0,10,748.9,333.3)" />
<use xlink:href="#f1_2e" transform="matrix(10,0,0,10,759.7,333.3)" />
<use xlink:href="#f1_20" transform="matrix(10,0,0,10,764.9,333.3)" />
<use xlink:href="#f1_21" transform="matrix(10,0,0,10,772.6,333.3)" />
<use xlink:href="#f1_2e" transform="matrix(10,0,0,10,779.2,333.3)" />
<use xlink:href="#f1_d" transform="matrix(10,0,0,10,783.9,333.3)" />
<use xlink:href="#f0_1l" transform="matrix(10,0,0,10,60.1,396.4)" />
<use xlink:href="#f0_2a" transform="matrix(10,0,0,10,70.9,396.4)" />
<use xlink:href="#f0_25" transform="matrix(10,0,0,10,79.4,396.4)" />
<use xlink:href="#f0_2g" transform="matrix(10,0,0,10,83.6,396.4)" />
<use xlink:href="#f0_2f" transform="matrix(10,0,0,10,88.7,396.4)" />
<use xlink:href="#f0_2b" transform="matrix(10,0,0,10,97,396.4)" />
<use xlink:href="#f0_22" transform="matrix(10,0,0,10,104.9,396.4)" />
<use xlink:href="#f0_1i" transform="matrix(10,0,0,10,112.6,396.4)" />
<use xlink:href="#f0_1x" transform="matrix(10,0,0,10,123.6,396.4)" />
<use xlink:href="#f0_2g" transform="matrix(10,0,0,10,131.3,396.4)" />
<use xlink:href="#f0_21" transform="matrix(10,0,0,10,136,396.4)" />
</g>
<path d="M233,389.9h16.2" class="g0_48" />
<g fill="#000000" >
<use xlink:href="#f1_2f" transform="matrix(10,0,0,10,238,405.5)" />
<use xlink:href="#f1_1d" transform="matrix(10,0,0,10,234.3,384.1)" />
</g>
<path d="M381,389.9h7.5" class="g0_48" />
<g fill="#000000" >
<use xlink:href="#f1_2f" transform="matrix(10,0,0,10,381.7,405.5)" />
<use xlink:href="#f1_l" transform="matrix(10,0,0,10,381.2,384.1)" />
</g>
<path d="M528.7,387.7h31" class="g0_48" />
<g fill="#000000" >
<use xlink:href="#f1_2f" transform="matrix(10,0,0,10,552.8,403.7)" />
<use xlink:href="#f1_i" transform="matrix(10,0,0,10,546.5,403.7)" />
<use xlink:href="#f1_1d" transform="matrix(10,0,0,10,529.8,403.7)" />
<use xlink:href="#f1_l" transform="matrix(10,0,0,10,540.3,382.1)" />
</g>
<path d="M676.5,386.8h49.9" class="g0_48" />
<g fill="#000000" >
<use xlink:href="#f1_2f" transform="matrix(10,0,0,10,719.6,404.1)" />
<use xlink:href="#f1_i" transform="matrix(10,0,0,10,713.2,404.1)" />
<use xlink:href="#f1_1d" transform="matrix(10,0,0,10,677.8,404.1)" />
<use xlink:href="#f1_l" transform="matrix(10,0,0,10,697.8,381.1)" />
<use xlink:href="#f1_l" transform="matrix(7,0,0,7,704.2,397.3)" />
<use xlink:href="#f1_2a" transform="matrix(7,0,0,7,692.5,397.3)" />
<use xlink:href="#f2_h" transform="matrix(7,0,0,7,699.1,397.3)" />
<use xlink:href="#f0_13" transform="matrix(10,0,0,10,60.3,456.3)" />
<use xlink:href="#f0_2b" transform="matrix(10,0,0,10,71.1,456.3)" />
<use xlink:href="#f0_2a" transform="matrix(10,0,0,10,78.8,456.3)" />
<use xlink:href="#f0_2f" transform="matrix(10,0,0,10,87.3,456.3)" />
<use xlink:href="#f0_2g" transform="matrix(10,0,0,10,93.1,456.3)" />
<use xlink:href="#f0_1x" transform="matrix(10,0,0,10,98.3,456.3)" />
<use xlink:href="#f0_2a" transform="matrix(10,0,0,10,106,456.3)" />
<use xlink:href="#f0_2g" transform="matrix(10,0,0,10,114.2,456.3)" />
<use xlink:href="#f0_c" transform="matrix(10,0,0,10,122.1,456.3)" />
<use xlink:href="#f0_27" transform="matrix(10,0,0,10,127.4,456.3)" />
<use xlink:href="#f0_d" transform="matrix(10,0,0,10,135.5,456.3)" />
<use xlink:href="#f0_1c" transform="matrix(10,0,0,10,60.1,518.6)" />
<use xlink:href="#f0_25" transform="matrix(10,0,0,10,70.2,518.6)" />
<use xlink:href="#f0_2a" transform="matrix(10,0,0,10,74.4,518.6)" />
<use xlink:href="#f0_21" transform="matrix(10,0,0,10,82.9,518.6)" />
<use xlink:href="#f0_1x" transform="matrix(10,0,0,10,89.7,518.6)" />
<use xlink:href="#f0_2e" transform="matrix(10,0,0,10,97.4,518.6)" />
<use xlink:href="#f0_1g" transform="matrix(10,0,0,10,106.9,518.6)" />
<use xlink:href="#f0_28" transform="matrix(10,0,0,10,116.1,518.6)" />
<use xlink:href="#f0_2b" transform="matrix(10,0,0,10,120.3,518.6)" />
<use xlink:href="#f0_2g" transform="matrix(10,0,0,10,128.2,518.6)" />
<use xlink:href="#f0_2g" transform="matrix(10,0,0,10,136,518.6)" />
<use xlink:href="#f0_2b" transform="matrix(10,0,0,10,141.2,518.6)" />
<use xlink:href="#f1_1r" transform="matrix(10,0,0,10,230.1,518.6)" />
<use xlink:href="#f1_11" transform="matrix(10,0,0,10,235.2,518.6)" />
<use xlink:href="#f1_1t" transform="matrix(10,0,0,10,246.2,518.6)" />
<use xlink:href="#f1_2i" transform="matrix(10,0,0,10,255.4,518.6)" />
<use xlink:href="#f1_2f" transform="matrix(10,0,0,10,263.3,518.6)" />
<use xlink:href="#f1_i" transform="matrix(10,0,0,10,268.9,518.6)" />
<use xlink:href="#f1_2g" transform="matrix(10,0,0,10,277.4,518.6)" />
<use xlink:href="#f1_28" transform="matrix(10,0,0,10,377.8,518.6)" />
<use xlink:href="#f1_2a" transform="matrix(10,0,0,10,382.2,518.6)" />
<use xlink:href="#f1_c" transform="matrix(10,0,0,10,389.9,518.6)" />
<use xlink:href="#f1_1r" transform="matrix(10,0,0,10,395.1,518.6)" />
<use xlink:href="#f1_11" transform="matrix(10,0,0,10,400.4,518.6)" />
<use xlink:href="#f1_1t" transform="matrix(10,0,0,10,411,518.6)" />
<use xlink:href="#f1_d" transform="matrix(10,0,0,10,416.3,518.6)" />
<use xlink:href="#f1_2i" transform="matrix(10,0,0,10,424.8,518.6)" />
<use xlink:href="#f1_2f" transform="matrix(10,0,0,10,432.7,518.6)" />
<use xlink:href="#f1_i" transform="matrix(10,0,0,10,438.5,518.6)" />
<use xlink:href="#f1_2g" transform="matrix(10,0,0,10,445.9,518.6)" />
</g>
<path d="M528.7,511.1h22.2" class="g0_48" />
<g fill="#000000" >
<use xlink:href="#f1_2g" transform="matrix(10.1,0,0,10.1,573.7,515)" />
<use xlink:href="#f1_i" transform="matrix(10.1,0,0,10.1,566.5,515)" />
<use xlink:href="#f1_2i" transform="matrix(10.1,0,0,10.1,553.7,515)" />
<use xlink:href="#f1_2f" transform="matrix(10.1,0,0,10.1,561.4,515)" />
<use xlink:href="#f1_1t" transform="matrix(10.1,0,0,10.1,545.8,527.1)" />
<use xlink:href="#f1_11" transform="matrix(10.1,0,0,10.1,534.2,527.1)" />
<use xlink:href="#f1_1r" transform="matrix(10.1,0,0,10.1,528.9,527.1)" />
<use xlink:href="#f1_l" transform="matrix(10.1,0,0,10.1,535.9,505.1)" />
</g>
<path d="M676.5,510h41.1" class="g0_48" />
<g fill="#000000" >
<use xlink:href="#f1_2g" transform="matrix(10,0,0,10,740.3,514.1)" />
<use xlink:href="#f1_i" transform="matrix(10,0,0,10,733.3,514.1)" />
<use xlink:href="#f1_2i" transform="matrix(10,0,0,10,720.3,514.1)" />
<use xlink:href="#f1_2f" transform="matrix(10,0,0,10,727.8,514.1)" />
<use xlink:href="#f1_1t" transform="matrix(10,0,0,10,693.6,527.4)" />
<use xlink:href="#f1_11" transform="matrix(10,0,0,10,682,527.4)" />
<use xlink:href="#f1_1r" transform="matrix(10,0,0,10,676.5,527.4)" />
<use xlink:href="#f1_l" transform="matrix(10,0,0,10,693.2,504.3)" />
<use xlink:href="#f1_l" transform="matrix(7,0,0,7,710.4,520.5)" />
<use xlink:href="#f1_2a" transform="matrix(7,0,0,7,698.7,520.5)" />
<use xlink:href="#f2_h" transform="matrix(7,0,0,7,705.3,520.5)" />
<use xlink:href="#f0_20" transform="matrix(10,0,0,10,60.9,578.2)" />
<use xlink:href="#f0_21" transform="matrix(10,0,0,10,69.1,578.2)" />
<use xlink:href="#f0_2g" transform="matrix(10,0,0,10,76.3,578.2)" />
<use xlink:href="#f0_21" transform="matrix(10,0,0,10,81.4,578.2)" />
<use xlink:href="#f0_2e" transform="matrix(10,0,0,10,88.2,578.2)" />
<use xlink:href="#f0_29" transform="matrix(10,0,0,10,95.2,578.2)" />
<use xlink:href="#f0_25" transform="matrix(10,0,0,10,107.3,578.2)" />
<use xlink:href="#f0_2a" transform="matrix(10,0,0,10,111.7,578.2)" />
<use xlink:href="#f0_21" transform="matrix(10,0,0,10,120.1,578.2)" />
<use xlink:href="#f0_27" transform="matrix(10,0,0,10,130,578.2)" />
<use xlink:href="#f1_c" transform="matrix(10,0,0,10,673.6,578.2)" />
<use xlink:href="#f1_15" transform="matrix(10,0,0,10,678.5,578.2)" />
<use xlink:href="#f1_2k" transform="matrix(10,0,0,10,687.5,578.2)" />
<use xlink:href="#f1_1z" transform="matrix(10,0,0,10,695,578.2)" />
<use xlink:href="#f1_21" transform="matrix(10,0,0,10,701.8,578.2)" />
<use xlink:href="#f1_2c" transform="matrix(10,0,0,10,708.2,578.2)" />
<use xlink:href="#f1_2g" transform="matrix(10,0,0,10,715.9,578.2)" />
<use xlink:href="#f1_22" transform="matrix(10,0,0,10,722.5,578.2)" />
<use xlink:href="#f1_25" transform="matrix(10,0,0,10,727.5,578.2)" />
<use xlink:href="#f1_2e" transform="matrix(10,0,0,10,731.5,578.2)" />
<use xlink:href="#f1_2f" transform="matrix(10,0,0,10,736.6,578.2)" />
<use xlink:href="#f1_2g" transform="matrix(10,0,0,10,742.3,578.2)" />
<use xlink:href="#f1_1f" transform="matrix(10,0,0,10,748.9,578.2)" />
<use xlink:href="#f1_2e" transform="matrix(10,0,0,10,759.7,578.2)" />
<use xlink:href="#f1_20" transform="matrix(10,0,0,10,764.9,578.2)" />
<use xlink:href="#f1_21" transform="matrix(10,0,0,10,772.6,578.2)" />
<use xlink:href="#f1_2e" transform="matrix(10,0,0,10,779.2,578.2)" />
<use xlink:href="#f1_d" transform="matrix(10,0,0,10,783.9,578.2)" />
<use xlink:href="#f0_18" transform="matrix(10,0,0,10,60.3,643.7)" />
<use xlink:href="#f0_1x" transform="matrix(10,0,0,10,72.4,643.7)" />
<use xlink:href="#f0_28" transform="matrix(10,0,0,10,79.8,643.7)" />
<use xlink:href="#f0_22" transform="matrix(10,0,0,10,84.2,643.7)" />
<use xlink:href="#f0_h" transform="matrix(10,0,0,10,89.3,643.7)" />
<use xlink:href="#f0_28" transform="matrix(10,0,0,10,94.1,643.7)" />
<use xlink:href="#f0_25" transform="matrix(10,0,0,10,98.3,643.7)" />
<use xlink:href="#f0_22" transform="matrix(10,0,0,10,102.5,643.7)" />
<use xlink:href="#f0_21" transform="matrix(10,0,0,10,107.4,643.7)" />
</g>
<path d="M271.1,638.4h30.1" class="g0_48" />
<g clip-path="url(#c0_48)">
<g fill="#000000" >
<use xlink:href="#f1_27" transform="matrix(10,0,0,10,286.2,654.1)" />
</g>
</g>
<g fill="#000000" >
<use xlink:href="#f1_m" transform="matrix(10,0,0,10,278.3,654.1)" />
<use xlink:href="#f1_1t" transform="matrix(10,0,0,10,288.2,632.3)" />
<use xlink:href="#f1_11" transform="matrix(10,0,0,10,276.8,632.3)" />
<use xlink:href="#f1_1r" transform="matrix(10,0,0,10,271.3,632.3)" />
<use xlink:href="#f1_2g" transform="matrix(10,0,0,10,233.2,642.4)" />
<use xlink:href="#f1_k" transform="matrix(7,0,0,7,293.3,636.2)" />
<use xlink:href="#f1_m" transform="matrix(7,0,0,7,247.9,646.2)" />
<use xlink:href="#f1_j" transform="matrix(7,0,0,7,243.3,646.2)" />
<use xlink:href="#f1_l" transform="matrix(7,0,0,7,237.8,646.2)" />
<use xlink:href="#f2_x" transform="matrix(10,0,0,10,258.7,642.4)" />
</g>
<path d="M419.6,638.4h32.1" class="g0_48" />
<g clip-path="url(#c1_48)">
<g fill="#000000" >
<use xlink:href="#f1_27" transform="matrix(10,0,0,10,431.6,654.1)" />
</g>
</g>
<g fill="#000000" >
<use xlink:href="#f1_d" transform="matrix(10,0,0,10,445.5,632.5)" />
<use xlink:href="#f1_m" transform="matrix(10,0,0,10,437.8,632.5)" />
<use xlink:href="#f1_28" transform="matrix(10,0,0,10,420.8,632.5)" />
<use xlink:href="#f1_2a" transform="matrix(10,0,0,10,425,632.5)" />
<use xlink:href="#f1_c" transform="matrix(10,0,0,10,432.3,632.5)" />
<use xlink:href="#f1_2g" transform="matrix(10,0,0,10,381.2,642.4)" />
<use xlink:href="#f1_m" transform="matrix(7,0,0,7,396.2,646.2)" />
<use xlink:href="#f1_j" transform="matrix(7,0,0,7,391.6,646.2)" />
<use xlink:href="#f1_l" transform="matrix(7,0,0,7,385.7,646.2)" />
<use xlink:href="#f2_x" transform="matrix(10,0,0,10,407,642.4)" />
</g>
<path d="M566.9,635.2h38.7" class="g0_48" />
<g fill="#000000" >
<use xlink:href="#f1_27" transform="matrix(10,0,0,10,596.6,651.2)" />
<use xlink:href="#f1_1t" transform="matrix(10,0,0,10,583.9,651.2)" />
<use xlink:href="#f1_11" transform="matrix(10,0,0,10,572.4,651.2)" />
<use xlink:href="#f1_1r" transform="matrix(10,0,0,10,567.1,651.2)" />
<use xlink:href="#f1_l" transform="matrix(10,0,0,10,582.5,629.6)" />
<use xlink:href="#f1_2g" transform="matrix(10,0,0,10,528.9,639.1)" />
<use xlink:href="#f1_k" transform="matrix(7,0,0,7,589.1,654.9)" />
<use xlink:href="#f1_m" transform="matrix(7,0,0,7,543.6,643.1)" />
<use xlink:href="#f1_j" transform="matrix(7,0,0,7,539,643.1)" />
<use xlink:href="#f1_l" transform="matrix(7,0,0,7,533.5,643.1)" />
<use xlink:href="#f2_x" transform="matrix(10,0,0,10,554.6,639.1)" />
</g>
<path d="M715,635.4h91.1" class="g0_48" />
<g fill="#000000" >
<use xlink:href="#f1_l" transform="matrix(7,0,0,7,798.6,646.1)" />
<use xlink:href="#f1_2a" transform="matrix(7,0,0,7,787.1,646.1)" />
<use xlink:href="#f1_k" transform="matrix(7,0,0,7,787.1,656.5)" />
<use xlink:href="#f1_l" transform="matrix(7,0,0,7,758.3,622.8)" />
<use xlink:href="#f1_2a" transform="matrix(7,0,0,7,746.9,622.8)" />
<use xlink:href="#f1_m" transform="matrix(7,0,0,7,691.5,643.1)" />
<use xlink:href="#f1_j" transform="matrix(7,0,0,7,687,643.1)" />
<use xlink:href="#f1_l" transform="matrix(7,0,0,7,681.1,643.1)" />
<use xlink:href="#f1_1t" transform="matrix(10,0,0,10,781.6,652.8)" />
<use xlink:href="#f1_11" transform="matrix(10,0,0,10,770,652.8)" />
<use xlink:href="#f1_1r" transform="matrix(10,0,0,10,764.5,652.8)" />
<use xlink:href="#f1_27" transform="matrix(10,0,0,10,753.7,652.8)" />
<use xlink:href="#f1_d" transform="matrix(10,0,0,10,748.2,652.8)" />
<use xlink:href="#f1_l" transform="matrix(10,0,0,10,741.9,652.8)" />
<use xlink:href="#f1_2a" transform="matrix(10,0,0,10,721.6,652.8)" />
<use xlink:href="#f1_c" transform="matrix(10,0,0,10,716.1,652.8)" />
<use xlink:href="#f1_l" transform="matrix(10,0,0,10,777,629.6)" />
<use xlink:href="#f1_m" transform="matrix(10,0,0,10,738.3,629.6)" />
<use xlink:href="#f1_2g" transform="matrix(10,0,0,10,676.5,639.1)" />
<use xlink:href="#f2_h" transform="matrix(7,0,0,7,793.3,646.1)" />
<use xlink:href="#f2_h" transform="matrix(7,0,0,7,753.1,622.8)" />
<use xlink:href="#f2_h" transform="matrix(10,0,0,10,732.4,652.8)" />
<use xlink:href="#f2_h" transform="matrix(10,0,0,10,767.4,629.6)" />
<use xlink:href="#f2_x" transform="matrix(10,0,0,10,702.4,639.1)" />
<use xlink:href="#f1_c" transform="matrix(10,0,0,10,673.6,691.5)" />
<use xlink:href="#f1_15" transform="matrix(10,0,0,10,678.5,691.5)" />
<use xlink:href="#f1_2k" transform="matrix(10,0,0,10,687.5,691.5)" />
<use xlink:href="#f1_1z" transform="matrix(10,0,0,10,695,691.5)" />
<use xlink:href="#f1_21" transform="matrix(10,0,0,10,701.8,691.5)" />
<use xlink:href="#f1_2c" transform="matrix(10,0,0,10,708.2,691.5)" />
<use xlink:href="#f1_2g" transform="matrix(10,0,0,10,715.9,691.5)" />
<use xlink:href="#f1_22" transform="matrix(10,0,0,10,722.5,691.5)" />
<use xlink:href="#f1_25" transform="matrix(10,0,0,10,727.5,691.5)" />
<use xlink:href="#f1_2e" transform="matrix(10,0,0,10,731.5,691.5)" />
<use xlink:href="#f1_2f" transform="matrix(10,0,0,10,736.6,691.5)" />
<use xlink:href="#f1_2g" transform="matrix(10,0,0,10,742.3,691.5)" />
<use xlink:href="#f1_1f" transform="matrix(10,0,0,10,748.9,691.5)" />
<use xlink:href="#f1_2e" transform="matrix(10,0,0,10,759.7,691.5)" />
<use xlink:href="#f1_20" transform="matrix(10,0,0,10,764.9,691.5)" />
<use xlink:href="#f1_21" transform="matrix(10,0,0,10,772.6,691.5)" />
<use xlink:href="#f1_2e" transform="matrix(10,0,0,10,779.2,691.5)" />
<use xlink:href="#f1_d" transform="matrix(10,0,0,10,783.9,691.5)" />
</g>
<path fill-rule="evenodd" d="M54.8,109.8H854.3V718.1H54.8V109.8l1.7,606.7H852.9V111.3H56.5V716.5L54.8,109.8Z" class="g1_48" />
<path fill-rule="evenodd" d="M54.8,161.5H854.3V163H54.8v-1.5Z" class="g1_48" />
<path fill-rule="evenodd" d="M54.8,230.3H854.3v1.4H54.8v-1.4Z" class="g1_48" />
<path fill-rule="evenodd" d="M54.8,351.6H854.3v1.5H54.8v-1.5Z" class="g1_48" />
<path fill-rule="evenodd" d="M54.8,475.9H854.3v1.7H54.8v-1.7Z" class="g1_48" />
<path fill-rule="evenodd" d="M54.8,600.4H854.3v1.5H54.8v-1.5Z" class="g1_48" />
<path fill-rule="evenodd" d="M647.9,717.4V111.6h1.3V717.4h-1.3Z" class="g1_48" />
<path fill-rule="evenodd" d="M494.8,717.4V109.8h1.7V717.4h-1.7Z" class="g1_48" />
<path fill-rule="evenodd" d="M348.9,717.4V111.6h1.5V717.4h-1.5Z" class="g1_48" />
<path fill-rule="evenodd" d="M192.7,718.3V111.7h1.5V718.3h-1.5Z" class="g1_48" />
<path fill-rule="evenodd" d="M53.9,69.5H856.2V97.9H53.9V69.5l1.5,26.8H854.5V71H55.4V96.3L53.9,69.5Z" class="g2_48" />
<g fill="#000000" >
<use xlink:href="#f3_13" transform="matrix(10,0,0,10,677.4,87.6)" />
<use xlink:href="#f3_18" transform="matrix(10,0,0,10,688.4,87.6)" />
<use xlink:href="#f3_15" transform="matrix(10,0,0,10,700.9,87.6)" />
<use xlink:href="#f3_1d" transform="matrix(10,0,0,10,711.9,87.6)" />
<use xlink:href="#f3_19" transform="matrix(10,0,0,10,726.2,87.6)" />
<use xlink:href="#f3_13" transform="matrix(10,0,0,10,732.2,87.6)" />
<use xlink:href="#f3_11" transform="matrix(10,0,0,10,743.6,87.6)" />
<use xlink:href="#f3_1c" transform="matrix(10,0,0,10,754.6,87.6)" />
<use xlink:href="#f3_1b" transform="matrix(10,0,0,10,769.8,87.6)" />
<use xlink:href="#f3_19" transform="matrix(10,0,0,10,781.7,87.6)" />
<use xlink:href="#f3_1e" transform="matrix(10,0,0,10,787.8,87.6)" />
<use xlink:href="#f3_15" transform="matrix(10,0,0,10,799.2,87.6)" />
<use xlink:href="#f3_1k" transform="matrix(10,0,0,10,810.2,87.6)" />
<use xlink:href="#f3_19" transform="matrix(10,0,0,10,820.8,87.6)" />
<use xlink:href="#f3_13" transform="matrix(10,0,0,10,826.7,87.6)" />
<use xlink:href="#f3_1j" transform="matrix(10,0,0,10,838,87.6)" />
</g>
<path fill-rule="evenodd" d="M55.2,94.6H854.7v3.1H55.2V94.6Z" class="g1_48" />
<path fill-rule="evenodd" d="M55.2,69.7H854.7v3.1H55.2V69.7Z" class="g1_48" />
<path fill-rule="evenodd" d="M54.1,1177.4H854.8v2.3H54.1v-2.3Z" class="g1_48" />
<path d="M55.5,94.8H854.4V72.6H55.5V94.8Z" class="g3_48" />
<defs>
<path d="M24,0L619,958L469,957c0,0,-87,0,-114,-5c0,0,-53,-10,-99,-38c0,0,-46,-29,-76,-77c0,0,-30,-48,-47,-121H105l28,296H932L337,57H530c0,0,136,0,191,17c0,0,88,27,152,99c0,0,64,72,89,193h29L950,0Z" 
id="f0_1q"
transform="scale(0.001,-0.001)" />

<path d="M458,424c0,0,0,120,-13,165c0,0,-13,44,-40,67c0,0,-16,14,-42,14c0,0,-39,0,-63,-38c0,0,-44,-66,-44,-182V424ZM358,-20c0,0,-155,0,-235,119c0,0,-64,96,-64,239c0,0,0,174,94,277c0,0,94,104,221,104c0,0,106,0,184,-87c0,0,78,-87,84,-257H259c0,0,7,-139,74,-220c0,0,51,-62,124,-62c0,0,45,0,81,25c0,0,37,25,79,90l25,-16C642,192,585,76,517,28c0,0,-69,-48,-159,-48Z" 
id="f0_21"
transform="scale(0.001,-0.001)" />

<path d="M57,0V26c0,0,45,4,61,25c0,0,16,22,16,113V550c0,0,0,59,-6,76c0,0,-7,21,-22,30c0,0,-14,10,-49,14v27H342l1,-158c0,0,69,109,121,144c0,0,52,36,100,36c0,0,42,0,66,-26c0,0,25,-26,25,-73c0,0,0,-50,-24,-77c0,0,-25,-28,-59,-28c0,0,-39,0,-68,25c0,0,-28,26,-33,29c0,0,-8,4,-17,4c0,0,-22,0,-41,-16c0,0,-31,-26,-46,-73c0,0,-24,-72,-24,-159V122c0,0,0,-42,5,-54c0,0,9,-21,27,-30c0,0,17,-9,59,-12V0Z" 
id="f0_2e"
transform="scale(0.001,-0.001)" />

<path d="M381,31c0,0,33,0,56,19c0,0,29,25,38,71c0,0,15,71,15,286c0,0,0,127,-14,174c0,0,-14,48,-42,69c0,0,-19,16,-50,16c0,0,-38,0,-65,-29c0,0,-27,-29,-36,-113c0,0,-8,-85,-8,-235c0,0,0,-80,10,-150c0,0,8,-53,35,-80c0,0,27,-28,61,-28Zm2,-51c0,0,-157,0,-242,110c0,0,-85,110,-85,256c0,0,0,150,87,261c0,0,86,112,238,112c0,0,90,0,169,-47c0,0,78,-47,119,-134c0,0,40,-86,40,-189c0,0,0,-149,-75,-249c0,0,-91,-120,-251,-120Z" 
id="f0_2b"
transform="scale(0.001,-0.001)" />

<path d="M37,274V428H473V274Z" 
id="f0_h"
transform="scale(0.001,-0.001)" />

<path d="M597,33c0,0,77,0,129,38c0,0,65,47,102,152c0,0,36,105,36,273c0,0,0,201,-37,300c0,0,-37,100,-95,141c0,0,-58,41,-133,41c0,0,-139,0,-211,-142c0,0,-59,-116,-59,-334c0,0,0,-259,91,-382c0,0,63,-87,177,-87Zm3,-54c0,0,-273,0,-423,183C177,162,60,309,60,509c0,0,0,225,153,375c0,0,144,142,358,142c6,0,12,0,19,0c0,0,3,0,8,0c42,0,250,-7,385,-141c0,0,151,-150,151,-375c0,0,0,-193,-113,-339c0,0,-149,-192,-421,-192Z" 
id="f0_1f"
transform="scale(0.001,-0.001)" />

<path d="M397,69c0,0,65,0,123,103V539c0,0,-55,105,-134,105c0,0,-28,0,-46,-15c0,0,-27,-23,-45,-81c0,0,-17,-58,-17,-178c0,0,0,-132,19,-195c0,0,19,-63,53,-91c0,0,17,-15,47,-15ZM332,-20c0,0,-133,0,-211,119c0,0,-62,97,-62,238c0,0,0,112,38,202c0,0,39,89,107,134c0,0,67,46,145,46c0,0,50,0,88,-20c0,0,39,-19,83,-67V842c0,0,0,80,-7,96c0,0,-8,22,-26,32c0,0,-18,11,-68,11v31H729V209c0,0,0,-81,5,-96c0,0,6,-25,22,-36c0,0,17,-12,58,-15V37L520,-20V90C520,90,467,26,426,3c0,0,-42,-23,-94,-23Z" 
id="f0_20"
transform="scale(0.001,-0.001)" />

<path d="M34,0V27H68c0,0,44,0,71,16c0,0,19,11,30,36c0,0,8,18,8,94V839c0,0,0,78,-8,97c0,0,-8,20,-33,34c0,0,-26,15,-68,15H34v27H887V722H857c0,0,-10,102,-53,151c0,0,-43,49,-125,69c0,0,-44,11,-165,11H420V538h29c0,0,67,0,109,20c0,0,43,20,72,68c0,0,30,48,39,129h26V247H669c0,0,-14,144,-77,190c0,0,-63,46,-143,46H420V173c0,0,0,-78,9,-97c0,0,9,-20,33,-34c0,0,25,-15,68,-15h33V0Z" 
id="f0_16"
transform="scale(0.001,-0.001)" />

<path d="M32,0V26c0,0,46,2,69,27c0,0,14,18,14,92V551c0,0,0,75,-17,95c0,0,-17,21,-66,24v27H325V145c0,0,0,-74,17,-95c0,0,17,-21,68,-24V0ZM220,804c0,0,-48,0,-82,33c0,0,-33,34,-33,82c0,0,0,48,33,82c0,0,34,33,82,33c0,0,48,0,82,-33c0,0,33,-34,33,-82c0,0,0,-48,-34,-82c0,0,-34,-33,-81,-33Z" 
id="f0_25"
transform="scale(0.001,-0.001)" />

<path d="M312,-20c0,0,-50,0,-134,30c0,0,-22,9,-30,9c0,0,-25,0,-41,-37H82L70,232H97c0,0,33,-99,91,-148c0,0,59,-49,111,-49c0,0,35,0,58,22c0,0,22,22,22,54c0,0,0,35,-22,61c0,0,-22,27,-100,80c0,0,-114,79,-147,120c0,0,-49,62,-49,136c0,0,0,80,55,145c0,0,56,66,161,66c0,0,56,0,109,-28c0,0,20,-11,33,-11c0,0,13,0,21,5c0,0,9,6,27,32h26L504,479H477c0,0,-45,106,-94,145c0,0,-48,39,-96,39c0,0,-31,0,-52,-21c0,0,-22,-20,-22,-47c0,0,0,-20,15,-39c0,0,24,-30,133,-105c0,0,110,-74,144,-126c0,0,35,-52,35,-116c0,0,0,-58,-29,-114C511,95,482,39,429,9c0,0,-53,-29,-117,-29Z" 
id="f0_2f"
transform="scale(0.001,-0.001)" />

<path d="M298,-9c0,0,-67,0,-113,36c0,0,-46,37,-58,83c0,0,-8,25,-8,137V624H28v26c0,0,94,66,161,139c0,0,66,73,115,163h25V697H494V624H329V193c0,0,0,-60,5,-78c0,0,6,-17,20,-28c0,0,14,-11,26,-11c0,0,48,0,92,75l22,-17C494,134,434,-9,298,-9Z" 
id="f0_2g"
transform="scale(0.001,-0.001)" />

<path d="M78,-22V359h28c0,0,32,-161,126,-246c0,0,94,-85,202,-85c0,0,84,0,133,46c0,0,50,45,50,106c0,0,0,36,-19,69c0,0,-19,34,-58,64c0,0,-39,30,-138,79c0,0,-138,68,-198,115c0,0,-60,48,-92,107c0,0,-33,59,-33,130c0,0,0,120,89,205c0,0,89,85,224,85c0,0,49,0,96,-11c0,0,35,-9,85,-34c0,0,51,-24,71,-24c0,0,19,0,30,12c0,0,12,12,21,57h23l8,-337H695c0,0,-21,127,-106,204c0,0,-85,78,-184,78c0,0,-76,0,-121,-41c0,0,-44,-41,-44,-94c0,0,0,-33,15,-59c0,0,22,-35,70,-70c0,0,35,-24,162,-87c0,0,178,-87,240,-165c0,0,61,-77,61,-177c0,0,0,-127,-99,-218c0,0,-99,-90,-251,-90c0,0,-48,0,-90,9c0,0,-43,10,-107,36c0,0,-36,15,-59,15c0,0,-20,0,-41,-15c0,0,-22,-15,-35,-45Z" 
id="f0_1j"
transform="scale(0.001,-0.001)" />

<path d="M365,-20c0,0,-139,0,-223,105c0,0,-83,105,-83,253c0,0,0,142,76,250c0,0,92,131,253,131c0,0,108,0,172,-55c0,0,63,-54,63,-121c0,0,0,-43,-25,-68c0,0,-26,-25,-68,-25c0,0,-44,0,-73,29c0,0,-28,29,-35,104c0,0,-5,47,-22,65c0,0,-17,19,-40,19c0,0,-36,0,-61,-38c0,0,-39,-58,-39,-176c0,0,0,-99,31,-188c0,0,32,-90,86,-134c0,0,41,-32,97,-32c0,0,36,0,69,17c0,0,33,17,78,65l23,-18C644,163,595,70,521,25c0,0,-73,-45,-156,-45Z" 
id="f0_1z"
transform="scale(0.001,-0.001)" />

<path d="M52,0V26c0,0,44,5,62,29c0,0,13,16,13,97V546c0,0,0,79,-14,98c0,0,-15,20,-61,26v27H336V607c0,0,54,59,104,85c0,0,49,27,106,27c0,0,68,0,113,-38c0,0,44,-38,59,-94c0,0,12,-42,12,-163V152c0,0,0,-81,15,-101c0,0,14,-19,61,-25V0H452V26c0,0,40,6,57,33c0,0,12,19,12,93V462c0,0,0,86,-7,109c0,0,-6,22,-22,35c0,0,-16,12,-36,12c0,0,-64,0,-120,-92V152c0,0,0,-79,15,-100c0,0,15,-20,55,-26V0Z" 
id="f0_2a"
transform="scale(0.001,-0.001)" />

<path d="M52,0V26c0,0,44,5,62,29c0,0,13,16,13,97V860c0,0,0,80,-14,99c0,0,-15,20,-61,26v27H336V608c0,0,58,61,106,86c0,0,47,25,99,25c0,0,65,0,112,-38c0,0,47,-37,62,-87c0,0,15,-51,15,-170V152c0,0,0,-81,15,-100c0,0,15,-20,61,-26V0H452V26c0,0,37,6,56,30c0,0,13,20,13,96V463c0,0,0,86,-7,108c0,0,-6,22,-22,35c0,0,-16,12,-36,12c0,0,-30,0,-59,-21c0,0,-28,-20,-61,-72V152c0,0,0,-75,12,-94c0,0,14,-26,58,-32V0Z" 
id="f0_24"
transform="scale(0.001,-0.001)" />

<path d="M448,514c0,0,104,0,155,19c0,0,52,19,81,69c0,0,30,50,30,129c0,0,0,116,-54,171c0,0,-54,55,-174,55H406V514ZM28,0V27c0,0,70,0,95,13c0,0,25,14,35,35c0,0,10,21,10,103V834c0,0,0,82,-10,104c0,0,-10,21,-35,34c0,0,-25,13,-95,13v27H498c0,0,184,0,269,-25c0,0,85,-26,138,-94c0,0,54,-68,54,-160c0,0,0,-112,-80,-185c0,0,-52,-46,-145,-69L977,135c0,0,48,-66,68,-82c0,0,31,-23,72,-26V0H798L472,462H406V178c0,0,0,-82,10,-104c0,0,10,-21,35,-34c0,0,25,-13,95,-13V0Z" 
id="f0_1i"
transform="scale(0.001,-0.001)" />

<path d="M350,115c0,0,37,0,86,42V391c0,0,-90,-53,-134,-113c0,0,-29,-41,-29,-82c0,0,0,-34,24,-60c0,0,19,-21,53,-21ZM207,-9c0,0,-59,0,-99,38c0,0,-40,40,-40,99c0,0,0,80,69,143c0,0,69,64,299,170v70c0,0,0,79,-8,100c0,0,-9,20,-33,36c0,0,-23,15,-53,15c0,0,-49,0,-80,-22c0,0,-19,-13,-19,-31c0,0,0,-16,21,-39c0,0,28,-32,28,-62c0,0,0,-36,-27,-62c0,0,-27,-26,-71,-26c0,0,-47,0,-79,29c0,0,-32,28,-32,66c0,0,0,54,43,103c0,0,42,48,118,75c0,0,76,26,158,26c0,0,99,0,157,-42c0,0,58,-43,75,-92c0,0,11,-31,11,-144V170c0,0,0,-47,3,-60c0,0,4,-12,11,-18c0,0,8,-6,18,-6c0,0,19,0,39,28L738,96c0,0,-37,-56,-77,-81c0,0,-40,-24,-90,-24c0,0,-60,0,-94,27c0,0,-33,28,-41,85C436,103,309,-9,207,-9Z" 
id="f0_1x"
transform="scale(0.001,-0.001)" />

<path d="M28,0V27H62c0,0,44,0,71,16c0,0,19,11,30,36c0,0,8,18,8,94V839c0,0,0,78,-8,97c0,0,-8,20,-33,34c0,0,-25,15,-68,15H28v27H568V985H524c0,0,-44,0,-71,-16c0,0,-19,-11,-30,-36c0,0,-8,-18,-8,-94V194c0,0,0,-78,9,-99c0,0,8,-21,35,-32c0,0,18,-6,90,-6h84c0,0,81,0,135,28c0,0,53,28,93,90c0,0,39,61,74,180h30L927,0Z" 
id="f0_1c"
transform="scale(0.001,-0.001)" />

<path d="M325,-20L139,484c0,0,-42,116,-71,151c0,0,-18,24,-56,35v27H364V670c0,0,-35,0,-49,-11c0,0,-13,-10,-13,-24c0,0,0,-12,24,-76L428,287l98,272l-7,18c0,0,-22,56,-39,72c0,0,-17,15,-52,21v27H785V670c0,0,-42,-2,-53,-12c0,0,-11,-9,-11,-26c0,0,0,-17,22,-73L841,287l90,251c0,0,19,53,19,73c0,0,0,29,-14,42c0,0,-14,14,-55,17v27h207V670c0,0,-35,-5,-55,-24c0,0,-20,-20,-52,-113L785,-20H743L551,491L364,-20Z" 
id="f0_2j"
transform="scale(0.001,-0.001)" />

<path d="M13,0V26c0,0,52,0,78,13c0,0,16,8,24,25c0,0,11,25,11,86V773c0,0,0,118,-5,145c0,0,-5,26,-17,36c0,0,-12,10,-32,10c0,0,-15,0,-47,-13L13,978l203,83h34V381L424,540c0,0,55,50,64,64c0,0,6,9,6,18c0,0,0,15,-12,26c0,0,-13,11,-41,12v23H738V660c0,0,-61,-2,-102,-19c0,0,-40,-17,-89,-62L372,418L547,196c0,0,73,-92,98,-117c0,0,36,-35,63,-45c0,0,18,-8,65,-8V0H441V26c0,0,28,1,38,9c0,0,10,8,10,22c0,0,0,17,-29,56L250,381V154c0,0,0,-67,10,-88c0,0,9,-21,26,-30c0,0,17,-9,75,-10V0Z" 
id="f1_27"
transform="scale(0.001,-0.001)" />

<path d="M399,62c0,0,68,0,131,68V481c0,0,-5,51,-27,93c0,0,-22,42,-59,63c0,0,-37,21,-72,21c0,0,-65,0,-117,-59c0,0,-67,-77,-67,-226c0,0,0,-151,65,-231c0,0,66,-80,146,-80ZM330,-20c0,0,-112,0,-196,93c0,0,-83,94,-83,240c0,0,0,147,92,269c0,0,93,122,238,122c0,0,90,0,149,-58V773c0,0,0,117,-6,144c0,0,-5,27,-17,37c0,0,-12,9,-30,9c0,0,-20,0,-52,-12l-9,27l204,83h33V270c0,0,0,-120,6,-146c0,0,5,-27,18,-37c0,0,12,-11,28,-11c0,0,21,0,54,13l9,-26L564,-20H530V78C530,78,480,25,432,2c0,0,-47,-22,-102,-22Z" 
id="f1_20"
transform="scale(0.001,-0.001)" />

<path d="M255,-10c0,0,-35,0,-68,18c0,0,-32,19,-48,55c0,0,-16,35,-16,109V632H15v24c0,0,41,16,84,56c0,0,43,39,77,92c0,0,17,29,48,104h23V683H407V632H247V188c0,0,0,-66,19,-90c0,0,19,-23,49,-23c0,0,24,0,47,16c0,0,23,15,36,45h29c0,0,-26,-73,-74,-110c0,0,-47,-36,-98,-36Z" 
id="f1_2g"
transform="scale(0.001,-0.001)" />

<path d="M56,-302v60H272V975H56v59H383V-302Z" 
id="f1_1t"
transform="scale(0.001,-0.001)" />

<path d="M678,393L506,802L330,393ZM11,0V27c0,0,63,12,82,30c0,0,38,35,84,145l356,832h27L912,193c0,0,43,-101,77,-132c0,0,35,-30,97,-34V0H687V27c0,0,60,3,82,21c0,0,21,17,21,41c0,0,0,33,-30,104L700,338H307L239,179c0,0,-26,-59,-26,-88c0,0,0,-23,22,-41c0,0,22,-17,95,-23V0Z" 
id="f1_11"
transform="scale(0.001,-0.001)" />

<path d="M125,-302V1034H453V975H237V-243H453v-59Z" 
id="f1_1r"
transform="scale(0.001,-0.001)" />

<path d="M0,214v74H784V214ZM0,494v72H784V494Z" 
id="f2_x"
transform="scale(0.001,-0.001)" />

<path d="M0,356v74H784V356Z" 
id="f2_h"
transform="scale(0.001,-0.001)" />

<path d="M33,0V27c0,0,264,241,371,393c0,0,108,152,108,278c0,0,0,96,-59,158c0,0,-59,62,-141,62c0,0,-75,0,-134,-43c0,0,-59,-44,-88,-128H63c0,0,18,138,95,212c0,0,77,74,193,74c0,0,123,0,205,-80c0,0,83,-79,83,-186c0,0,0,-77,-36,-154c0,0,-55,-121,-179,-256C424,357,238,154,191,112H455c0,0,81,0,114,6c0,0,32,6,58,25c0,0,27,18,46,52h27L630,0Z" 
id="f1_m"
transform="scale(0.001,-0.001)" />

<path d="M21,0V26H35c0,0,53,0,71,27c0,0,18,27,18,101V408c0,0,0,123,-5,150c0,0,-6,27,-17,37c0,0,-12,10,-31,10c0,0,-21,0,-50,-11L10,620l206,83h32V558c0,0,120,145,229,145c0,0,56,0,96,-28c0,0,40,-28,64,-92c0,0,16,-45,16,-137V154c0,0,0,-65,11,-88c0,0,8,-19,26,-29c0,0,18,-11,68,-11V0H419V26h14c0,0,47,0,66,15c0,0,20,15,27,43c0,0,3,11,3,70V434c0,0,0,93,-24,135c0,0,-24,42,-81,42c0,0,-88,0,-176,-97V154c0,0,0,-69,9,-86c0,0,10,-21,28,-31c0,0,19,-11,75,-11V0Z" 
id="f1_2a"
transform="scale(0.001,-0.001)" />

<path d="M29,0V27H63c0,0,44,0,71,16c0,0,19,11,30,36c0,0,8,18,8,94V839c0,0,0,78,-8,97c0,0,-8,20,-33,34c0,0,-25,15,-68,15H29v27H558V985H525c0,0,-44,0,-71,-16c0,0,-19,-11,-30,-36c0,0,-8,-18,-8,-94V173c0,0,0,-78,8,-97c0,0,9,-20,34,-34c0,0,24,-15,67,-15h33V0Z" 
id="f0_19"
transform="scale(0.001,-0.001)" />

<path d="M393,-277c0,0,104,0,164,28c0,0,59,27,59,77c0,0,0,19,-11,32c0,0,-20,22,-61,30c0,0,-41,8,-218,8c0,0,-76,0,-101,-12c0,0,-42,-23,-42,-63c0,0,0,-38,44,-69c0,0,44,-31,166,-31ZM366,253c0,0,45,0,75,41c0,0,30,41,30,160c0,0,0,134,-33,183c0,0,-24,36,-68,36c0,0,-43,0,-73,-44c0,0,-30,-44,-30,-181c0,0,0,-112,29,-153c0,0,30,-42,70,-42Zm8,-581c0,0,-94,0,-171,18c0,0,-78,18,-112,51c0,0,-33,32,-33,68c0,0,0,34,25,61c0,0,26,28,96,46c0,0,-97,48,-97,132c0,0,0,51,40,100c0,0,39,48,125,84c0,0,-100,36,-145,96c0,0,-44,60,-44,138c0,0,0,103,83,178c0,0,84,75,215,75c0,0,70,0,144,-30H734V607H601c0,0,37,-36,51,-66c0,0,18,-40,18,-85c0,0,0,-74,-42,-129c0,0,-41,-55,-112,-86c0,0,-72,-31,-127,-31c0,0,-5,0,-90,4c0,0,-33,0,-56,-22c0,0,-23,-22,-23,-52c0,0,0,-27,21,-44c0,0,20,-17,66,-17l130,1c0,0,157,0,216,-34c0,0,84,-47,84,-146c0,0,0,-64,-39,-115c0,0,-38,-52,-102,-77c0,0,-96,-36,-222,-36Z" 
id="f0_23"
transform="scale(0.001,-0.001)" />

<path d="M27,354v62H831V354Zm0,243v62H831V597Z" 
id="f1_x"
transform="scale(0.001,-0.001)" />

<path d="M379,29c0,0,41,0,84,37c0,0,43,36,65,121c0,0,34,128,34,362c0,0,0,173,-35,288c0,0,-27,86,-69,122c0,0,-31,25,-74,25c0,0,-51,0,-90,-46c0,0,-54,-62,-73,-195c0,0,-20,-132,-20,-261c0,0,0,-209,52,-341c0,0,42,-112,126,-112Zm-2,-46c0,0,-145,0,-241,170c0,0,-81,144,-81,347c0,0,0,173,52,298c0,0,52,125,139,186c0,0,67,49,139,49c0,0,116,0,208,-119c0,0,116,-147,116,-398c0,0,0,-176,-51,-299C658,217,608,94,529,38c0,0,-79,-55,-152,-55Z" 
id="f1_k"
transform="scale(0.001,-0.001)" />

<path d="M-12,338v55H776V338Z" 
id="f1_4y"
transform="scale(0.001,-0.001)" />

<path d="M479,469c0,0,-4,66,-16,93c0,0,-18,42,-55,65c0,0,-37,24,-78,24c0,0,-62,0,-111,-48c0,0,-48,-48,-57,-134ZM355,-20c0,0,-123,0,-211,95c0,0,-87,96,-87,258c0,0,0,175,90,273c0,0,89,98,225,98c0,0,115,0,189,-76c0,0,74,-75,74,-202H162c0,0,0,-152,74,-239c0,0,75,-86,175,-86c0,0,67,0,117,36c0,0,50,37,83,127l24,-15c0,0,-16,-102,-91,-186c0,0,-76,-83,-189,-83Z" 
id="f1_21"
transform="scale(0.001,-0.001)" />

<path d="M197,0V27c0,0,71,2,92,13c0,0,21,10,29,29c0,0,9,18,9,109V725c0,0,0,110,-8,141c0,0,-5,24,-19,35c0,0,-14,11,-33,11c0,0,-28,0,-77,-23l-11,23l246,121h25V178c0,0,0,-85,7,-106c0,0,7,-21,29,-32c0,0,23,-11,91,-13V0Z" 
id="f1_l"
transform="scale(0.001,-0.001)" />

<path d="M355,0V355H0v72H355V784h72V427H782V355H427V0Z" 
id="f2_f"
transform="scale(0.001,-0.001)" />

<path d="M35,-326v29c0,0,92,51,151,139c0,0,60,87,89,221c0,0,28,136,28,282c0,0,0,159,-24,290c0,0,-19,103,-47,165c0,0,-28,62,-75,119c0,0,-46,57,-122,110v31c0,0,113,-56,188,-132c0,0,107,-109,165,-255c0,0,58,-147,58,-306c0,0,0,-231,-114,-420c0,0,-113,-191,-297,-273Z" 
id="f1_d"
transform="scale(0.001,-0.001)" />

<path d="M474,-326c0,0,-112,57,-188,133c0,0,-107,108,-165,254c0,0,-58,147,-58,305c0,0,0,231,114,421c0,0,114,191,297,273v-31c0,0,-92,-51,-151,-139c0,0,-59,-88,-88,-223c0,0,-30,-135,-30,-281c0,0,0,-160,25,-290c0,0,20,-102,47,-164c0,0,28,-62,75,-120c0,0,47,-57,122,-109v-29Z" 
id="f1_c"
transform="scale(0.001,-0.001)" />

<path d="M31,0V27H67c0,0,36,0,68,18c0,0,24,12,32,36c0,0,9,24,9,98V836c0,0,0,96,-19,119c0,0,-27,30,-90,30H31v27H811L822,790H792c0,0,-15,80,-34,110c0,0,-19,30,-57,46c0,0,-29,11,-105,11H319V557H541c0,0,87,0,116,26c0,0,39,35,44,121h27V352H701c0,0,-11,74,-21,95c0,0,-14,26,-45,41c0,0,-30,15,-94,15H319V168c0,0,0,-67,6,-81c0,0,6,-15,21,-24c0,0,15,-8,56,-8H574c0,0,86,0,124,12c0,0,39,12,75,47c0,0,46,46,95,139h30L811,0Z" 
id="f1_15"
transform="scale(0.001,-0.001)" />

<path d="M25,0V26c0,0,27,4,47,19c0,0,29,22,96,111L311,346L182,535c0,0,-55,81,-86,102c0,0,-30,20,-75,20v26H341V657c0,0,-30,0,-42,-10c0,0,-13,-11,-13,-28c0,0,0,-19,27,-56c0,0,8,-12,25,-37l48,-78l56,77c0,0,55,74,55,94c0,0,0,16,0,27c0,0,0,11,0,11v26H674V657c0,0,-37,-2,-64,-20c0,0,-37,-26,-100,-111L416,402L587,156c0,0,63,-91,89,-109c0,0,27,-18,70,-21V0H423V26c0,0,34,0,53,15c0,0,14,11,14,28c0,0,0,17,-48,87L341,302L232,157c0,0,-50,-69,-50,-82c0,0,0,-18,17,-32c0,0,17,-15,50,-17V0Z" 
id="f1_2k"
transform="scale(0.001,-0.001)" />

<path d="M342,-20c0,0,-116,0,-203,97c0,0,-86,98,-86,264c0,0,0,161,96,261c0,0,95,101,230,101c0,0,100,0,165,-53c0,0,65,-54,65,-111c0,0,0,-29,-18,-46c0,0,-18,-18,-51,-18c0,0,-44,0,-66,29c0,0,-13,15,-17,59c0,0,-4,45,-30,68c0,0,-26,22,-73,22c0,0,-74,0,-120,-55c0,0,-60,-73,-60,-193c0,0,0,-122,60,-216c0,0,60,-93,162,-93c0,0,73,0,131,49c0,0,41,35,80,126l22,-10C629,261,601,125,521,52c0,0,-81,-72,-179,-72Z" 
id="f1_1z"
transform="scale(0.001,-0.001)" />

<path d="M398,24c0,0,74,0,120,58c0,0,61,76,61,214c0,0,0,156,-69,240c0,0,-47,59,-113,59c0,0,-36,0,-71,-18c0,0,-27,-14,-88,-81V242c0,0,0,-83,6,-109c0,0,11,-43,51,-76c0,0,41,-33,103,-33ZM-4,-326v27H15c5,0,42,0,69,16c0,0,14,8,22,26c0,0,7,19,7,94V481c0,0,0,67,-6,85c0,0,-5,18,-18,27c0,0,-13,9,-36,9c0,0,-18,0,-45,-10L0,615l209,85h29V540c0,0,53,91,106,127c0,0,53,36,112,36c0,0,103,0,172,-80c0,0,84,-99,84,-257c0,0,0,-176,-102,-292c0,0,-83,-94,-210,-94c0,0,-55,0,-95,16c0,0,-30,10,-67,44V-167c0,0,0,-71,8,-90c0,0,9,-20,30,-31c0,0,21,-11,77,-11v-27Z" 
id="f1_2c"
transform="scale(0.001,-0.001)" />

<path d="M63,0V26H93c0,0,30,0,54,15c0,0,25,15,34,41c0,0,10,25,10,99V630H58v53H191v45c0,0,0,102,33,173c0,0,32,71,100,114c0,0,68,44,152,44c0,0,79,0,145,-51c0,0,43,-33,43,-75c0,0,0,-22,-19,-42c0,0,-20,-20,-42,-20c0,0,-17,0,-36,12c0,0,-19,13,-47,53c0,0,-28,41,-51,55c0,0,-23,14,-51,14c0,0,-35,0,-58,-18c0,0,-24,-18,-35,-57c0,0,-10,-38,-10,-197V683H491V630H315V181c0,0,0,-96,21,-122c0,0,27,-33,73,-33h62V0Z" 
id="f1_22"
transform="scale(0.001,-0.001)" />

<path d="M55,0V26c0,0,50,0,67,10c0,0,17,10,27,32c0,0,10,23,10,86V418c0,0,0,111,-6,144c0,0,-6,24,-17,33c0,0,-11,10,-30,10c0,0,-21,0,-51,-11L45,620l206,83h33V154c0,0,0,-64,9,-85c0,0,9,-22,27,-32c0,0,19,-11,67,-11V0ZM222,909c0,0,-32,0,-54,23c0,0,-22,22,-22,53c0,0,0,32,22,54c0,0,22,22,54,22c0,0,31,0,53,-22c0,0,22,-22,22,-54c0,0,0,-31,-22,-53c0,0,-22,-23,-53,-23Z" 
id="f1_25"
transform="scale(0.001,-0.001)" />

<path d="M17,0V26c0,0,52,0,77,17c0,0,19,12,26,38c0,0,4,13,4,73V419c0,0,0,119,-5,142c0,0,-4,23,-17,33c0,0,-13,11,-33,11c0,0,-23,0,-52,-11l-7,26l207,83h31V549c0,0,86,154,176,154c0,0,41,0,68,-25c0,0,27,-25,27,-58c0,0,0,-29,-20,-49c0,0,-19,-20,-46,-20c0,0,-26,0,-58,25c0,0,-33,26,-48,26c0,0,-14,0,-29,-15c0,0,-34,-30,-70,-101V159c0,0,0,-56,15,-85c0,0,9,-20,34,-34c0,0,24,-14,71,-14V0Z" 
id="f1_2e"
transform="scale(0.001,-0.001)" />

<path d="M312,-20c0,0,-62,0,-143,22c0,0,-25,8,-40,8c0,0,-18,0,-27,-19H77V234h25c0,0,21,-105,80,-158c0,0,59,-53,132,-53c0,0,51,0,84,31c0,0,32,30,32,72c0,0,0,52,-36,87c0,0,-36,35,-144,88c0,0,-109,54,-142,97c0,0,-34,43,-34,107c0,0,0,85,58,141c0,0,58,57,150,57c0,0,40,0,97,-17c0,0,38,-11,51,-11c0,0,12,0,19,5c0,0,7,5,15,23h25V470H464c0,0,-28,110,-72,149c0,0,-45,40,-113,40c0,0,-53,0,-85,-28c0,0,-32,-27,-32,-61c0,0,0,-41,24,-71c0,0,23,-31,94,-65L389,381c0,0,152,-74,152,-194c0,0,0,-94,-71,-151c0,0,-70,-56,-158,-56Z" 
id="f1_2f"
transform="scale(0.001,-0.001)" />

<path d="M545,30c0,0,143,0,236,111c0,0,93,111,93,351c0,0,0,259,-103,386c0,0,-82,102,-226,102c0,0,-136,0,-218,-101C327,879,225,754,225,512c0,0,0,-247,106,-380c0,0,81,-102,214,-102Zm2,-51c0,0,-209,0,-351,147C196,126,54,274,54,510c0,0,0,240,164,393c0,0,142,131,341,131c0,0,197,0,341,-149c0,0,145,-149,145,-373c0,0,0,-230,-146,-382C899,130,754,-21,547,-21Z" 
id="f1_1f"
transform="scale(0.001,-0.001)" />

<path d="M549,-22c0,0,-132,0,-203,34c0,0,-98,47,-138,122c0,0,-41,75,-41,201V830c0,0,0,87,-9,109c0,0,-10,21,-34,34c0,0,-22,12,-82,12c-2,0,-4,0,-6,0v27H558V985H532c0,0,-59,0,-81,-13c0,0,-22,-12,-31,-34c0,0,-9,-21,-9,-108V335c0,0,0,-136,20,-180c0,0,21,-44,68,-73c0,0,47,-29,118,-29c0,0,82,0,140,37c0,0,58,37,87,102c0,0,29,64,29,226V830c0,0,0,68,-15,97c0,0,-14,29,-35,40c0,0,-34,18,-95,18v27h350V985h-21c0,0,-43,0,-71,-18c0,0,-28,-17,-41,-51c0,0,-10,-24,-10,-86V446c0,0,0,-178,-23,-258c0,0,-24,-79,-115,-145c0,0,-91,-65,-248,-65Z" 
id="f0_1l"
transform="scale(0.001,-0.001)" />

<path d="M49,0V26c0,0,47,1,67,11c0,0,20,10,28,28c0,0,7,18,7,75l-1,484H49v73H150v87c0,0,0,107,79,179c0,0,78,71,212,71c0,0,92,0,136,-34c0,0,45,-34,45,-76c0,0,0,-34,-28,-58c0,0,-28,-25,-73,-25c0,0,-39,0,-62,20c0,0,-22,20,-22,45c0,0,0,6,4,27c0,0,3,13,3,24c0,0,0,16,-9,23c0,0,-12,11,-29,11c0,0,-21,0,-36,-17c0,0,-15,-18,-15,-58l1,-130V697H460V624H356l1,-484c0,0,0,-70,15,-88c0,0,22,-26,81,-26c2,0,5,0,7,0V0Z" 
id="f0_22"
transform="scale(0.001,-0.001)" />

<path d="M25,0V27H61c0,0,64,0,91,39c0,0,16,24,16,109V837c0,0,0,67,-15,97c0,0,-10,22,-38,36c0,0,-28,15,-90,15v27H312L678,220l363,792h285V985h-35c0,0,-64,0,-91,-39c0,0,-17,-24,-17,-109V175c0,0,0,-93,21,-116c0,0,28,-32,87,-32h35V0H898V27h36c0,0,64,0,90,39c0,0,17,24,17,109V852L649,0H625L234,852V175c0,0,0,-93,20,-116c0,0,27,-32,87,-32h35V0Z" 
id="f1_1d"
transform="scale(0.001,-0.001)" />

<path d="M191,-20c0,0,-34,0,-58,24c0,0,-24,24,-24,58c0,0,0,35,24,59c0,0,24,24,58,24c0,0,35,0,59,-24c0,0,24,-25,24,-59c0,0,0,-34,-24,-58c0,0,-25,-24,-59,-24Z" 
id="f1_i"
transform="scale(0.001,-0.001)" />

<path d="M610,-21c0,0,-162,0,-287,63c0,0,-126,65,-194,187c0,0,-68,121,-68,258c0,0,0,145,75,275c0,0,76,129,205,201c0,0,128,71,273,71c0,0,107,0,225,-46c0,0,69,-27,88,-27c0,0,24,0,41,18c0,0,18,17,23,55h29V683H991c0,0,-33,138,-122,211c0,0,-90,73,-203,73c0,0,-95,0,-174,-54c0,0,-79,-55,-116,-143c0,0,-47,-112,-47,-250c0,0,0,-135,34,-247c0,0,35,-111,108,-168c0,0,73,-57,189,-57c0,0,96,0,175,42c0,0,80,41,168,144V146c0,0,-85,-89,-178,-129c0,0,-92,-38,-215,-38Z" 
id="f0_13"
transform="scale(0.001,-0.001)" />

<path d="M491,-305c0,0,-180,60,-305,247C186,-58,61,127,61,368c0,0,0,239,124,423c0,0,125,184,306,243v-34c0,0,-78,-50,-115,-99c0,0,-50,-67,-79,-172c0,0,-36,-131,-36,-365c0,0,0,-221,33,-343c0,0,32,-122,88,-197c0,0,39,-52,109,-92v-37Z" 
id="f0_c"
transform="scale(0.001,-0.001)" />

<path d="M50,0V26c0,0,44,5,63,29c0,0,13,16,13,97V860c0,0,0,80,-15,99c0,0,-14,20,-61,26v27H335V346L497,505c0,0,50,49,62,70c0,0,13,22,13,42c0,0,0,20,-17,33c0,0,-16,14,-64,20v27H804V670c0,0,-45,-2,-78,-21c0,0,-34,-19,-132,-114L519,460L682,219c0,0,99,-146,118,-164c0,0,25,-26,64,-29V0H504V26c0,0,24,0,35,9c0,0,10,9,10,20c0,0,0,17,-31,64L380,322L335,277V152c0,0,0,-81,15,-100c0,0,15,-20,61,-26V0Z" 
id="f0_27"
transform="scale(0.001,-0.001)" />

<path d="M19,-305v34c0,0,77,52,114,100c0,0,50,67,79,171c0,0,36,131,36,365c0,0,0,221,-33,343c0,0,-32,122,-88,198c0,0,-39,52,-108,91v37c0,0,179,-60,304,-246c0,0,125,-186,125,-428c0,0,0,-238,-125,-421c0,0,-125,-184,-304,-244Z" 
id="f0_d"
transform="scale(0.001,-0.001)" />

<path d="M450,515c0,0,91,0,141,54c0,0,49,54,49,167c0,0,0,113,-49,165c0,0,-50,52,-148,52H413V516c0,0,24,-1,37,-1ZM39,0V27c0,0,70,0,95,13c0,0,25,14,35,35c0,0,10,21,10,103V834c0,0,0,82,-10,104c0,0,-10,21,-36,34c0,0,-25,13,-94,13v27H480c0,0,218,0,313,-78c0,0,94,-77,94,-194c0,0,0,-99,-61,-169c0,0,-61,-70,-169,-95c0,0,-72,-18,-244,-18V178c0,0,0,-82,10,-104c0,0,10,-21,35,-34c0,0,26,-13,94,-13V0Z" 
id="f0_1g"
transform="scale(0.001,-0.001)" />

<path d="M32,0V26c0,0,46,2,69,27c0,0,14,18,14,92V867c0,0,0,74,-17,94c0,0,-17,21,-66,24v27H325V145c0,0,0,-74,17,-95c0,0,17,-21,68,-24V0Z" 
id="f0_28"
transform="scale(0.001,-0.001)" />

<path d="M376,-20L133,556c0,0,-17,41,-31,58c0,0,-15,18,-39,30c0,0,-12,7,-50,13v26H335V657H314c0,0,-29,0,-44,-14c0,0,-16,-14,-15,-38c0,0,-1,-26,15,-62L429,165L588,557c0,0,17,42,17,64c0,0,0,10,-6,17c0,0,-8,11,-21,15c0,0,-13,4,-52,4v26H750V657c0,0,-39,-3,-54,-16c0,0,-26,-23,-47,-76L409,-20Z" 
id="f1_2i"
transform="scale(0.001,-0.001)" />

<path d="M58,0V26c0,0,47,0,64,10c0,0,18,10,28,32c0,0,9,23,9,86V775c0,0,0,116,-5,142c0,0,-5,27,-17,37c0,0,-11,9,-29,9c0,0,-20,0,-49,-12L46,978l204,83h34V154c0,0,0,-64,9,-85c0,0,9,-21,29,-32c0,0,19,-11,72,-11V0Z" 
id="f1_28"
transform="scale(0.001,-0.001)" />

<path d="M56,0V26c0,0,44,5,63,29c0,0,13,16,13,97V546c0,0,0,79,-15,98c0,0,-14,20,-61,26v27H341V606c0,0,57,63,106,88c0,0,49,25,108,25c0,0,67,0,112,-32c0,0,46,-31,71,-95c0,0,59,67,114,97c0,0,55,30,115,30c0,0,72,0,115,-34c0,0,43,-33,60,-84c0,0,16,-51,16,-163V152c0,0,0,-81,15,-100c0,0,14,-20,61,-26V0H873V26c0,0,42,4,63,33c0,0,13,20,13,93V452c0,0,0,93,-7,119c0,0,-8,25,-24,38c0,0,-16,12,-37,12c0,0,-32,0,-65,-24c0,0,-33,-23,-66,-70V152c0,0,0,-76,12,-95c0,0,17,-28,66,-31V0H466V26c0,0,29,2,46,15c0,0,17,13,23,31c0,0,5,18,5,80V452c0,0,0,95,-7,119c0,0,-8,24,-25,37c0,0,-18,14,-38,14c0,0,-30,0,-54,-16c0,0,-35,-23,-75,-79V152c0,0,0,-74,14,-98c0,0,15,-23,61,-28V0Z" 
id="f0_29"
transform="scale(0.001,-0.001)" />

<path d="M32,0V27H66c0,0,44,0,71,16c0,0,19,11,30,36c0,0,8,18,8,94V839c0,0,0,78,-8,97c0,0,-8,20,-33,34c0,0,-25,15,-68,15H32v27H561V985H528c0,0,-44,0,-71,-16c0,0,-19,-11,-30,-36c0,0,-9,-18,-9,-94V552H775V839c0,0,0,78,-8,97c0,0,-9,20,-34,34c0,0,-25,15,-68,15H632v27h529V985h-33c0,0,-45,0,-71,-16c0,0,-19,-11,-31,-36c0,0,-8,-18,-8,-94V173c0,0,0,-78,8,-97c0,0,9,-20,34,-34c0,0,26,-15,68,-15h33V0H632V27h33c0,0,45,0,71,16c0,0,19,11,31,36c0,0,8,18,8,94V487H418V173c0,0,0,-78,9,-97c0,0,9,-20,33,-34c0,0,25,-15,68,-15h33V0Z" 
id="f0_18"
transform="scale(0.001,-0.001)" />

<path d="M2,-20L369,1061h59L62,-20Z" 
id="f1_j"
transform="scale(0.001,-0.001)" />

<path d="M579,-17c0,0,-147,0,-266,70c0,0,-119,70,-189,197c0,0,-71,127,-71,277c0,0,0,149,69,271c0,0,69,123,187,191c0,0,119,69,265,69c0,0,149,0,260,-62l25,44H965L1067,667L928,627c0,0,-69,133,-130,189c0,0,-85,77,-185,77c0,0,-72,0,-135,-41c0,0,-63,-40,-100,-118c0,0,-37,-78,-37,-183c0,0,0,-161,85,-276c0,0,85,-116,222,-116c0,0,87,0,168,50c0,0,100,62,173,167l116,-86C1105,290,992,136,899,76c0,0,-144,-93,-320,-93Z" 
id="f3_13"
transform="scale(0.001,-0.001)" />

<path d="M54,0V144H88c0,0,44,0,61,7c0,0,17,8,24,21c0,0,6,14,6,59V797c0,0,0,53,-6,69c0,0,-7,16,-20,23c0,0,-14,8,-53,8H54v143H561V897H515c0,0,-39,0,-53,-8c0,0,-14,-8,-20,-23c0,0,-6,-14,-6,-63V622H815V817c0,0,0,36,-4,48c0,0,-6,18,-20,25c0,0,-14,7,-63,7H688v143h510V897h-43c0,0,-43,0,-57,-7c0,0,-14,-8,-20,-21c0,0,-5,-14,-5,-66V239c0,0,0,-52,7,-67c0,0,7,-16,21,-22c0,0,15,-6,67,-6h30V0H688V144h34c0,0,47,0,64,7c0,0,17,8,23,22c0,0,6,14,6,66V460H436V239c0,0,0,-52,5,-65c0,0,7,-18,22,-24c0,0,16,-6,63,-6h35V0Z" 
id="f3_18"
transform="scale(0.001,-0.001)" />

<path d="M59,0V144H85c0,0,52,0,70,7c0,0,18,8,25,26c0,0,4,11,4,64V808c0,0,0,46,-7,60c0,0,-6,14,-19,22c0,0,-14,7,-53,7H59v143H928L1046,712L911,663c0,0,-34,81,-80,130c0,0,-46,49,-102,65c0,0,-55,16,-129,16H441V615h52c0,0,59,0,80,9c0,0,20,8,29,26c0,0,9,19,9,73v40H744V322H611v45c0,0,0,45,-11,66c0,0,-11,21,-29,29c0,0,-19,7,-83,7H441V230c0,0,0,-38,4,-47c0,0,3,-8,14,-12c0,0,11,-5,47,-5h87c0,0,98,0,165,28c0,0,67,28,120,91c0,0,53,63,81,149l136,-47L959,0Z" 
id="f3_15"
transform="scale(0.001,-0.001)" />

<path d="M59,0V144h42c0,0,39,0,54,7c0,0,15,7,22,22c0,0,7,15,7,57V813c0,0,0,40,-5,52c0,0,-7,17,-21,24c0,0,-13,8,-42,8H59v143H530L711,408l185,632h481V897h-52c0,0,-41,0,-57,-18c0,0,-16,-17,-16,-66V222c0,0,0,-39,4,-48c0,0,7,-15,19,-21c0,0,16,-9,43,-9h59V0H876V144h39c0,0,42,0,57,6c0,0,15,7,22,21c0,0,7,14,7,51V862L748,0H604L359,835V202c0,0,0,-22,8,-34c0,0,8,-12,22,-18c0,0,15,-6,47,-6h50V0Z" 
id="f3_1d"
transform="scale(0.001,-0.001)" />

<path d="M52,0V144H93c0,0,44,0,58,6c0,0,13,6,20,20c0,0,6,14,6,55V803c0,0,0,49,-6,64c0,0,-7,15,-22,24c0,0,-10,6,-51,6H52v143H559V897H513c0,0,-40,0,-53,-7c0,0,-13,-8,-20,-23c0,0,-6,-15,-6,-58V233c0,0,0,-47,5,-61c0,0,6,-13,18,-19c0,0,16,-9,47,-9h55V0Z" 
id="f3_19"
transform="scale(0.001,-0.001)" />

<path d="M610,480L509,765L404,480ZM2,0V144c0,0,39,0,56,6c0,0,18,7,30,21c0,0,11,13,25,49l322,820H669L981,237c0,0,25,-64,45,-79c0,0,19,-14,68,-14c2,0,3,0,5,0V0H606V144h30c0,0,41,0,58,11c0,0,16,11,16,27c0,0,0,13,-14,55l-32,94H349L310,226c0,0,-12,-33,-12,-44c0,0,0,-11,8,-21c0,0,9,-10,28,-14c0,0,13,-3,71,-3V0Z" 
id="f3_11"
transform="scale(0.001,-0.001)" />

<path d="M63,0V144h49c0,0,31,0,46,8c0,0,16,8,23,22c0,0,7,14,7,48V812c0,0,0,37,-7,53c0,0,-7,17,-20,24c0,0,-13,8,-44,8H63v143H570V897H526c0,0,-37,0,-47,-4c0,0,-18,-8,-26,-23c0,0,-8,-15,-8,-49V226c0,0,0,-36,3,-44c0,0,4,-8,14,-13c0,0,10,-5,40,-5c0,0,100,0,161,26c0,0,61,27,110,84c0,0,49,58,84,158L994,385L857,0Z" 
id="f3_1c"
transform="scale(0.001,-0.001)" />

<path d="M55,0l1,144H94c0,0,44,0,59,7c0,0,15,7,22,23c0,0,6,12,6,61V803c0,0,0,47,-7,62c0,0,-7,16,-22,24c0,0,-15,8,-54,8H56v143H564V897H531c0,0,-49,0,-60,-6c0,0,-18,-8,-26,-23c0,0,-8,-14,-8,-55V537L761,836c0,0,22,21,26,28c0,0,5,7,5,12c0,0,0,10,-9,15c0,0,-8,6,-43,6H698v143h470V897h-15c0,0,-33,0,-46,-4c0,0,-12,-3,-31,-14c0,0,-18,-11,-47,-37L778,625L1078,219c0,0,38,-52,56,-62c0,0,24,-13,69,-13h20V0H698V144h21c0,0,57,0,70,5c0,0,12,5,12,13c0,0,0,9,-23,43L594,466L437,330V225c0,0,0,-39,8,-54c0,0,7,-15,21,-21c0,0,14,-6,56,-6h42V0Z" 
id="f3_1b"
transform="scale(0.001,-0.001)" />

<path d="M59,0V144h44c0,0,37,0,51,6c0,0,14,6,22,22c0,0,8,16,8,47V816c0,0,0,34,-8,50c0,0,-7,16,-20,24c0,0,-12,7,-42,7H59v143H480L786,433V805c0,0,0,48,-5,60c0,0,-8,17,-20,25c0,0,-13,7,-49,7H661v143h428V897h-47c0,0,-36,0,-51,-9c0,0,-15,-8,-21,-22c0,0,-6,-14,-6,-61V0H750L364,767V230c0,0,0,-46,5,-59c0,0,6,-12,20,-20c0,0,15,-7,50,-7h50V0Z" 
id="f3_1e"
transform="scale(0.001,-0.001)" />

<path d="M280,0V144h30c0,0,51,0,66,6c0,0,14,6,21,22c0,0,8,17,8,67V851c0,0,0,26,-6,33c0,0,-6,7,-26,7c0,0,-38,0,-86,-29c0,0,-48,-29,-85,-82c0,0,-15,-21,-63,-118L2,711l128,365h99l10,-36H826l13,36h99L1067,711L928,662c0,0,-46,91,-66,119c0,0,-40,55,-92,86c0,0,-38,24,-77,24c0,0,-18,0,-24,-9c0,0,-7,-8,-7,-39V244c0,0,0,-53,4,-66c0,0,3,-13,12,-21c0,0,9,-8,25,-11c0,0,16,-2,84,-2V0Z" 
id="f3_1k"
transform="scale(0.001,-0.001)" />

<path d="M567,-17c0,0,-83,0,-152,21c0,0,-70,21,-145,71L237,0H126L52,404l140,33c0,0,49,-123,153,-205c0,0,104,-82,228,-82c0,0,56,0,93,14c0,0,37,14,56,39c0,0,18,25,18,52c0,0,0,45,-43,77c0,0,-44,32,-154,63L369,446c0,0,-40,11,-107,42c0,0,-68,31,-104,64c0,0,-36,34,-60,86c0,0,-24,53,-24,111c0,0,0,83,46,153c0,0,46,69,138,113c0,0,92,43,204,43c0,0,135,0,244,-70l29,52H842L932,692L792,652c0,0,-69,125,-157,183c0,0,-88,58,-187,58c0,0,-64,0,-101,-26c0,0,-37,-27,-37,-59c0,0,0,-36,34,-67c0,0,32,-32,121,-56L665,626c0,0,166,-47,237,-126c0,0,70,-80,70,-186c0,0,0,-135,-107,-229C865,85,745,-17,567,-17Z" 
id="f3_1j"
transform="scale(0.001,-0.001)" />


</defs>
</svg>